<svg width="18" height="18" viewBox="0 0 18 18" fill="none" xmlns="http://www.w3.org/2000/svg">
<path d="M4.21001 16.3C3.38311 16.3001 2.58934 15.9751 2.00001 15.395L1.93501 15.33C1.63891 15.0411 1.40364 14.6958 1.24306 14.3146C1.08248 13.9333 0.99984 13.5237 1.00001 13.11C0.998963 12.6621 1.08681 12.2185 1.25847 11.8048C1.43012 11.3911 1.68217 11.0156 2.00001 10.7L9.75001 3.03504C10.5374 2.21517 11.6154 1.73741 12.7517 1.70468C13.888 1.67195 14.9917 2.08686 15.825 2.86004C16.2008 3.23493 16.4983 3.68089 16.7 4.17191C16.9018 4.66294 17.0037 5.1892 17 5.72004C16.9956 6.31289 16.874 6.89902 16.6423 7.44475C16.4107 7.99048 16.0734 8.48504 15.65 8.90004L8.68501 15.8C8.64171 15.8583 8.58626 15.9064 8.5225 15.941C8.45874 15.9757 8.38819 15.9961 8.31577 16.0007C8.24335 16.0054 8.17079 15.9942 8.10312 15.968C8.03545 15.9418 7.9743 15.9011 7.92391 15.8489C7.87352 15.7967 7.83511 15.7341 7.81133 15.6655C7.78756 15.597 7.77899 15.5241 7.78623 15.4518C7.79348 15.3796 7.81635 15.3099 7.85326 15.2474C7.89018 15.1849 7.94025 15.1312 8.00001 15.09L14.945 8.19004C15.2748 7.86807 15.5378 7.48414 15.7189 7.06026C15.8999 6.63639 15.9955 6.18093 16 5.72004C16.0036 5.32116 15.9277 4.92557 15.7766 4.5564C15.6255 4.18723 15.4023 3.85191 15.12 3.57004C14.4739 2.98147 13.6226 2.67005 12.7492 2.70278C11.8759 2.7355 11.0502 3.10977 10.45 3.74504L2.72501 11.41C2.49736 11.6311 2.31601 11.8952 2.19154 12.1871C2.06706 12.479 2.00195 12.7927 2.00001 13.11C1.99866 13.3887 2.05279 13.6648 2.15923 13.9224C2.26568 14.1799 2.42231 14.4137 2.62001 14.61L2.68501 14.675C3.13239 15.087 3.72364 15.3068 4.33148 15.2872C4.93933 15.2676 5.51516 15.01 5.93501 14.57L12.61 7.97004C12.7362 7.8424 12.8358 7.69088 12.9027 7.52432C12.9697 7.35777 13.0028 7.17953 13 7.00004C13.0011 6.84414 12.9712 6.68958 12.9119 6.54536C12.8527 6.40115 12.7654 6.27016 12.655 6.16004C12.4025 5.92849 12.0691 5.80553 11.7267 5.81769C11.3843 5.82985 11.0604 5.97616 10.825 6.22504L6.22501 10.785C6.13086 10.8785 6.00342 10.9308 5.87074 10.9303C5.73806 10.9298 5.611 10.8767 5.51751 10.7825C5.42402 10.6884 5.37176 10.561 5.37223 10.4283C5.3727 10.2956 5.42586 10.1685 5.52001 10.075L10.14 5.50004C10.5635 5.0662 11.1406 4.81623 11.7467 4.80407C12.3528 4.79191 12.9395 5.01853 13.38 5.43504C13.5826 5.64128 13.7419 5.88602 13.8483 6.15481C13.9548 6.4236 14.0064 6.71099 14 7.00004C13.9995 7.3113 13.9368 7.61932 13.8158 7.90608C13.6947 8.19283 13.5177 8.45255 13.295 8.67004L6.64001 15.29C5.99526 15.9345 5.12164 16.2976 4.21001 16.3Z" fill="black"/>
</svg>
