<svg width="24" height="24" viewBox="0 0 24 24" fill="none" xmlns="http://www.w3.org/2000/svg">
<path d="M1.99952 5.75C1.99952 5.02065 2.28925 4.32118 2.80498 3.80546C3.3207 3.28973 4.02018 3 4.74952 3H19.2495C19.9789 3 20.6783 3.28973 21.1941 3.80546C21.7098 4.32118 21.9995 5.02065 21.9995 5.75V15.25C21.9995 15.9793 21.7098 16.6788 21.1941 17.1945C20.6783 17.7103 19.9789 18 19.2495 18H9.99952V17C10.1195 16.84 10.2299 16.6733 10.3305 16.5H19.2495C19.9395 16.5 20.4995 15.94 20.4995 15.25V5.75C20.4995 5.06 19.9395 4.5 19.2495 4.5H4.74952C4.05952 4.5 3.49952 5.06 3.49952 5.75V9.669C2.91486 10.0065 2.40461 10.4589 1.99952 10.999V5.75ZM6.74952 7C6.55061 7 6.35985 7.07902 6.21919 7.21967C6.07854 7.36032 5.99952 7.55109 5.99952 7.75C5.99952 7.94891 6.07854 8.13968 6.21919 8.28033C6.35985 8.42098 6.55061 8.5 6.74952 8.5H17.2495C17.4484 8.5 17.6392 8.42098 17.7799 8.28033C17.9205 8.13968 17.9995 7.94891 17.9995 7.75C17.9995 7.55109 17.9205 7.36032 17.7799 7.21967C17.6392 7.07902 17.4484 7 17.2495 7H6.74952ZM12.7495 12C12.5506 12 12.3598 12.079 12.2192 12.2197C12.0785 12.3603 11.9995 12.5511 11.9995 12.75C11.9995 12.9489 12.0785 13.1397 12.2192 13.2803C12.3598 13.421 12.5506 13.5 12.7495 13.5H17.2495C17.4484 13.5 17.6392 13.421 17.7799 13.2803C17.9205 13.1397 17.9995 12.9489 17.9995 12.75C17.9995 12.5511 17.9205 12.3603 17.7799 12.2197C17.6392 12.079 17.4484 12 17.2495 12H12.7495ZM5.99952 10C4.93852 10 3.92098 10.4215 3.17074 11.1717C2.4205 11.922 1.99902 12.9395 1.99902 14.0005C1.99902 15.0615 2.4205 16.079 3.17074 16.8293C3.92098 17.5795 4.93852 18.001 5.99952 18.001C7.06052 18.001 8.07807 17.5795 8.8283 16.8293C9.57854 16.079 10 15.0615 10 14.0005C10 12.9395 9.57854 11.922 8.8283 11.1717C8.07807 10.4215 7.06052 10 5.99952 10ZM8.99952 18.001C8.16452 18.629 7.12552 19.001 5.99952 19.001C4.91767 19.003 3.86457 18.6527 2.99952 18.003V21.249C2.99952 21.819 3.60452 22.169 4.08952 21.918L4.17952 21.863L5.99952 20.592L7.81952 21.864C7.92463 21.9374 8.04679 21.9826 8.17435 21.9954C8.30191 22.0081 8.43061 21.9879 8.54816 21.9368C8.66571 21.8856 8.76818 21.8052 8.8458 21.7032C8.92342 21.6012 8.97359 21.4809 8.99152 21.354L8.99952 21.249V18.001Z" fill="#374174"/>
</svg>
