<svg width="64" height="64" viewBox="0 0 64 64" fill="none" xmlns="http://www.w3.org/2000/svg">
<path fill-rule="evenodd" clip-rule="evenodd" d="M25.5787 8.53333C25.1578 8.91107 24.7171 9.26624 24.2587 9.59733C23.464 10.1307 22.5707 10.4987 21.632 10.6853C21.224 10.7653 20.7973 10.8 19.9467 10.8667C17.8107 11.0373 16.7413 11.1227 15.8507 11.4373C14.832 11.7964 13.9067 12.3792 13.143 13.143C12.3792 13.9067 11.7964 14.832 11.4373 15.8507C11.1227 16.7413 11.0373 17.8107 10.8667 19.9467C10.836 20.5112 10.7755 21.0738 10.6853 21.632C10.4987 22.5707 10.1307 23.464 9.59732 24.2587C9.36532 24.6053 9.08798 24.9307 8.53332 25.5787C7.14398 27.2107 6.44798 28.0267 6.03998 28.88C5.09865 30.8533 5.09865 33.1467 6.03998 35.12C6.44798 35.9733 7.14398 36.7893 8.53332 38.4213C9.08798 39.0693 9.36532 39.3947 9.59732 39.7413C10.1307 40.536 10.4987 41.4293 10.6853 42.368C10.7653 42.776 10.8 43.2027 10.8667 44.0533C11.0373 46.1893 11.1227 47.2587 11.4373 48.1493C11.7964 49.168 12.3792 50.0933 13.143 50.857C13.9067 51.6208 14.832 52.2036 15.8507 52.5627C16.7413 52.8773 17.8107 52.9627 19.9467 53.1333C20.7973 53.2 21.224 53.2347 21.632 53.3147C22.5707 53.5013 23.464 53.872 24.2587 54.4027C24.6053 54.6347 24.9307 54.912 25.5787 55.4667C27.2107 56.856 28.0267 57.552 28.88 57.96C30.8533 58.9013 33.1467 58.9013 35.12 57.96C35.9733 57.552 36.7893 56.856 38.4213 55.4667C39.0693 54.912 39.3947 54.6347 39.7413 54.4027C40.536 53.8693 41.4293 53.5013 42.368 53.3147C42.776 53.2347 43.2027 53.2 44.0533 53.1333C46.1893 52.9627 47.2587 52.8773 48.1493 52.5627C49.168 52.2036 50.0932 51.6208 50.857 50.857C51.6208 50.0933 52.2036 49.168 52.5627 48.1493C52.8773 47.2587 52.9627 46.1893 53.1333 44.0533C53.2 43.2027 53.2347 42.776 53.3147 42.368C53.5013 41.4293 53.872 40.536 54.4026 39.7413C54.6347 39.3947 54.912 39.0693 55.4667 38.4213C56.856 36.7893 57.552 35.9733 57.96 35.12C58.9013 33.1467 58.9013 30.8533 57.96 28.88C57.552 28.0267 56.856 27.2107 55.4667 25.5787C55.0889 25.1578 54.7337 24.7172 54.4026 24.2587C53.869 23.4641 53.4991 22.5712 53.3147 21.632C53.2245 21.0738 53.1639 20.5112 53.1333 19.9467C52.9627 17.8107 52.8773 16.7413 52.5627 15.8507C52.2036 14.832 51.6208 13.9067 50.857 13.143C50.0932 12.3792 49.168 11.7964 48.1493 11.4373C47.2587 11.1227 46.1893 11.0373 44.0533 10.8667C43.4887 10.836 42.9262 10.7755 42.368 10.6853C41.4288 10.5009 40.5359 10.131 39.7413 9.59733C39.2828 9.26624 38.8422 8.91107 38.4213 8.53333C36.7893 7.14399 35.9733 6.44799 35.12 6.03999C34.146 5.57379 33.0798 5.33179 32 5.33179C30.9201 5.33179 29.854 5.57379 28.88 6.03999C28.0267 6.44799 27.2107 7.14399 25.5787 8.53333ZM43.6613 26.3013C44.0382 25.8888 44.2415 25.3469 44.2289 24.7882C44.2163 24.2296 43.9888 23.6974 43.5937 23.3023C43.1986 22.9072 42.6664 22.6797 42.1077 22.6671C41.5491 22.6545 41.0072 22.8578 40.5947 23.2347L27.6613 36.168L23.4053 31.9147C22.9928 31.5378 22.4509 31.3345 21.8922 31.3471C21.3336 31.3597 20.8014 31.5872 20.4063 31.9823C20.0112 32.3774 19.7836 32.9096 19.771 33.4682C19.7585 34.0269 19.9618 34.5688 20.3386 34.9813L26.1253 40.768C26.5323 41.1741 27.0837 41.4022 27.6587 41.4022C28.2336 41.4022 28.785 41.1741 29.192 40.768L43.6613 26.3013Z" fill="#64B055"/>
</svg>
