<svg width="40" height="40" viewBox="0 0 40 40" fill="none" xmlns="http://www.w3.org/2000/svg">
<g clip-path="url(#clip0_130_274)">
<path d="M25.49 22.9641H25.0903L24.3431 23.2998L22.1829 26.1653H13.2765L10.9425 22.9527H10.5896L7.92676 23.9927L7.0659 24.5071L6.06723 25.8753L5.6709 27.6057V32.0908H8.21957V39.5038L8.51934 40H26.36L25.49 22.9641Z" fill="#6B7ED9"/>
<path d="M3.00098 29.563V31.8676L3.63238 32.0908H5.8859V27.9373C5.8859 26.2404 7.00801 24.8484 7.92723 23.9927L6.14293 24.6896C4.79965 25.2424 3.00098 26.9819 3.00098 29.563Z" fill="#4D66D2"/>
<path d="M22.183 21.8381L21.4278 21.5457C21.3187 21.5035 21.2249 21.4293 21.1587 21.3329C21.0925 21.2365 21.0569 21.1224 21.0566 21.0054L21.055 18.6252C20.1549 19.2141 19.0807 19.558 17.927 19.558C17.8152 19.558 17.7051 19.5544 17.5957 19.549V26.7402H19.057L22.3713 22.3139L22.183 21.8381Z" fill="#FFCEBE"/>
<path d="M17.8371 19.5565C16.6025 19.5402 15.517 19.1913 14.6282 18.6166V21.0018C14.6282 21.2411 14.5132 21.3821 14.3807 21.472L13.4913 21.8194L13.3369 22.2534L16.6017 26.7402H17.8371L17.8371 19.5565Z" fill="#FFB1A0"/>
<path d="M5.6709 39.5173L6.0673 40H7.31215L7.91574 39.4166V34.47H5.6709V39.5173Z" fill="#FFCEBE"/>
<path d="M3.39762 34.47L3.00098 34.765V38.953C3.0009 39.5313 3.46973 40 4.04793 40H6.06762C5.88824 39.658 5.8859 39.3698 5.8859 39.3698V34.4701H3.39762V34.47Z" fill="#FFB1A0"/>
<path d="M19.0764 26.494L18.9693 26.4081H17.7334V32.4649L18.005 32.988L18.411 33.1687C18.9133 33.1687 19.3206 32.7615 19.3206 32.2591V26.8284L19.0764 26.494Z" fill="#4D66D2"/>
<path d="M17.8379 32.2591V26.4081H16.7199L16.6125 26.489L16.3545 26.8009V32.2591C16.3545 32.7615 16.7618 33.1687 17.2641 33.1687H18.4118C18.4693 33.1687 18.5252 33.1628 18.5797 33.1527C18.1576 33.0738 17.8379 32.7041 17.8379 32.2591Z" fill="#2F4DCA"/>
<path d="M22.1829 21.8381L19.1063 25.9308C18.8575 26.2617 18.9506 26.7354 19.3061 26.9476L20.7993 27.8388C20.9491 27.9282 21.127 27.9582 21.2978 27.9227C21.4686 27.8873 21.6199 27.789 21.7218 27.6474L25.0904 22.9641L22.1829 21.8381ZM16.582 25.9308L13.4914 21.8195L10.5898 22.9527L13.9664 27.6474C14.0683 27.789 14.2196 27.8873 14.3905 27.9227C14.5613 27.9582 14.7392 27.9282 14.889 27.8388L16.3822 26.9476C16.7377 26.7354 16.8308 26.2617 16.582 25.9308ZM5.6709 31.8676H7.91574V34.765H5.6709V31.8676Z" fill="#8896E0"/>
<path d="M3.00098 31.8676V34.765H5.8859V31.8676H3.00098Z" fill="#6B7ED9"/>
<path d="M8.51969 40V29.5437C8.51969 29.3836 8.45609 29.2301 8.3429 29.1169C8.2297 29.0037 8.07618 28.9401 7.91609 28.9401C7.75601 28.9401 7.60248 29.0037 7.48929 29.1169C7.37609 29.2301 7.3125 29.3836 7.3125 29.5437V40H8.51969Z" fill="#4D66D2"/>
<path d="M36.5082 21.7986H29.3747L27.9795 22.6784V39.2355L28.6093 39.7486L29.1371 39.9999H36.5082C37.1743 39.9999 37.7143 39.4598 37.7143 38.7937V23.0048C37.7143 22.3387 37.1743 21.7986 36.5082 21.7986Z" fill="#DBEDFF"/>
<path d="M28.3538 38.7937V23.0048C28.3538 22.3387 28.8938 21.7986 29.56 21.7986H26.3605C25.6944 21.7986 25.1543 22.3387 25.1543 23.0048V38.7937C25.1543 39.4599 25.6944 40 26.3605 40H29.56C28.8938 40 28.3538 39.4599 28.3538 38.7937Z" fill="#B5DCFF"/>
<path d="M32.5561 26.1653H30.3134C29.1675 26.1653 28.2354 25.2331 28.2354 24.0873V22.6609C28.2354 22.5009 28.2989 22.3473 28.4121 22.2341C28.5253 22.1209 28.6789 22.0573 28.8389 22.0573C28.999 22.0573 29.1526 22.1209 29.2657 22.2341C29.3789 22.3473 29.4425 22.5009 29.4425 22.6609V24.0873C29.4425 24.5673 29.8332 24.958 30.3133 24.958H32.5561C33.0361 24.958 33.4268 24.5673 33.4268 24.0873V22.6609C33.4268 22.5009 33.4904 22.3473 33.6035 22.2341C33.7167 22.1209 33.8703 22.0573 34.0304 22.0573C34.1904 22.0573 34.344 22.1209 34.4572 22.2341C34.5704 22.3473 34.6339 22.5009 34.6339 22.6609V24.0873C34.6341 25.2331 33.7019 26.1653 32.5561 26.1653Z" fill="#FFE02F"/>
<path d="M34.2792 20.5338H31.5512C31.4345 20.585 31.3185 20.6371 31.3185 20.6371L31.0234 20.9724V22.5419L31.2448 22.9527L31.4866 23.0633H34.2792C34.4586 23.0633 34.6307 22.992 34.7575 22.8652C34.8844 22.7383 34.9556 22.5663 34.9556 22.3869V21.2102C34.9556 21.0309 34.8843 20.8588 34.7575 20.732C34.6306 20.6051 34.4586 20.5339 34.2792 20.5338Z" fill="#6B7ED9"/>
<path d="M31.1125 22.387V21.2103C31.1125 21.1215 31.13 21.0335 31.164 20.9514C31.198 20.8694 31.2478 20.7948 31.3106 20.732C31.3734 20.6692 31.448 20.6193 31.5301 20.5853C31.6121 20.5513 31.7001 20.5338 31.7889 20.5338H28.5895C28.5007 20.5338 28.4127 20.5513 28.3306 20.5853C28.2486 20.6193 28.174 20.6692 28.1112 20.732C28.0484 20.7948 27.9985 20.8694 27.9646 20.9514C27.9306 21.0335 27.9131 21.1215 27.9131 21.2103V22.387C27.9131 22.5663 27.9843 22.7384 28.1112 22.8652C28.2381 22.9921 28.4101 23.0634 28.5895 23.0634H31.7889C31.7001 23.0634 31.6122 23.0459 31.5301 23.0119C31.448 22.9779 31.3735 22.9281 31.3107 22.8652C31.2478 22.8024 31.198 22.7279 31.164 22.6458C31.13 22.5637 31.1125 22.4758 31.1125 22.387Z" fill="#4D66D2"/>
<path d="M9.68359 11.6834L10.9652 12.3809H12.1591V9.81883H11.0591L10.763 10.097C10.324 10.2944 9.94156 10.6337 9.68367 11.0502L9.68359 11.6834Z" fill="#FFCEBE"/>
<path d="M9.68352 11.0501C9.46859 11.3972 9.33984 11.7977 9.33984 12.2162C9.33984 13.5327 10.5601 14.6127 12.0359 14.4507L12.1589 14.1649V11.8409L12.0359 12.1267C11.0323 12.2369 10.1473 11.7724 9.68352 11.0501Z" fill="#FFB1A0"/>
<path d="M24.5943 12.3809L25.882 11.7638L26.0248 11.0152C25.743 10.528 25.2951 10.1418 24.7466 9.9682L24.4735 9.81883H23.3467V12.3809H24.5943Z" fill="#FFCEBE"/>
<path d="M23.6533 12.1276L23.3467 11.9348V14.2588L23.6533 14.4516C25.1278 14.6084 26.3495 13.5285 26.3495 12.2085C26.3495 11.7848 26.2316 11.3728 26.0247 11.0151C25.566 11.7559 24.6697 12.2356 23.6533 12.1276Z" fill="#FFB1A0"/>
<path d="M22.5548 7.52508H21.8304L18.7989 9.7518H15.2979V15.3052L15.6055 16.9551L17.3636 19.1416L19.0403 19.7706H19.6296C21.9602 19.044 23.6566 16.8661 23.6566 14.2995V10.1452L22.5548 7.52508Z" fill="#FFDECF"/>
<path d="M15.5467 14.2995V10.1907L16.1697 9.7518H12.6553L12.0322 10.1907V14.2995C12.0322 17.2939 14.3784 20.0288 17.9274 20.0288C18.5046 20.0293 19.0786 19.9423 19.6298 19.7706C17.1166 19.023 15.5467 16.7485 15.5467 14.2995Z" fill="#FFCEBE"/>
<path d="M23.2845 2.64891C22.7371 2.69102 22.2348 2.3468 22.1294 1.80797C21.952 0.900547 21.5027 0 19.7477 0H16.6994L15.6735 0.140703L14.6473 0.905313L13.5205 2.53508V9.31586L13.9833 9.90945L14.5184 10.1908H18.227C19.7727 10.1908 21.1152 9.32359 21.7964 8.04953C21.8492 7.95078 21.9991 7.98937 21.9991 8.10133C21.9991 9.25055 22.9393 10.1908 24.0886 10.1908C24.6909 10.1908 25.1838 9.69789 25.1838 9.09555V4.46141C25.1837 3.36969 24.2312 2.57617 23.2845 2.64891Z" fill="#665E68"/>
<path d="M13.5893 8.57461V4.01914C13.5893 2.08617 14.9106 0.461875 16.6992 0H13.6586C11.4239 0 9.6123 1.81156 9.6123 4.04625V8.48695C9.6123 9.42789 10.375 10.1906 11.316 10.1906H14.6711C14.0362 9.92875 13.5893 9.30406 13.5893 8.57461Z" fill="#544E55"/>
</g>
<defs>
<clipPath id="clip0_130_274">
<rect width="40" height="40" fill="white"/>
</clipPath>
</defs>
</svg>
