<svg width="42" height="42" viewBox="0 0 42 42" fill="none" xmlns="http://www.w3.org/2000/svg">
<g clip-path="url(#clip0_130_253)">
<path d="M35.6717 29.8955C35.5669 29.4002 35.8134 28.2923 35.8958 27.7926C36.7718 22.4825 34.0181 21.2991 31.0178 20.7081C30.643 20.6343 29.9546 20.3091 29.6215 20.1221C28.2756 19.3661 27.0699 18.3046 25.1035 18.051C24.9294 18.0285 24.7695 17.9433 24.6536 17.8115C24.5377 17.6797 24.4737 17.5101 24.4737 17.3346V14.3715H17.5268V17.3346C17.5268 17.5101 17.4628 17.6797 17.3469 17.8115C17.231 17.9433 17.0711 18.0285 16.897 18.051C15.874 18.1829 14.9504 18.3799 14.1101 18.645C13.3352 18.8894 13.5129 20.5032 12.8672 20.8659C12.5341 21.0529 10.8894 21.8899 10.5147 21.9637C7.5144 22.5547 5.90969 23.1708 6.78569 28.4809C6.86809 28.9805 6.43736 29.4841 6.33265 29.9795C5.98169 31.639 4.96381 32.9576 4.92975 34.6624C4.87364 37.4772 5.1673 40.0971 5.53947 41.6746C5.5612 41.7672 5.61359 41.8497 5.68813 41.9088C5.76268 41.9678 5.85499 42 5.95009 41.9999H10.1176C10.2161 42.0001 10.3114 41.9657 10.3871 41.9028C10.4629 41.8399 10.5141 41.7525 10.5321 41.6557C10.7192 40.6447 11.2885 37.5717 11.8328 34.6623C11.9845 33.8517 11.224 31.4183 11.3629 30.6811C11.5192 30.9604 13.7907 31.1179 13.9863 31.3688C14.5789 32.1294 15.309 33.6981 15.309 34.6623L14.9121 40.2708C14.9121 40.5627 14.7525 41.2408 15.0444 41.2408L25.5159 40.9322C25.8078 40.9322 26.3978 39.0857 26.3978 38.7938L26.3316 34.539C26.3316 33.5748 27.2159 32.6541 27.8086 31.8936C28.0041 31.6426 30.4309 31.9644 30.5871 31.6851C30.726 32.4221 30.9885 33.6799 30.1675 34.6623C30.6031 36.9931 31.0367 39.3242 31.4683 41.6557C31.4862 41.7525 31.5375 41.8399 31.6132 41.9028C31.6889 41.9657 31.7843 42.0001 31.8827 41.9999H36.0502C36.1453 42 36.2376 41.9678 36.3122 41.9088C36.3867 41.8497 36.4391 41.7672 36.4609 41.6746C36.8329 40.0971 37.1267 37.4772 37.0706 34.6624C36.3047 33.0519 36.0227 31.5551 35.6717 29.8955Z" fill="#FFDFCF"/>
<path d="M10.5323 41.6558C10.7548 40.4537 11.5176 36.3368 12.1362 33.0456C11.9484 32.6551 11.7306 32.2653 11.551 32.0348C11.3555 31.7839 10.9795 31.4088 10.8233 31.1295C10.1856 34.5121 9.0814 40.363 8.84216 41.6557C8.82423 41.7525 8.77295 41.8399 8.69724 41.9028C8.62152 41.9657 8.52616 42.0001 8.42773 41.9999H10.1179C10.2163 42.0001 10.3117 41.9657 10.3874 41.9029C10.4631 41.84 10.5144 41.7526 10.5323 41.6558ZM28.0374 32.3168C27.8819 32.5954 27.7054 32.8618 27.5095 33.1137C26.9169 33.8742 26.5753 34.8003 26.5753 35.7644V41.4713C26.5753 41.6115 26.5196 41.7459 26.4204 41.8451C26.3213 41.9442 26.1869 41.9999 26.0467 41.9999H27.7368C27.877 41.9999 28.0115 41.9442 28.1106 41.8451C28.2097 41.7459 28.2654 41.6115 28.2654 41.4713V35.7644C28.2654 35.3431 28.3307 34.929 28.4535 34.533C28.3101 33.767 28.1689 33.0146 28.0374 32.3168ZM35.6718 29.5795C35.567 29.084 35.5357 28.4428 35.6181 27.9432C36.4941 22.6331 33.9407 21.132 30.9404 20.541C30.5656 20.4673 30.2006 20.3353 29.8676 20.1482C29.2219 19.7855 28.3113 19.7855 27.8905 18.645C27.0502 18.3799 26.1265 18.183 25.1036 18.051C24.9295 18.0285 24.7696 17.9434 24.6537 17.8115C24.5378 17.6797 24.4739 17.5102 24.4738 17.3347V14.3716H22.7837V18.0952C22.7837 18.2708 22.8477 18.4403 22.9636 18.5721C23.0795 18.7039 23.2394 18.7891 23.4135 18.8116C25.3798 19.0652 26.9791 19.5592 28.3251 20.3152C28.658 20.5023 29.02 20.6304 29.3948 20.7041C32.3951 21.2951 35.5011 22.7062 34.6252 28.0163C34.5428 28.5159 34.5598 29.0263 34.6645 29.5218C35.5949 33.9214 35.1996 39.1417 34.602 41.6748C34.5803 41.7674 34.5279 41.8499 34.4534 41.909C34.3788 41.968 34.2865 42.0001 34.1914 42.0001H36.0505C36.1456 42.0001 36.238 41.968 36.3125 41.909C36.387 41.8499 36.4394 41.7674 36.4612 41.6748C36.8333 40.0972 37.127 37.4774 37.0709 34.6625C36.1544 32.8927 36.0227 31.239 35.6718 29.5795Z" fill="#FFCEBF"/>
<path d="M37.0709 34.6624H30.1676C30.0299 33.927 29.8942 33.2015 29.7663 32.5227C29.7531 32.4526 29.6601 32.4356 29.6232 32.4967C29.4947 32.7107 29.3532 32.9167 29.1995 33.1136C28.6068 33.8741 28.2653 34.7997 28.2653 35.7643V41.4712C28.2653 41.6114 28.2096 41.7459 28.1105 41.845C28.0113 41.9441 27.8769 41.9998 27.7367 41.9998H14.264C14.1238 41.9998 13.9894 41.9441 13.8902 41.845C13.7911 41.7459 13.7354 41.6114 13.7354 41.4712V35.7643C13.7354 34.7997 13.3939 33.8741 12.8012 33.1136C12.6475 32.9167 12.506 32.7107 12.3775 32.4967C12.3407 32.4355 12.2477 32.4526 12.2344 32.5227C12.1064 33.2015 11.9708 33.927 11.8331 34.6624H4.92969C4.96341 32.9575 5.12625 31.1811 5.47704 29.5217C5.58242 29.0267 5.59822 28.5155 5.51642 28.0162C4.64034 22.7065 7.91566 20.5346 10.9158 19.9435C11.291 19.8701 11.6525 19.7409 11.9855 19.5546C12.1908 19.4393 12.3999 19.3311 12.6126 19.2302C13.2178 19.6256 13.534 19.3956 13.8219 18.7405C13.9171 18.708 14.0133 18.6764 14.1105 18.6457C15.1392 21.1349 17.8358 22.9115 21.0003 22.9115C24.1648 22.9115 26.8614 21.1349 27.8901 18.6457C27.9873 18.6764 28.0836 18.708 28.1787 18.7405C28.3936 19.4893 29.0504 19.7564 29.3881 19.2302C29.6007 19.3311 29.8099 19.4393 30.0151 19.5545C30.3481 19.7408 30.7095 19.8701 31.0848 19.9434C34.0849 20.5345 37.3603 22.7064 36.4842 28.0161C36.4024 28.5153 36.4181 29.0266 36.5236 29.5216C36.8744 31.1819 37.0372 32.9575 37.0709 34.6624Z" fill="#1F3089"/>
<path d="M10.8234 31.1296L10.1572 34.6624H11.8333C11.9505 34.0365 12.066 33.4195 12.1767 32.8306C11.9548 32.5175 11.6758 32.1948 11.5512 32.0348C11.3556 31.7839 10.9796 31.4089 10.8234 31.1296ZM36.5238 29.5217C36.4185 29.0267 36.4027 28.5155 36.4845 28.0162C37.3605 22.7065 34.0852 20.5346 31.0851 19.9435C30.7098 19.8701 30.3484 19.7409 30.0154 19.5546C29.8101 19.4393 29.601 19.3312 29.3883 19.2303C28.8804 20.0022 28.3214 19.7414 28.1789 18.7406C28.0831 18.7078 27.9869 18.6762 27.8904 18.6458C27.7235 19.0494 27.5123 19.4338 27.2629 19.7954C27.6264 19.9487 27.9811 20.1222 28.3253 20.3152C28.6583 20.5022 29.0202 20.6303 29.395 20.7041C32.3953 21.295 35.5013 22.7061 34.6254 28.0162C34.543 28.5158 34.56 29.0262 34.6648 29.5217C35.0157 31.1812 35.1778 32.9576 35.2118 34.6624H37.0713C37.0375 32.9575 36.8746 31.1819 36.5238 29.5217Z" fill="#FE7D43"/>
<path d="M27.0595 11.4254L28.3984 8.84806C28.7046 8.25866 28.8644 7.60424 28.8644 6.94006V4.01932C28.8644 3.24963 28.2405 2.62572 27.4708 2.62572H27.1302C26.9771 2.6257 26.8304 2.56489 26.7221 2.45667C26.6139 2.34844 26.5531 2.20167 26.5531 2.04862V1.4253C26.5532 0.638113 25.9151 0 25.1279 0H16.1488C14.4847 0 13.1357 1.34899 13.1357 3.01301V6.94006C13.1357 7.60428 13.2955 8.2587 13.6018 8.84806L14.9406 11.4254H27.0595Z" fill="black" fill-opacity="0.8"/>
<path d="M27.6987 9.21828H14.3028C13.6545 9.21828 13.1289 9.74383 13.1289 10.3922V11.9816C13.1289 12.6298 13.6545 13.1555 14.3028 13.1555H27.6988C28.3471 13.1555 28.8727 12.6299 28.8727 11.9816V10.3922C28.8726 9.74383 28.347 9.21828 27.6987 9.21828ZM17.5273 16.6715L17.7303 16.8755C17.9549 17.1011 18.2218 17.2801 18.5157 17.4023C18.8097 17.5245 19.1249 17.5874 19.4432 17.5874H22.5585C22.8768 17.5873 23.192 17.5244 23.4859 17.4023C23.7799 17.2801 24.0468 17.1011 24.2713 16.8755L24.0117 16.2565L23.9501 13.9118L17.5274 13.78V16.6715H17.5273Z" fill="#FFCEBF"/>
<path d="M24.1097 5.13752H17.8901C16.7233 5.13752 15.7773 6.08341 15.7773 7.25028V13.3372C15.7773 13.8058 15.9629 14.2552 16.2933 14.5874L17.7294 16.0304C17.9539 16.256 18.2208 16.4351 18.5147 16.5572C18.8087 16.6794 19.1238 16.7423 19.4422 16.7423H22.5574C22.8757 16.7423 23.1909 16.6794 23.4848 16.5572C23.7788 16.435 24.0457 16.256 24.2702 16.0304L25.7062 14.5874C26.0367 14.2552 26.2223 13.8058 26.2222 13.3372V7.25028C26.2225 6.08341 25.2766 5.13752 24.1097 5.13752Z" fill="#FFDFCF"/>
<path d="M24.1105 5.13752H22.4204C23.5872 5.13752 24.5331 6.08341 24.5331 7.2502V13.3372C24.5331 13.8057 24.3476 14.2552 24.0171 14.5873L22.581 16.0303C22.3565 16.2559 22.0896 16.435 21.7956 16.5572C21.5017 16.6793 21.1865 16.7422 20.8682 16.7422H22.5583C22.8766 16.7422 23.1918 16.6793 23.4858 16.5571C23.7797 16.435 24.0466 16.2559 24.2712 16.0303L25.7072 14.5873C26.0377 14.2552 26.2232 13.8057 26.2232 13.3372V7.2502C26.2233 6.08341 25.2774 5.13752 24.1105 5.13752Z" fill="#FFCEBF"/>
<path d="M31.9197 29.2492C31.9197 28.899 31.6361 28.6154 31.2859 28.6154C30.9358 28.6154 30.6521 28.899 30.6521 29.2492C30.6521 30.4178 30.3031 31.5267 29.6416 32.4758C29.6845 32.4418 29.7546 32.4624 29.7659 32.5227C29.8623 33.0346 29.9632 33.5732 30.0662 34.1226C30.178 33.9034 30.3104 33.6952 30.4615 33.501C31.4155 32.2754 31.9197 30.805 31.9197 29.2492ZM11.3477 29.2491C11.3477 28.899 11.064 28.6153 10.7139 28.6153C10.3638 28.6153 10.0801 28.899 10.0801 29.2491C10.0801 30.8052 10.5843 32.2754 11.5384 33.5009C11.6895 33.6952 11.8218 33.9033 11.9337 34.1226C12.0365 33.5733 12.1374 33.0346 12.2339 32.5227C12.2452 32.4625 12.3153 32.4418 12.3582 32.4758C11.6967 31.5268 11.3477 30.4179 11.3477 29.2491Z" fill="#FE7D43"/>
<path d="M28.1782 18.7406C27.831 21.4414 26.6055 23.7232 24.5287 25.5294C22.8456 26.9933 21.2032 27.5816 21.1868 27.5874C21.1189 27.6113 21.0557 27.6467 20.9997 27.6919C20.9435 27.6465 20.8798 27.611 20.8116 27.5871C20.7955 27.5815 19.189 27.012 17.507 25.5608C15.4082 23.7501 14.1704 21.4579 13.8213 18.7406C13.4093 18.881 13.0056 19.0448 12.6123 19.2312C13.1709 22.8098 15.0934 25.1527 16.6789 26.5206C18.542 28.128 20.3199 28.7582 20.3947 28.7842C20.4617 28.8076 20.5322 28.8196 20.6032 28.8196C20.7477 28.8189 20.8875 28.7689 20.9997 28.6779C21.1119 28.7689 21.2518 28.8189 21.3963 28.8196C21.4653 28.8196 21.5357 28.8082 21.6048 28.7842C21.6796 28.7581 23.4575 28.128 25.3206 26.5206C26.9061 25.1527 28.8286 22.8098 29.3872 19.2312C28.9938 19.0448 28.5902 18.881 28.1782 18.7406Z" fill="#EBA135"/>
<path d="M27.9199 20.1007C28.0565 20.1692 28.1915 20.2407 28.3249 20.3152C28.5653 20.4503 28.821 20.5541 29.0855 20.6295C29.2131 20.1697 29.314 19.7028 29.3876 19.2313C28.9942 19.0449 28.5905 18.8811 28.1785 18.7407C28.1199 19.1988 28.0336 19.653 27.9199 20.1007Z" fill="#4E737C"/>
<path d="M23.2226 29.7235C23.2226 28.4752 22.1935 27.4673 20.9375 27.5017C19.7269 27.5349 18.7773 28.5587 18.7773 29.7697V34.7637C18.7773 34.8989 18.831 35.0285 18.9266 35.1241C19.0222 35.2197 19.1519 35.2734 19.2871 35.2734H21.0856C21.2208 35.2734 21.3504 35.2197 21.446 35.1241C21.5416 35.0285 21.5953 34.8989 21.5953 34.7637V32.175C21.5953 31.9969 21.7042 31.8391 21.868 31.7695C22.6641 31.4316 23.2226 30.6429 23.2226 29.7235Z" fill="#DFF6FD"/>
</g>
<defs>
<clipPath id="clip0_130_253">
<rect width="42" height="42" fill="white"/>
</clipPath>
</defs>
</svg>
