<svg width="40" height="40" viewBox="0 0 40 40" fill="none" xmlns="http://www.w3.org/2000/svg">
<g clip-path="url(#clip0_130_382)">
<path d="M38.6107 33.9281H4.93355C4.36996 33.9281 3.91309 33.4714 3.91309 32.9077V26.1321C3.91309 25.5685 4.36996 25.1117 4.93355 25.1117H38.6104C39.174 25.1117 39.6311 25.5685 39.6311 26.1321V32.9077C39.6311 33.4714 39.174 33.9281 38.6107 33.9281Z" fill="#005CA0"/>
<path d="M33.7066 25.1117H1.44594C0.647266 25.1117 0 24.4644 0 23.6657V22.1634C0 21.3647 0.647266 20.7175 1.44594 20.7175H33.7066C34.5051 20.7175 35.1523 21.3647 35.1523 22.1633V23.6657C35.1523 24.4644 34.505 25.1117 33.7066 25.1117Z" fill="#32E4FF"/>
<path d="M33.9823 20.7446V21.875C33.9823 22.6733 33.335 23.3206 32.5367 23.3206H0.275859C0.181562 23.3206 0.0894531 23.3111 0 23.2937V23.6661C0 24.4644 0.647266 25.1117 1.44594 25.1117H33.7066C34.5051 25.1117 35.1523 24.4644 35.1523 23.6661V22.1632C35.1523 21.4593 34.6487 20.8733 33.9823 20.7445L33.9823 20.7446ZM35.6009 40H6.73773C6.26805 40 5.88719 39.6191 5.88719 39.1494V34.7787C5.88719 34.309 6.26805 33.9282 6.73773 33.9282H35.601C36.0706 33.9282 36.4512 34.309 36.4512 34.7787V39.1494C36.4512 39.6191 36.0707 40 35.6009 40Z" fill="#1DC2FF"/>
<path d="M38.6107 25.1117H38.1819V30.7485C38.1819 31.3122 37.725 31.7691 37.1614 31.7691H3.91309V32.9077C3.91309 33.4714 4.36996 33.9281 4.93355 33.9281H38.6104C39.174 33.9281 39.6311 33.471 39.6311 32.9077V26.1321C39.6311 25.5685 39.174 25.1117 38.6107 25.1117Z" fill="#005182"/>
<path d="M35.6011 33.9281H35.0729V36.7456C35.0729 37.2152 34.6924 37.596 34.2227 37.596H5.8877V39.1494C5.88777 39.6195 6.26824 39.9999 6.73793 39.9999H35.6012C36.0708 39.9999 36.4517 39.6194 36.4517 39.1494V34.7787C36.4514 34.309 36.0708 33.9281 35.6011 33.9281Z" fill="#00A2FF"/>
<path d="M35.3594 19.5801H6.45703C6.19828 19.5801 5.98828 19.3701 5.98828 19.1113V1.6064C5.98828 1.34734 6.19828 1.13765 6.45703 1.13765H35.3594C35.6181 1.13765 35.8281 1.34734 35.8281 1.6064V19.1113C35.8281 19.3701 35.6181 19.5801 35.3594 19.5801Z" fill="#FFDED5"/>
<path d="M31.407 1.13773V16.0324C31.407 16.2912 31.1973 16.5012 30.9383 16.5012H5.98828V19.1113C5.98828 19.3701 6.19828 19.5801 6.45703 19.5801H35.3594C35.6181 19.5801 35.8281 19.3701 35.8281 19.1113V1.6064C35.8281 1.34734 35.6181 1.13765 35.3594 1.13765L31.407 1.13773Z" fill="#F7C6BA"/>
<path d="M35.5843 20.7175H6.23152C5.46887 20.7175 4.85059 20.0992 4.85059 19.3366V1.38125C4.85059 0.618281 5.46887 0 6.23152 0H35.5843C36.3471 0 36.9655 0.618281 36.9655 1.38125V19.3366C36.9655 20.0992 36.3471 20.7175 35.5843 20.7175ZM7.61301 18.4424H34.2027C34.2667 18.4424 34.3301 18.4298 34.3892 18.4053C34.4483 18.3808 34.5021 18.3449 34.5473 18.2997C34.5926 18.2544 34.6285 18.2007 34.653 18.1415C34.6775 18.0824 34.69 18.019 34.69 17.955V2.7625C34.69 2.63325 34.6387 2.50929 34.5473 2.4179C34.4559 2.3265 34.3319 2.27516 34.2027 2.27516H7.61301C7.48376 2.27516 7.3598 2.3265 7.2684 2.4179C7.17701 2.50929 7.12566 2.63325 7.12566 2.7625V17.9551C7.12565 18.0191 7.13825 18.0825 7.16274 18.1416C7.18723 18.2007 7.22312 18.2545 7.26838 18.2997C7.31363 18.345 7.36736 18.3809 7.42649 18.4054C7.48562 18.4299 7.549 18.4424 7.61301 18.4424Z" fill="#FF6914"/>
<path d="M35.8715 0.0302277C35.8718 0.0424152 35.8731 0.0542902 35.8731 0.0665558V18.0222C35.8731 18.7848 35.2548 19.403 34.4921 19.403H5.13941C5.043 19.403 4.94685 19.3929 4.85254 19.3729C4.87176 20.1187 5.48121 20.7177 6.23168 20.7177H35.5844C36.347 20.7177 36.9657 20.0992 36.9657 19.3365V1.38124C36.9657 0.716868 36.4962 0.162337 35.8715 0.0302277Z" fill="#ED500A"/>
<path d="M25.4769 6.53781H9.31301C9.15423 6.536 9.00256 6.47166 8.89092 6.35874C8.77928 6.24582 8.71667 6.09344 8.71667 5.93465C8.71667 5.77586 8.77928 5.62347 8.89092 5.51055C9.00256 5.39763 9.15423 5.33329 9.31301 5.33148H25.4769C25.5561 5.33149 25.6346 5.3471 25.7077 5.37743C25.7809 5.40775 25.8474 5.45219 25.9034 5.50821C25.9594 5.56423 26.0039 5.63073 26.0342 5.70392C26.0645 5.77711 26.0801 5.85555 26.08 5.93476C26.0801 6.01397 26.0645 6.09239 26.0341 6.16557C26.0038 6.23874 25.9594 6.30523 25.9034 6.36123C25.8474 6.41723 25.7809 6.46165 25.7077 6.49195C25.6345 6.52225 25.5561 6.53783 25.4769 6.53781ZM11.6915 9.25906H9.31301C9.15423 9.25725 9.00256 9.19291 8.89092 9.07999C8.77928 8.96707 8.71667 8.81469 8.71667 8.6559C8.71667 8.49711 8.77928 8.34472 8.89092 8.2318C9.00256 8.11888 9.15423 8.05454 9.31301 8.05273H11.6915C11.8498 8.05528 12.0007 8.11994 12.1118 8.23277C12.2228 8.34561 12.285 8.49756 12.285 8.65586C12.285 8.81416 12.2228 8.96611 12.1118 9.07894C12.0007 9.19177 11.8498 9.25651 11.6915 9.25906ZM22.0901 9.25906H14.5349C14.3761 9.25725 14.2244 9.19291 14.1128 9.07999C14.0012 8.96707 13.9385 8.81469 13.9385 8.6559C13.9385 8.49711 14.0012 8.34472 14.1128 8.2318C14.2244 8.11888 14.3761 8.05454 14.5349 8.05273H22.0901C22.2484 8.05528 22.3993 8.11994 22.5104 8.23277C22.6214 8.34561 22.6836 8.49756 22.6836 8.65586C22.6836 8.81416 22.6214 8.96611 22.5104 9.07894C22.3993 9.19177 22.2484 9.25651 22.0901 9.25906ZM14.9136 15.2703H9.31301C9.15309 15.2703 8.99973 15.2068 8.88664 15.0937C8.77355 14.9806 8.71 14.8273 8.70996 14.6673C8.70995 14.5881 8.72554 14.5097 8.75584 14.4366C8.78615 14.3634 8.83057 14.2969 8.88657 14.2409C8.94257 14.1849 9.00905 14.1405 9.08222 14.1102C9.15539 14.0799 9.23381 14.0643 9.31301 14.0643H14.9136C14.9928 14.0643 15.0712 14.0799 15.1444 14.1102C15.2176 14.1405 15.2841 14.1849 15.3401 14.241C15.396 14.297 15.4405 14.3635 15.4707 14.4366C15.501 14.5098 15.5166 14.5882 15.5166 14.6674C15.5166 14.8273 15.453 14.9807 15.34 15.0937C15.2269 15.2068 15.0735 15.2703 14.9136 15.2703Z" fill="#FF6914"/>
<path d="M33.8734 28.1293L32.1465 27.7624L30.9605 29.0704C30.6941 29.364 30.2095 29.2596 30.0877 28.8824L26.1797 16.7843L30.5629 15.3683L34.4713 27.4664C34.593 27.8436 34.2613 28.2117 33.8734 28.1293Z" fill="#ED500A"/>
<path d="M28.3992 16.0672L26.1797 16.7843L30.0877 28.8824C30.2095 29.2599 30.6941 29.3639 30.9605 29.0704L32.1465 27.7624L32.1797 27.7694L28.3992 16.0672Z" fill="#FF6914"/>
<path d="M20.8881 28.1293L22.6151 27.7624L23.801 29.0704C24.0674 29.364 24.5517 29.2599 24.6738 28.8824L28.5819 16.7843L24.1986 15.3683L20.2902 27.4664C20.1684 27.8436 20.5002 28.2117 20.8881 28.1293Z" fill="#FF6914"/>
<path d="M26.3623 16.0672L28.5821 16.7843L24.674 28.8824C24.552 29.2599 24.0677 29.3639 23.8012 29.0704L22.6152 27.7624L22.582 27.7694L26.3623 16.0672Z" fill="#ED500A"/>
<path d="M28.2018 8.96576C29.0071 8.2217 30.3075 8.84795 30.2278 9.9417C30.182 10.5706 30.6272 11.1292 31.2507 11.2244C32.3347 11.3901 32.6561 12.7972 31.7512 13.4167C31.2309 13.7732 31.0719 14.4696 31.3859 15.0165C31.9322 15.9671 31.0325 17.0956 29.984 16.7746C29.3809 16.59 28.7371 16.9 28.5057 17.4865C28.1029 18.5065 26.6593 18.5065 26.2568 17.4865C26.0252 16.9 25.3816 16.59 24.7786 16.7746C23.73 17.0957 22.83 15.9671 23.3762 15.0165C23.6906 14.4696 23.5317 13.7732 23.0114 13.4167C22.1065 12.7972 22.4278 11.3901 23.5115 11.2244C24.1349 11.1291 24.5805 10.5707 24.5347 9.9417C24.4548 8.84795 25.7554 8.2217 26.5608 8.96576C27.0241 9.39389 27.7385 9.39389 28.2018 8.96576Z" fill="#D63B00"/>
<path d="M31.2503 11.2244C30.6268 11.1291 30.1815 10.5707 30.2273 9.9414C30.307 8.84796 29.0066 8.2214 28.2013 8.96577C28.1374 9.02468 28.0685 9.07468 27.9962 9.11741C28.3343 9.26577 28.5876 9.60601 28.5556 10.0433C28.5385 10.2783 28.6106 10.511 28.7575 10.6952C28.9043 10.8793 29.1152 11.0013 29.3481 11.0369C30.1876 11.1651 30.4367 12.2552 29.7356 12.7353C29.3325 13.0115 29.2096 13.551 29.4528 13.9744C29.876 14.711 29.179 15.585 28.3667 15.3363C27.8997 15.1932 27.401 15.4334 27.2217 15.8877C26.9097 16.6779 25.7916 16.6779 25.4797 15.8877C25.3003 15.4334 24.8016 15.1932 24.3346 15.3363C23.944 15.4558 23.5806 15.3155 23.355 15.0562C22.8555 15.9982 23.7441 17.0913 24.7781 16.7746C25.3811 16.59 26.0247 16.8997 26.2564 17.4866C26.6592 18.5065 28.1024 18.5065 28.5052 17.4866C28.7368 16.8997 29.3804 16.59 29.9835 16.7746C31.0321 17.0957 31.932 15.9671 31.3858 15.0165C31.0714 14.4696 31.2304 13.7732 31.7507 13.4167C32.6556 12.7972 32.3342 11.3901 31.2503 11.2244Z" fill="#C72500"/>
<path d="M9.31301 32.279C9.15308 32.279 8.9997 32.2155 8.88661 32.1024C8.77352 31.9893 8.70998 31.8359 8.70996 31.676V27.3609C8.70998 27.201 8.77352 27.0476 8.88661 26.9345C8.9997 26.8214 9.15308 26.7579 9.31301 26.7578C9.3922 26.7578 9.47063 26.7734 9.5438 26.8037C9.61697 26.834 9.68345 26.8784 9.73945 26.9344C9.79545 26.9904 9.83987 27.0569 9.87017 27.1301C9.90047 27.2033 9.91607 27.2817 9.91605 27.3609V31.676C9.91637 32.009 9.64629 32.2791 9.31301 32.2791V32.279ZM11.2405 32.279C11.1613 32.279 11.0829 32.2634 11.0097 32.2331C10.9366 32.2028 10.8701 32.1584 10.8141 32.1024C10.7581 32.0464 10.7136 31.9799 10.6833 31.9068C10.653 31.8336 10.6375 31.7552 10.6375 31.676V27.3609C10.6375 27.2817 10.653 27.2033 10.6833 27.1301C10.7136 27.0569 10.7581 26.9904 10.8141 26.9344C10.8701 26.8784 10.9366 26.834 11.0097 26.8037C11.0829 26.7734 11.1613 26.7578 11.2405 26.7578C11.4004 26.7579 11.5538 26.8214 11.6669 26.9345C11.78 27.0476 11.8435 27.201 11.8436 27.3609V31.676C11.8435 31.836 11.78 31.9894 11.6669 32.1025C11.5538 32.2156 11.4004 32.2791 11.2404 32.2791L11.2405 32.279ZM13.1677 32.279C13.0078 32.279 12.8544 32.2155 12.7413 32.1024C12.6282 31.9893 12.5647 31.8359 12.5646 31.676V27.3609C12.5646 27.0279 12.8347 26.7578 13.1677 26.7578C13.5007 26.7578 13.7707 27.0279 13.7707 27.3609V31.676C13.7707 31.836 13.7072 31.9894 13.5941 32.1025C13.481 32.2156 13.3276 32.2791 13.1676 32.2791L13.1677 32.279Z" fill="#0882BF"/>
</g>
<defs>
<clipPath id="clip0_130_382">
<rect width="40" height="40" fill="white"/>
</clipPath>
</defs>
</svg>
