<svg width="40" height="40" viewBox="0 0 40 40" fill="none" xmlns="http://www.w3.org/2000/svg">
<path d="M28.125 33.125H11.875V21.875C11.875 21.212 12.1384 20.5761 12.6072 20.1072C13.0761 19.6384 13.712 19.375 14.375 19.375H25.625C26.288 19.375 26.9239 19.6384 27.3928 20.1072C27.8616 20.5761 28.125 21.212 28.125 21.875V33.125Z" fill="#395D7B"/>
<path d="M16.25 19.375H23.75V26.25H16.25V19.375Z" fill="#FDB683"/>
<path d="M28.125 38.125H11.875V21.875H16.25L16.2621 21.9357C16.435 22.7998 16.9018 23.5773 17.5833 24.136C18.2648 24.6947 19.1188 25 20 25C20.8812 25 21.7352 24.6947 22.4167 24.136C23.0982 23.5773 23.565 22.7998 23.7379 21.9357L23.75 21.875H28.125V38.125Z" fill="white"/>
<path d="M28.125 38.125H11.875V21.875H16.25L16.2621 21.9357C16.435 22.7998 16.9018 23.5773 17.5833 24.136C18.2648 24.6947 19.1188 25 20 25C20.8812 25 21.7352 24.6947 22.4167 24.136C23.0982 23.5773 23.565 22.7998 23.7379 21.9357L23.75 21.875H28.125V38.125Z" fill="#DE5540"/>
<path d="M20 28.125C19.0481 28.1264 18.1071 27.9223 17.2412 27.5267L17.7589 26.389C18.4623 26.7103 19.2267 26.8761 20 26.875C20.8316 26.874 21.6518 26.6823 22.3977 26.3147L22.9516 27.4353C22.0334 27.8878 21.0237 28.1237 20 28.125Z" fill="#D64A34"/>
<path d="M11.875 21.875H15.625V38.125H11.875V21.875Z" fill="#426887"/>
<path d="M11.875 26.875V21.875C11.0988 21.875 10.3332 22.0557 9.63893 22.4029C8.94465 22.75 8.34074 23.254 7.875 23.875L2.8125 30.625C2.20396 31.4364 1.875 32.4233 1.875 33.4375C1.875 34.6807 2.36886 35.873 3.24794 36.7521C4.12701 37.6311 5.3193 38.125 6.5625 38.125H10V33.125H6.875L11.875 26.875Z" fill="#DE5540"/>
<path d="M28.125 38.125H24.375V21.875H28.125V38.125Z" fill="#426887"/>
<path d="M15 38.125H10V33.125L10.2297 32.4359C10.3448 32.0905 10.5657 31.7902 10.8609 31.5774C11.1562 31.3645 11.511 31.25 11.875 31.25V33.125H15C15.3315 33.125 15.6495 33.2567 15.8839 33.4911C16.1183 33.7255 16.25 34.0435 16.25 34.375V36.875C16.25 37.2065 16.1183 37.5245 15.8839 37.7589C15.6495 37.9933 15.3315 38.125 15 38.125ZM25 38.125H30V33.125L29.7703 32.4359C29.6552 32.0905 29.4344 31.7902 29.1391 31.5774C28.8438 31.3645 28.489 31.25 28.125 31.25V33.125H25C24.6685 33.125 24.3505 33.2567 24.1161 33.4911C23.8817 33.7255 23.75 34.0435 23.75 34.375V36.875C23.75 37.2065 23.8817 37.5245 24.1161 37.7589C24.3505 37.9933 24.6685 38.125 25 38.125Z" fill="#FDC8A2"/>
<path d="M28.125 26.875V21.875C28.9012 21.875 29.6668 22.0557 30.3611 22.4029C31.0553 22.75 31.6593 23.254 32.125 23.875L37.1875 30.625C37.796 31.4364 38.125 32.4233 38.125 33.4375C38.125 34.6807 37.6311 35.873 36.7521 36.7521C35.873 37.6311 34.6807 38.125 33.4375 38.125H30V33.125H33.125L28.125 26.875Z" fill="#DE5540"/>
<path d="M16.875 4.375H23.125C24.1196 4.375 25.0734 4.77009 25.7767 5.47335C26.4799 6.17661 26.875 7.13044 26.875 8.125V15C26.875 16.8234 26.1507 18.572 24.8614 19.8614C23.572 21.1507 21.8234 21.875 20 21.875C18.1766 21.875 16.428 21.1507 15.1386 19.8614C13.8493 18.572 13.125 16.8234 13.125 15V8.125C13.125 7.13044 13.5201 6.17661 14.2233 5.47335C14.9266 4.77009 15.8804 4.375 16.875 4.375Z" fill="#FDC8A2"/>
<path d="M13.125 11.875L13.6548 11.663C15.3266 10.9944 16.6948 9.73543 17.5 8.125V3.75H16.875C15.8804 3.75 14.9266 4.14509 14.2233 4.84835C13.5201 5.55161 13.125 6.50544 13.125 7.5V11.875ZM26.875 7.5V11.875C25.8876 11.4799 24.9907 10.8884 24.2387 10.1363C23.4866 9.3843 22.8951 8.4874 22.5 7.5V3.75H23.125C24.1196 3.75 25.0734 4.14509 25.7767 4.84835C26.4799 5.55161 26.875 6.50544 26.875 7.5Z" fill="#784533"/>
<path d="M16.875 14.375C17.5654 14.375 18.125 13.8154 18.125 13.125C18.125 12.4346 17.5654 11.875 16.875 11.875C16.1846 11.875 15.625 12.4346 15.625 13.125C15.625 13.8154 16.1846 14.375 16.875 14.375Z" fill="#844E3A"/>
<path d="M23.125 14.375C23.8154 14.375 24.375 13.8154 24.375 13.125C24.375 12.4346 23.8154 11.875 23.125 11.875C22.4346 11.875 21.875 12.4346 21.875 13.125C21.875 13.8154 22.4346 14.375 23.125 14.375Z" fill="#844E3A"/>
<path d="M22.5 3.75V7.5C21.2841 8.31109 19.9552 8.93841 18.5563 9.36172C17.1576 9.78508 15.7043 10.0001 14.243 10H11.875V8.125C11.875 7.83069 11.8956 7.53674 11.9367 7.24531C12.0649 6.33833 12.3917 5.47081 12.8937 4.70469C13.4616 3.83515 14.2373 3.12099 15.1508 2.62689C16.0642 2.13279 17.0865 1.87436 18.125 1.875H19.8984C20.474 1.87498 21.035 2.05605 21.5019 2.39257C21.9688 2.72909 22.318 3.20399 22.5 3.75Z" fill="#844E3A"/>
<path d="M12.5 11.875H13.125V15.625H12.5C12.0027 15.625 11.5258 15.4275 11.1742 15.0758C10.8225 14.7242 10.625 14.2473 10.625 13.75C10.625 13.2527 10.8225 12.7758 11.1742 12.4242C11.5258 12.0725 12.0027 11.875 12.5 11.875ZM27.5 15.625H26.875V11.875H27.5C27.9973 11.875 28.4742 12.0725 28.8258 12.4242C29.1775 12.7758 29.375 13.2527 29.375 13.75C29.375 14.2473 29.1775 14.7242 28.8258 15.0758C28.4742 15.4275 27.9973 15.625 27.5 15.625Z" fill="#FDB683"/>
<path d="M26.8752 8.31875V10.45L26.3666 9.73828L26.3549 9.72188C25.1932 7.97891 23.4205 6.78125 23.4033 6.76953L24.0971 5.72969C25.1392 6.4591 26.0743 7.33055 26.8752 8.31875Z" fill="#6A3F2E"/>
<path d="M20.8125 5.68672C20.7203 5.75391 18.5219 7.34219 14.9305 8.11094C14.357 8.23438 13.7734 8.32969 13.1961 8.3961C12.7766 8.44454 12.343 8.47969 11.9078 8.49844L11.875 8.5V8.125C11.875 7.83069 11.8956 7.53674 11.9367 7.24532C12.3148 7.22735 12.6891 7.19688 13.0523 7.15391C13.5914 7.09297 14.1344 7.00313 14.668 6.88907C18.0016 6.175 20.0531 4.69297 20.0734 4.67813L20.8125 5.68672ZM18.6625 4.4C16.4898 5.36407 14.275 5.81329 12.2273 6.05313C12.3937 5.57817 12.6175 5.12533 12.8937 4.70469C14.6047 4.45704 16.4047 4.03438 18.1563 3.25782C18.1753 3.24899 18.1948 3.24142 18.2148 3.23516L18.4141 3.84063L18.6625 4.4Z" fill="#784533"/>
<path d="M21.5049 15.7416C21.071 16.0683 20.5427 16.245 19.9996 16.245C19.4566 16.245 18.9283 16.0683 18.4944 15.7416L17.7549 16.7495C18.4019 17.2366 19.1898 17.5001 19.9996 17.5001C20.8095 17.5001 21.5974 17.2366 22.2444 16.7495L21.5049 15.7416Z" fill="#FCB079"/>
</svg>
