<svg width="42" height="42" viewBox="0 0 42 42" fill="none" xmlns="http://www.w3.org/2000/svg">
<path d="M40.0187 13.7633V30.4231C40.0187 31.3531 39.6492 32.245 38.9916 32.9026C38.334 33.5602 37.4421 33.9297 36.5121 33.9297H20.5465L14.1625 38.6622C14.0773 38.7255 13.9761 38.7639 13.8703 38.773C13.7645 38.7821 13.6582 38.7617 13.5633 38.7139C13.4685 38.6662 13.3888 38.593 13.3331 38.5025C13.2774 38.4121 13.248 38.308 13.248 38.2018V33.9297H11.5047C10.5746 33.9297 9.68272 33.5602 9.02511 32.9026C8.36749 32.245 7.99805 31.3531 7.99805 30.4231V13.7633C7.99805 11.8266 9.5671 10.2567 12.473 10.2567H37.4813C38.448 10.2567 40.0187 11.8266 40.0187 13.7633Z" fill="#5E5EEF"/>
<g opacity="0.3">
<path d="M26.2131 12.5746H25.6061C25.4423 12.5688 25.2873 12.4997 25.1735 12.3818C25.0597 12.2639 24.9961 12.1065 24.9961 11.9427C24.9961 11.7788 25.0597 11.6214 25.1735 11.5035C25.2873 11.3856 25.4423 11.3165 25.6061 11.3107H26.2131C26.3768 11.3165 26.5319 11.3856 26.6457 11.5035C26.7595 11.6214 26.8231 11.7788 26.8231 11.9427C26.8231 12.1065 26.7595 12.2639 26.6457 12.3818C26.5319 12.4997 26.3768 12.5688 26.2131 12.5746ZM34.6535 12.5746H28.8845C28.7207 12.5688 28.5656 12.4997 28.4518 12.3818C28.3381 12.2639 28.2745 12.1065 28.2745 11.9427C28.2745 11.7788 28.3381 11.6214 28.4518 11.5035C28.5656 11.3856 28.7207 11.3165 28.8845 11.3107H34.6535C34.8173 11.3165 34.9724 11.3856 35.0861 11.5035C35.1999 11.6214 35.2635 11.7788 35.2635 11.9427C35.2635 12.1065 35.1999 12.2639 35.0861 12.3818C34.9724 12.4997 34.8173 12.5688 34.6535 12.5746Z" fill="white"/>
</g>
<g opacity="0.3">
<path d="M9.72729 28.2588C9.55985 28.2586 9.39932 28.192 9.28092 28.0736C9.16252 27.9552 9.09591 27.7947 9.0957 27.6272V23.7466C9.1015 23.5828 9.17063 23.4277 9.28851 23.314C9.4064 23.2002 9.56384 23.1366 9.72768 23.1366C9.89153 23.1366 10.049 23.2002 10.1669 23.314C10.2847 23.4277 10.3539 23.5828 10.3597 23.7466V27.6272C10.3597 27.9759 10.0768 28.2588 9.72729 28.2588ZM9.72729 21.8899C9.55971 21.8896 9.39906 21.8229 9.28064 21.7044C9.16222 21.5858 9.0957 21.4251 9.0957 21.2575V20.5997C9.1015 20.436 9.17063 20.2809 9.28851 20.1671C9.4064 20.0533 9.56384 19.9897 9.72768 19.9897C9.89153 19.9897 10.049 20.0533 10.1669 20.1671C10.2847 20.2809 10.3539 20.436 10.3597 20.5997V21.2575C10.3597 21.6062 10.0768 21.8899 9.72729 21.8899Z" fill="white"/>
</g>
<path d="M40.0187 13.7625V30.4238C40.0187 31.3536 39.6493 32.2453 38.9919 32.9028C38.3344 33.5603 37.4427 33.9296 36.5129 33.9296H20.5465L14.1673 38.6661C14.0814 38.7291 13.9797 38.7671 13.8735 38.7759C13.7673 38.7847 13.6607 38.764 13.5656 38.716C13.4705 38.668 13.3905 38.5947 13.3344 38.5041C13.2784 38.4134 13.2485 38.3091 13.248 38.2025V37.0551L18.8071 32.9303C18.9949 32.7909 19.2231 32.7156 19.4569 32.7156H35.0635C35.9933 32.7156 36.885 32.3462 37.5425 31.6888C38.1999 31.0313 38.5693 30.1396 38.5693 29.2098V12.5492C38.5693 11.8162 38.3419 11.1331 37.9543 10.5681C38.5704 10.844 39.0933 11.2926 39.4596 11.8596C39.826 12.4265 40.0202 13.0875 40.0187 13.7625Z" fill="#4242E5"/>
<path d="M11.3691 28.4324V15.754C11.3691 14.5803 12.3209 13.6278 14.4645 13.6278H34.6989C35.6554 13.6579 36.6484 14.5803 36.6484 15.754V28.4332C36.6484 28.997 36.4245 29.5376 36.0259 29.9363C35.6274 30.335 35.0868 30.5591 34.523 30.5594H13.4953C12.9314 30.5594 12.3906 30.3354 11.9919 29.9366C11.5931 29.5379 11.3691 28.9963 11.3691 28.4324Z" fill="white"/>
<path d="M36.6475 15.7563V28.4308C36.6479 28.7098 36.5932 28.9862 36.4867 29.244C36.3801 29.5019 36.2236 29.7362 36.0264 29.9335C35.8291 30.1308 35.5948 30.2872 35.3369 30.3938C35.0791 30.5003 34.8027 30.555 34.5237 30.5546H13.492C13.0396 30.5558 12.5987 30.4125 12.2334 30.1457C11.868 29.8789 11.5974 29.5024 11.4609 29.0711C11.5877 29.0965 11.7224 29.1052 11.8572 29.1052H32.8809C33.1604 29.1047 33.4369 29.0491 33.6949 28.9417C33.9528 28.8343 34.1871 28.6771 34.3843 28.4792C34.5815 28.2812 34.7378 28.0464 34.8443 27.788C34.9507 27.5297 35.0052 27.2529 35.0047 26.9735V14.2974C35.0047 14.0779 34.9706 13.8592 34.9112 13.6571C35.3996 13.7501 35.8403 14.0106 36.1572 14.3936C36.4742 14.7767 36.6476 15.2591 36.6475 15.7563Z" fill="#E4E3FF"/>
<path d="M29.4685 21.4786C29.4685 24.4907 27.0245 26.9347 24.0037 26.9347C22.5568 26.9342 21.1693 26.3593 20.1462 25.3362C19.1231 24.313 18.5481 22.9255 18.5477 21.4786C18.5353 20.7538 18.6674 20.0337 18.9363 19.3605C19.2051 18.6872 19.6053 18.0742 20.1136 17.5573C20.6218 17.0403 21.2279 16.6297 21.8964 16.3494C22.565 16.0692 23.2827 15.9248 24.0077 15.9248C24.7326 15.9248 25.4503 16.0692 26.1189 16.3494C26.7875 16.6297 27.3936 17.0403 27.9018 17.5573C28.41 18.0742 28.8102 18.6872 29.0791 19.3605C29.3479 20.0337 29.4808 20.7538 29.4685 21.4786Z" fill="#5BC658"/>
<path opacity="0.3" d="M19.9703 21.668H19.9576C19.9131 21.6665 19.8693 21.6562 19.8288 21.6377C19.7883 21.6192 19.7518 21.5929 19.7215 21.5603C19.6911 21.5277 19.6675 21.4894 19.652 21.4476C19.6365 21.4059 19.6294 21.3615 19.6311 21.317C19.6531 20.654 19.8258 20.0047 20.1361 19.4184C20.4464 18.8321 20.8862 18.3242 21.422 17.9332C21.4948 17.8877 21.5821 17.8714 21.6664 17.8876C21.7506 17.9038 21.8257 17.9512 21.8764 18.0204C21.9272 18.0896 21.9499 18.1755 21.94 18.2607C21.9301 18.3459 21.8883 18.4243 21.823 18.48C21.3703 18.8108 20.9987 19.2403 20.7365 19.7359C20.4742 20.2315 20.3282 20.7803 20.3094 21.3407C20.3064 21.4286 20.2693 21.5119 20.206 21.5729C20.1427 21.634 20.0582 21.6681 19.9703 21.668ZM22.8199 17.5893C22.8018 17.5012 22.8193 17.4096 22.8684 17.3344C22.9175 17.2591 22.9944 17.2064 23.0822 17.1875C23.3516 17.1306 23.6256 17.0988 23.9008 17.0924C24.0815 17.1297 24.2432 17.235 24.2479 17.4221C24.2491 17.4665 24.2415 17.5107 24.2255 17.5522C24.2096 17.5937 24.1856 17.6317 24.155 17.6639C24.1244 17.6962 24.0877 17.722 24.0471 17.7401C24.0065 17.7582 23.9627 17.768 23.9183 17.7692C23.6843 17.7756 23.4515 17.8032 23.2225 17.8516C23.1345 17.8699 23.0428 17.8527 22.9674 17.8037C22.8919 17.7548 22.839 17.678 22.8199 17.5901V17.5893Z" fill="white"/>
<path d="M29.469 21.4786C29.469 24.4907 27.0251 26.9346 24.0043 26.9346C23.1336 26.9334 22.2758 26.724 21.5025 26.324C20.7291 25.924 20.0627 25.3448 19.5586 24.6349C20.5188 25.3937 21.7066 25.8069 22.9305 25.8077C25.9521 25.8077 28.396 23.3638 28.396 20.3517C28.396 19.1709 28.0172 18.0789 27.3856 17.1866C28.0358 17.6971 28.5613 18.3488 28.9223 19.0924C29.2832 19.836 29.4702 20.652 29.469 21.4786Z" fill="#49A247"/>
<path d="M26.2302 22.2291L23.8378 23.9146C23.6995 24.012 23.5372 24.0696 23.3685 24.081C23.1998 24.0925 23.0312 24.0574 22.8811 23.9795C22.7309 23.9017 22.6051 23.7841 22.5172 23.6396C22.4294 23.4952 22.3829 23.3293 22.3828 23.1602V19.7891C22.3829 19.62 22.4294 19.4542 22.5172 19.3097C22.6051 19.1652 22.7309 19.0477 22.8811 18.9698C23.0312 18.892 23.1998 18.8569 23.3685 18.8683C23.5372 18.8798 23.6995 18.9373 23.8378 19.0347L26.2302 20.7203C26.7516 21.088 26.7516 21.8614 26.2302 22.2291Z" fill="white"/>
<path d="M26.2245 22.2267L23.844 23.9146C23.716 24.0047 23.5675 24.0611 23.412 24.0787C23.2565 24.0962 23.0991 24.0743 22.9543 24.015C22.8095 23.9557 22.682 23.8609 22.5835 23.7394C22.485 23.6178 22.4186 23.4734 22.3906 23.3195C22.6815 23.4716 23.0412 23.4859 23.3455 23.264L25.7395 21.5761C26.0581 21.3542 26.1833 20.981 26.1136 20.6489L26.2245 20.7179C26.7499 21.0919 26.7499 21.8669 26.2245 22.2267Z" fill="#E4E3FF"/>
<path d="M18.9156 4.23645L21.1353 9.48011C21.2727 9.8045 21.2997 10.1651 21.212 10.5063C21.1244 10.8475 20.927 11.1505 20.6503 11.3685C19.3602 12.3948 17.3973 14.3133 16.436 15.7191C16.2226 16.0285 15.9254 16.2706 15.5793 16.417C15.2332 16.5634 14.8524 16.608 14.4818 16.5456C12.8058 16.2564 10.0671 16.3293 8.43541 16.5401C8.08616 16.5871 7.73113 16.518 7.42499 16.3435C7.11885 16.1689 6.87857 15.8986 6.74114 15.5741L4.52148 10.3304L18.9156 4.23645Z" fill="#474646"/>
<path d="M18.9155 4.23962L21.1328 9.47853C21.271 9.80207 21.2988 10.1621 21.2118 10.5031C21.1249 10.844 20.928 11.1468 20.6517 11.3646C19.364 12.394 17.3963 14.3157 16.4383 15.7183C16.2231 16.0267 15.9253 16.2682 15.579 16.4148C15.2328 16.5615 14.8521 16.6074 14.4809 16.5472C12.8072 16.258 10.0669 16.3301 8.43132 16.5385C8.01844 16.5907 7.60124 16.4827 7.26562 16.2366C7.46612 16.2825 7.68562 16.3 7.90751 16.2762C9.53838 16.0599 12.2834 15.9965 13.9571 16.2849C14.328 16.3405 14.707 16.2925 15.0524 16.1464C15.3977 16.0003 15.6961 15.7617 15.9145 15.4568C16.8717 14.0542 18.8362 12.1237 20.1279 11.1031C20.4042 10.8852 20.6011 10.5825 20.688 10.2415C20.775 9.90063 20.7472 9.54056 20.6089 9.21702L18.5644 4.38861L18.9155 4.23962Z" fill="#2D2C2C"/>
<path d="M19.6328 5.92993L19.8547 6.45454L13.6878 11.1673C13.5275 11.2932 13.3366 11.3742 13.1346 11.4018L5.46212 12.5477L5.24023 12.0231L12.9128 10.8772C13.1125 10.8455 13.305 10.7647 13.4659 10.6426L19.6328 5.92993Z" fill="#2D2C2C"/>
<path opacity="0.2" d="M8.39614 15.7152C8.3147 15.7497 8.22286 15.7505 8.14082 15.7174C8.05879 15.6843 7.99328 15.6199 7.9587 15.5385L7.66787 14.8522C7.63341 14.7706 7.63274 14.6787 7.66603 14.5967C7.69932 14.5147 7.76384 14.4492 7.84538 14.4148C7.92693 14.3803 8.01883 14.3796 8.10086 14.4129C8.1829 14.4462 8.24835 14.5107 8.28282 14.5923L8.57285 15.2777C8.60742 15.3592 8.60822 15.451 8.57508 15.533C8.54194 15.6151 8.47758 15.6806 8.39614 15.7152ZM7.67659 14.0154C7.59515 14.0499 7.50331 14.0507 7.42128 14.0176C7.33924 13.9844 7.27373 13.9201 7.23916 13.8386L7.13376 13.5906C7.09929 13.5091 7.09863 13.4172 7.13192 13.3351C7.16521 13.2531 7.22972 13.1876 7.31127 13.1532C7.39282 13.1187 7.48472 13.118 7.56675 13.1513C7.64879 13.1846 7.71424 13.2491 7.7487 13.3307L7.85331 13.5779C7.88787 13.6594 7.88868 13.7512 7.85554 13.8332C7.8224 13.9153 7.75803 13.9808 7.67659 14.0154Z" fill="white"/>
<path d="M21.6765 3.40918L21.9111 3.9639L21.9063 3.96548C21.9255 4.02198 21.9259 4.08314 21.9077 4.13993C21.8894 4.19672 21.8534 4.24613 21.8049 4.28088L13.4699 10.6522C13.3122 10.7758 13.1188 10.8582 12.9151 10.8868L2.54985 12.432C2.48545 12.4432 2.41917 12.4327 2.36139 12.4021C2.3036 12.3716 2.25757 12.3227 2.23049 12.2633L2.22653 12.253L2.00781 11.7363C2.0337 11.7974 2.07953 11.8479 2.13782 11.8795C2.19612 11.9112 2.26343 11.9221 2.32876 11.9106L12.694 10.3653C12.8953 10.3305 13.0895 10.2488 13.2488 10.1308L21.5838 3.75944C21.7026 3.66435 21.7248 3.52171 21.6765 3.40918Z" fill="#1B1B1B"/>
<path d="M21.5835 3.75938L13.2492 10.1275C13.0872 10.2515 12.8963 10.3325 12.6945 10.3629L2.32528 11.9121C2.01939 11.9581 1.85298 11.5658 2.09943 11.378L10.4281 5.01305C10.5906 4.88942 10.7815 4.8078 10.9836 4.77769L21.3568 3.22527C21.6627 3.17931 21.8291 3.57157 21.5835 3.75938Z" fill="#474646"/>
<path d="M3.44744 15.647L2.07095 12.3939C1.84114 11.8503 2.09551 11.2211 2.63914 10.9897L11.8593 7.0861C11.9072 7.06795 11.9603 7.06905 12.0074 7.08918C12.0545 7.1093 12.0919 7.14688 12.1119 7.19403C12.1319 7.24119 12.1329 7.29425 12.1146 7.34209C12.0963 7.38993 12.0602 7.42883 12.0139 7.45062L2.79446 11.3558C2.62997 11.4257 2.49993 11.558 2.43292 11.7237C2.36591 11.8893 2.3674 12.0748 2.43706 12.2394L3.81197 15.4924C3.83011 15.5403 3.82901 15.5934 3.80889 15.6405C3.78876 15.6876 3.75118 15.725 3.70403 15.745C3.65688 15.765 3.60382 15.766 3.55598 15.7477C3.50814 15.7294 3.46924 15.6933 3.44744 15.647Z" fill="#F9B938"/>
<path d="M4.16348 19.1758L5.74918 18.5046C5.79628 18.4847 5.8382 18.4543 5.87175 18.4157C5.9053 18.3771 5.92958 18.3314 5.94273 18.282C5.95589 18.2326 5.95757 18.1808 5.94764 18.1307C5.93772 18.0805 5.91646 18.0333 5.88548 17.9926L4.60171 16.3182C4.65041 16.1422 4.63755 15.9549 4.56525 15.7872C4.47895 15.5841 4.31561 15.4235 4.11106 15.3406C3.9065 15.2577 3.67742 15.2593 3.47404 15.345C3.27201 15.4321 3.11262 15.5955 3.03066 15.7997C2.9487 16.0038 2.95084 16.2321 3.03661 16.4347C3.10952 16.6066 3.23631 16.7461 3.39242 16.8301L3.70148 18.9174C3.73476 19.1346 3.96299 19.2613 4.16348 19.1758Z" fill="#F9B938"/>
<path d="M4.16348 19.1757L4.4868 19.0387C4.43977 19.0585 4.38882 19.0674 4.33783 19.0646C4.28684 19.0618 4.23717 19.0474 4.1926 19.0225C4.14803 18.9976 4.10974 18.9628 4.08066 18.9208C4.05158 18.8789 4.03247 18.8308 4.0248 18.7803L3.74823 16.9125C3.73318 16.7931 3.67515 16.6832 3.58499 16.6034C3.48932 16.5212 3.41367 16.4182 3.36376 16.3023C3.31386 16.1864 3.29101 16.0606 3.29697 15.9346C3.30293 15.8086 3.33753 15.6855 3.39815 15.5749C3.45876 15.4642 3.5438 15.3688 3.6468 15.2959C3.58705 15.3034 3.5288 15.32 3.47404 15.345C3.27201 15.4321 3.11262 15.5955 3.03066 15.7996C2.9487 16.0038 2.95084 16.2321 3.03661 16.4347C3.10952 16.6066 3.23631 16.7461 3.39242 16.8301L3.70148 18.9174C3.73476 19.1345 3.96299 19.2613 4.16348 19.1757Z" fill="#ECB021"/>
<path d="M13.0447 6.83573C13.1747 7.1432 12.6984 7.63769 11.9892 7.93724C11.2712 8.24154 10.5857 8.23996 10.455 7.93169C10.325 7.62422 10.8013 7.13053 11.5184 6.82622C12.2285 6.52588 12.9139 6.52826 13.0447 6.83573Z" fill="#F9B938"/>
</svg>
