<svg width="40" height="40" viewBox="0 0 40 40" fill="none" xmlns="http://www.w3.org/2000/svg">
<path d="M29.0322 17.7419V18.1946C29.0322 18.7493 29.1217 19.3004 29.2971 19.8267L30.3225 22.9031H32.258V15.8063H30.9677C29.8988 15.8064 29.0322 16.6729 29.0322 17.7419Z" fill="#5A4146"/>
<path d="M37.8661 19.0821L36.7744 22.9032L31.6131 18.3871C30.9004 18.3871 30.3228 17.8094 30.3228 17.0968C30.3228 16.0279 31.1893 15.1613 32.2582 15.1613H36.7743C37.487 15.1613 38.0646 15.7391 38.0646 16.4516V17.6643C38.0647 18.1438 37.9978 18.621 37.8661 19.0821Z" fill="#694B4B"/>
<path d="M31.6123 24.8391H35.4832V27.6945H31.6123V24.8391Z" fill="#E6AF78"/>
<path d="M31.6128 26.0237C32.2112 26.2669 32.8637 26.4037 33.5483 26.4037C34.2329 26.4037 34.8854 26.2669 35.4837 26.0237V24.8387H31.6128V26.0237Z" fill="#D29B6E"/>
<path d="M38.5961 27.293L35.4836 26.4038L33.5482 27.6881L31.6128 26.4037L28.5004 27.293C28.096 27.4086 27.7402 27.6527 27.487 27.9885C27.2337 28.3243 27.0967 28.7335 27.0967 29.1541V33.8709C27.0967 34.042 27.1647 34.2061 27.2856 34.3271C27.4066 34.4481 27.5707 34.5161 27.7418 34.5161H39.3547C39.5258 34.5161 39.6899 34.4481 39.8109 34.3271C39.9319 34.2061 39.9999 34.042 39.9999 33.8709V29.1541C39.9999 28.7335 39.8629 28.3243 39.6096 27.9885C39.3563 27.6527 39.0005 27.4086 38.5961 27.293Z" fill="#D5DCED"/>
<path d="M34.1936 34.516H32.9033L33.2259 27.6941H33.8711L34.1936 34.516Z" fill="#AFB9D2"/>
<path d="M33.5482 25.4838C31.4103 25.4838 29.6772 23.7507 29.6772 21.6129V20.857C29.6772 20.5148 29.8132 20.1866 30.0551 19.9446L31.2251 18.7747C31.4728 18.527 31.8115 18.3845 32.1617 18.3955C34.224 18.4606 36.0495 18.9024 37.0474 19.877C37.2917 20.1156 37.4192 20.4494 37.4192 20.7908V21.6129C37.4192 23.7508 35.6861 25.4838 33.5482 25.4838Z" fill="#F0C087"/>
<path d="M31.6127 21.017C31.6127 20.2728 32.2377 19.6812 32.9804 19.7286C34.2829 19.8117 36.2155 20.0294 37.4012 20.5997C37.3626 20.3275 37.2456 20.0705 37.0474 19.877C36.0495 18.9023 34.224 18.4605 32.1617 18.3955L32.1616 18.3955C31.8115 18.3845 31.4727 18.5269 31.2251 18.7746L30.0552 19.9444C29.9354 20.0643 29.8403 20.2065 29.7755 20.3631C29.7106 20.5196 29.6772 20.6874 29.6772 20.8569V21.6127C29.6772 23.378 30.8601 24.8644 32.4757 25.3298C31.9379 24.6664 31.6128 23.8242 31.6128 22.903L31.6127 21.017Z" fill="#E6AF78"/>
<path d="M37.4194 31.0765C37.4194 30.5631 37.6233 30.0709 37.9863 29.7079L39.647 28.0472C39.869 28.3645 40.0001 28.7464 40.0001 29.1541V33.871C40.0001 34.0421 39.9321 34.2062 39.8111 34.3272C39.6901 34.4482 39.526 34.5162 39.3549 34.5162H37.4194V31.0765Z" fill="#C7CFE2"/>
<path d="M33.8711 28.9844H33.2259C33.1404 28.9844 33.0583 28.9504 32.9978 28.8899C32.9373 28.8294 32.9033 28.7473 32.9033 28.6618V27.6941H34.1936V28.6618C34.1936 28.7042 34.1853 28.7461 34.1691 28.7852C34.1529 28.8244 34.1291 28.8599 34.0992 28.8899C34.0692 28.9198 34.0336 28.9436 33.9945 28.9598C33.9554 28.976 33.9134 28.9844 33.8711 28.9844Z" fill="#959CB5"/>
<path d="M33.5484 27.6882L32.4549 28.5234C32.4106 28.5573 32.3595 28.5812 32.305 28.5934C32.2506 28.6057 32.1942 28.6061 32.1397 28.5945C32.0851 28.583 32.0337 28.5597 31.9889 28.5265C31.9442 28.4932 31.9071 28.4506 31.8804 28.4017L30.8994 26.6103L31.2943 26.008C31.3148 25.9767 31.342 25.9501 31.3739 25.9303C31.4058 25.9105 31.4416 25.8979 31.4788 25.8933C31.5161 25.8888 31.5539 25.8924 31.5896 25.904C31.6253 25.9156 31.6581 25.9348 31.6856 25.9603L33.5484 27.6882ZM33.5484 27.6882L34.6419 28.5235C34.6862 28.5574 34.7373 28.5812 34.7918 28.5935C34.8462 28.6058 34.9026 28.6061 34.9571 28.5946C35.0117 28.583 35.0631 28.5598 35.1079 28.5265C35.1526 28.4933 35.1897 28.4507 35.2164 28.4018L36.1974 26.6104L35.8025 26.0081C35.782 25.9767 35.7548 25.9502 35.7229 25.9304C35.691 25.9106 35.6552 25.898 35.618 25.8934C35.5807 25.8889 35.5429 25.8925 35.5072 25.9041C35.4715 25.9156 35.4387 25.9349 35.4112 25.9604L33.5484 27.6882Z" fill="#C7CFE2"/>
<path d="M11.5484 25.2145C10.9971 23.7537 10.5598 21.2425 10.4654 19.9351C10.2857 17.4471 8.41078 15.419 5.87625 15.419C3.34172 15.419 1.4668 17.4472 1.28711 19.9351C1.19266 21.2424 0.755391 23.7537 0.204063 25.2145C0.0825785 25.5365 0.222813 25.8916 0.539922 26.0353C1.1307 26.303 2.39031 26.8276 3.90945 27.0319H7.84297C9.355 26.8271 10.6234 26.3023 11.2125 26.0353C11.5297 25.8916 11.6699 25.5365 11.5484 25.2145Z" fill="#5A4146"/>
<path d="M11.2126 26.0354C11.5297 25.8916 11.67 25.5366 11.5484 25.2145C10.9972 23.7537 10.5598 21.2426 10.4654 19.9352C10.2858 17.4472 8.41084 15.4191 5.87639 15.4191L5.85724 15.4191C3.91248 15.427 3.22521 18.0793 4.89935 19.0689C4.9999 19.1284 5.06435 19.157 5.06435 19.157L6.53068 27.032H7.8431C9.35514 26.827 10.6236 26.3023 11.2126 26.0354Z" fill="#694B4B"/>
<path d="M10.543 28.3272L8.45516 27.2834C8.24081 27.1762 8.06054 27.0114 7.93455 26.8076C7.80857 26.6037 7.74185 26.3688 7.74188 26.1291L7.74203 24.1936H3.87094V26.1292C3.87094 26.3688 3.80421 26.6037 3.67823 26.8076C3.55225 27.0114 3.37199 27.1761 3.15766 27.2833L1.06984 28.3272C0.748363 28.4879 0.477993 28.735 0.289033 29.0407C0.100073 29.3465 -9.86707e-06 29.6988 7.29624e-10 30.0582L7.29624e-10 33.8709C7.29624e-10 34.042 0.0679716 34.2061 0.188962 34.3271C0.309952 34.448 0.47405 34.516 0.645156 34.516H10.9677C11.1388 34.516 11.3029 34.448 11.4239 34.3271C11.5449 34.2061 11.6129 34.042 11.6129 33.8709V30.0583C11.6129 29.6988 11.5128 29.3465 11.3238 29.0408C11.1348 28.735 10.8645 28.4879 10.543 28.3272Z" fill="#E6AF78"/>
<path d="M5.80633 26.7741C6.50102 26.7741 7.16641 26.6309 7.77641 26.376C7.76039 26.2947 7.74172 26.2138 7.74172 26.1291L7.74187 24.1935H3.87078V26.1291C3.87078 26.2144 3.85211 26.2956 3.83594 26.3773C4.44633 26.6309 5.11141 26.7741 5.80633 26.7741Z" fill="#D29B6E"/>
<path d="M10.543 28.3272L9.05563 27.5835C8.36594 28.6485 7.16977 29.3548 5.80648 29.3548C4.4432 29.3548 3.24695 28.6485 2.55727 27.5834L1.06992 28.3272C0.748432 28.4879 0.478051 28.735 0.289078 29.0407C0.100105 29.3465 6.3539e-06 29.6988 0 30.0582L0 33.8709C0 34.042 0.0679716 34.2061 0.188962 34.3271C0.309952 34.448 0.47405 34.516 0.645156 34.516H10.9677C11.1388 34.516 11.3029 34.448 11.4239 34.3271C11.5449 34.2061 11.6129 34.042 11.6129 33.8709V30.0583C11.6129 29.6988 11.5128 29.3465 11.3238 29.0408C11.1348 28.735 10.8645 28.4879 10.543 28.3272Z" fill="#D5DCED"/>
<path d="M5.80647 25.4838C3.83835 25.4838 2.21335 24.0151 1.96764 22.1139C1.93202 21.8384 2.06444 21.5684 2.31241 21.4433C2.60944 21.2934 3.04108 21.0408 3.45436 20.672C3.9146 20.2614 4.1846 19.8284 4.3371 19.5105C4.46842 19.2367 4.7703 19.0819 5.06452 19.157C7.33608 19.7363 8.88256 20.9181 9.44366 21.4006C9.59428 21.5302 9.68108 21.7212 9.66561 21.9193C9.50928 23.9138 7.84124 25.4838 5.80647 25.4838Z" fill="#F0C087"/>
<path d="M9.44356 21.4005C8.88254 20.918 7.33598 19.7362 5.06442 19.1569C4.7702 19.0818 4.46833 19.2366 4.337 19.5104C4.22153 19.7512 4.03067 20.0579 3.74747 20.371L3.74708 20.3732C3.65918 20.4728 3.56559 20.5727 3.45434 20.672C3.04106 21.0409 2.60942 21.2934 2.31239 21.4433C2.06442 21.5684 1.93208 21.8385 1.96762 22.114C2.18833 23.8214 3.52442 25.1805 5.21957 25.4397C4.44715 24.9142 3.87098 24.1916 3.87098 22.9033V21.9833C4.01754 21.8751 4.16512 21.7672 4.3134 21.6348C4.6701 21.3167 4.98065 20.9503 5.23606 20.5463C6.97379 21.0886 8.15192 21.9918 8.59856 22.3759C8.72082 22.483 9.02426 22.7627 9.37926 23.0958C9.532 22.7282 9.63301 22.3338 9.66543 21.9194C9.68098 21.7212 9.59418 21.5302 9.44356 21.4005Z" fill="#E6AF78"/>
<path d="M0.393281 28.8952C0.144766 29.2251 0 29.6297 0 30.0582V33.8709C0 34.042 0.0679716 34.2061 0.188962 34.3271C0.309952 34.448 0.47405 34.516 0.645156 34.516H2.58063V31.2652C2.58063 30.8733 2.40242 30.5025 2.09633 30.2577L0.393281 28.8952Z" fill="#C7CFE2"/>
<path d="M29.2689 27.4467L23.8709 25.4837L20 26.7741L16.129 25.4838L10.731 27.4468C10.2331 27.6278 9.80307 27.9577 9.49917 28.3915C9.19526 28.8254 9.03223 29.3423 9.03223 29.872V33.8709C9.03223 34.042 9.1002 34.2061 9.22119 34.3271C9.34218 34.4481 9.50628 34.5161 9.67738 34.5161H30.3225C30.4936 34.5161 30.6577 34.4481 30.7787 34.3271C30.8997 34.2061 30.9677 34.042 30.9677 33.8709V29.872C30.9677 29.3423 30.8047 28.8254 30.5008 28.3915C30.1969 27.9576 29.7668 27.6277 29.2689 27.4467Z" fill="#FF507D"/>
<path d="M19.3239 28.0645L18.7095 34.516H21.2901L20.6756 28.0645H19.3239Z" fill="#707487"/>
<path d="M20.6774 28.9509H19.3227C19.2634 28.9509 19.2047 28.9392 19.1499 28.9165C19.0951 28.8938 19.0453 28.8605 19.0034 28.8186C18.9614 28.7767 18.9281 28.7269 18.9055 28.6721C18.8828 28.6173 18.8711 28.5585 18.8711 28.4992V26.7741H21.129V28.4992C21.129 28.5585 21.1173 28.6173 21.0946 28.672C21.0719 28.7268 21.0387 28.7766 20.9968 28.8186C20.9548 28.8605 20.905 28.8938 20.8502 28.9165C20.7955 28.9392 20.7367 28.9509 20.6774 28.9509Z" fill="#5B5D6E"/>
<path d="M30.2732 28.1137C30.7088 28.5812 30.9676 29.204 30.9676 29.8719V33.8709C30.9676 34.042 30.8996 34.2061 30.7787 34.3271C30.6577 34.448 30.4936 34.516 30.3225 34.516H27.0967V32.3591C27.0967 31.6747 27.3686 31.0183 27.8525 30.5344L30.2732 28.1137Z" fill="#D23C69"/>
<path d="M27.0969 12.1788V6.77414C27.0969 6.06148 26.5192 5.48383 25.8066 5.48383H18.0646C15.2142 5.48383 12.9033 7.79461 12.9033 10.6452V12.1788C12.9033 12.8723 13.0151 13.5611 13.2344 14.219L13.4492 14.8633C13.515 15.0606 13.5485 15.2673 13.5485 15.4753V15.8064H26.4517V15.4753C26.4517 15.2673 26.4852 15.0606 26.551 14.8633L26.7657 14.219C26.9851 13.5612 27.0969 12.8723 27.0969 12.1788Z" fill="#5A4146"/>
<path d="M16.1289 8.10476C16.1289 9.55226 17.3023 10.7257 18.7498 10.7257H19.1127L19.2879 15.8063H26.4514V15.4752C26.4514 15.2672 26.4849 15.0605 26.5507 14.8632L26.7655 14.2189C26.9848 13.5611 27.0966 12.8722 27.0966 12.1787V6.77414C27.0966 6.06148 26.5188 5.48383 25.8062 5.48383H18.7498C17.3023 5.48383 16.1289 6.65726 16.1289 8.10476Z" fill="#694B4B"/>
<path d="M16.1289 20.968H23.8711V26.7742H16.1289V20.968Z" fill="#E6AF78"/>
<path d="M16.129 23.1492C17.2687 23.8095 18.5881 24.1934 19.9999 24.1934C21.4117 24.1934 22.7313 23.8095 23.8709 23.1492V20.9677H16.1289L16.129 23.1492Z" fill="#D29B6E"/>
<path d="M20.0001 26.7741L17.9425 28.8318C17.6659 29.1084 17.2088 29.0772 16.9724 28.7656L14.8389 25.9544L15.3969 24.7784C15.5616 24.4313 15.9911 24.3041 16.3182 24.5057L20.0001 26.7741ZM20.0001 26.7741L22.0578 28.8318C22.3343 29.1084 22.7914 29.0772 23.0279 28.7656L25.1614 25.9544L24.6033 24.7784C24.4386 24.4313 24.0091 24.3041 23.6821 24.5057L20.0001 26.7741Z" fill="#D23C69"/>
<path d="M20 22.9032C16.4369 22.9032 13.5483 20.0147 13.5483 16.4516V15.6957C13.5483 15.3535 13.6843 15.0253 13.9262 14.7833L14.4607 14.2488C14.5805 14.129 14.6755 13.9868 14.7404 13.8302C14.8052 13.6736 14.8386 13.5059 14.8386 13.3364V11.7898C14.8386 11.4911 15.0392 11.2316 15.3299 11.1629C16.8558 10.8025 21.604 9.94882 24.8353 12.3254C25.0451 12.4797 25.1612 12.7332 25.1612 12.9937V13.3364C25.1612 13.6786 25.2971 14.0068 25.539 14.2488L26.0735 14.7833C26.1933 14.9031 26.2884 15.0454 26.3532 15.2019C26.418 15.3585 26.4514 15.5263 26.4514 15.6957V16.4516C26.4516 20.0147 23.5631 22.9032 20 22.9032Z" fill="#F0C087"/>
<path d="M24.8354 12.3255C22.5627 10.654 19.5439 10.5816 17.4194 10.8105C16.5232 10.907 15.7827 11.0561 15.3301 11.163C15.0394 11.2316 14.8387 11.4912 14.8387 11.7899V13.3364C14.8387 13.6787 14.7028 14.0069 14.4608 14.2489L13.9263 14.7834C13.8065 14.9032 13.7114 15.0454 13.6466 15.202C13.5817 15.3586 13.5483 15.5264 13.5483 15.6959V16.4516C13.5483 19.7504 16.0257 22.4661 19.2204 22.8516C18.1072 21.6923 17.4193 20.1213 17.4193 18.3871V13.6714C17.4193 13.0176 17.9054 12.4712 18.5541 12.3898C20.1024 12.1957 22.9382 12.079 25.1612 13.3366V12.9938C25.1613 12.7333 25.0451 12.4797 24.8354 12.3255Z" fill="#E6AF78"/>
<path d="M9.72668 28.1137C9.29105 28.5812 9.03223 29.204 9.03223 29.8719V33.8709C9.03223 34.042 9.1002 34.2061 9.22119 34.3271C9.34218 34.448 9.50628 34.516 9.67738 34.516H12.9032V32.3591C12.9032 31.6747 12.6313 31.0183 12.1473 30.5344L9.72668 28.1137Z" fill="#D23C69"/>
</svg>
