<svg width="40" height="40" viewBox="0 0 40 40" fill="none" xmlns="http://www.w3.org/2000/svg">
<path d="M36.3177 34.3516H3.68234C1.67109 34.3516 0 32.7268 0 30.6692V9.33078C0 7.31953 1.62477 5.64844 3.68234 5.64844H36.3177C38.3289 5.64844 40 7.2732 40 9.33078V30.6693C40 32.6805 38.3752 34.3516 36.3177 34.3516Z" fill="#FADCA9"/>
<path d="M36.3177 5.64844H20V34.3516H36.3177C38.3752 34.3516 40 32.6805 40 30.6692V9.33078C40 7.27312 38.3289 5.64844 36.3177 5.64844Z" fill="#FFC85A"/>
<path d="M12.469 21.9662C10.7387 21.9662 9.33105 20.5584 9.33105 18.8281C9.33105 17.0978 10.7387 15.6901 12.469 15.6901C14.1993 15.6901 15.6071 17.0978 15.6071 18.8281C15.6071 20.5584 14.1993 21.9662 12.469 21.9662Z" fill="#FF9355"/>
<path d="M17.4899 29.3308H7.44824C6.80105 29.3308 6.27637 28.8061 6.27637 28.1589C6.27637 24.7442 9.05441 21.9662 12.4691 21.9662C15.8838 21.9662 18.6618 24.7442 18.6618 28.1589C18.6618 28.8061 18.1371 29.3308 17.4899 29.3308Z" fill="#48B658"/>
<path d="M32.5521 19.2891H23.7656C23.1184 19.2891 22.5938 18.7644 22.5938 18.1172C22.5938 17.47 23.1184 16.9453 23.7656 16.9453H32.5521C33.1993 16.9453 33.724 17.47 33.724 18.1172C33.724 18.7644 33.1993 19.2891 32.5521 19.2891Z" fill="#0A0400"/>
<path d="M32.5525 13.013H7.44824C6.80105 13.013 6.27637 12.4883 6.27637 11.8411C6.27637 11.1939 6.80105 10.6692 7.44824 10.6692H32.5525C33.1996 10.6692 33.7243 11.1939 33.7243 11.8411C33.7243 12.4883 33.1996 13.013 32.5525 13.013Z" fill="#352E2F"/>
<path d="M32.5521 24.3099H23.7656C23.1184 24.3099 22.5938 23.7852 22.5938 23.138C22.5938 22.4909 23.1184 21.9662 23.7656 21.9662H32.5521C33.1993 21.9662 33.724 22.4909 33.724 23.138C33.724 23.7852 33.1993 24.3099 32.5521 24.3099ZM30.0416 29.3308H23.7656C23.1184 29.3308 22.5938 28.8061 22.5938 28.1589C22.5938 27.5117 23.1184 26.987 23.7656 26.987H30.0416C30.6888 26.987 31.2135 27.5117 31.2135 28.1589C31.2135 28.8061 30.6888 29.3308 30.0416 29.3308ZM33.724 11.8411C33.724 11.1939 33.1993 10.6692 32.5521 10.6692H20V13.013H32.5521C33.1993 13.013 33.724 12.4884 33.724 11.8411Z" fill="#0A0400"/>
</svg>
