<svg width="42" height="42" viewBox="0 0 42 42" fill="none" xmlns="http://www.w3.org/2000/svg">
<path fill-rule="evenodd" clip-rule="evenodd" d="M24.3013 8.25045C24.352 8.15307 24.3983 8.05347 24.44 7.95194L24.4426 7.94644H24.4423C24.6256 7.49906 24.7196 7.02014 24.719 6.53665C24.719 4.48243 23.0538 2.81728 20.9997 2.81728C18.9455 2.81728 17.2803 4.48251 17.2803 6.53665C17.2803 7.21194 17.4602 7.84505 17.7748 8.39089L19.2868 11.6448L21.0055 15.3433L22.7241 11.6448L24.3013 8.25045Z" fill="#FCB500"/>
<path d="M21.6156 8.19566C22.4444 7.8578 22.8423 6.9121 22.5044 6.08338C22.1666 5.25466 21.2209 4.85673 20.3921 5.19459C19.5634 5.53245 19.1655 6.47815 19.5033 7.30687C19.8412 8.1356 20.7869 8.53352 21.6156 8.19566Z" fill="#F0F0F0"/>
<path fill-rule="evenodd" clip-rule="evenodd" d="M16.9619 19.889H25.038V31.3978H16.9619V19.889Z" fill="#D7B285"/>
<path fill-rule="evenodd" clip-rule="evenodd" d="M16.9619 19.889H23.7834V30.3134H16.9619V19.889Z" fill="#EFC89F"/>
<path fill-rule="evenodd" clip-rule="evenodd" d="M3.71484 30.9849L7.71641 27.4367L11.9419 32.4666L7.94036 36.0148L3.71484 30.9849ZM38.2848 30.9849L34.2832 27.4367L30.0577 32.4666L34.0593 36.0148L38.2848 30.9849Z" fill="#EFC89F"/>
<path fill-rule="evenodd" clip-rule="evenodd" d="M20.9996 27.7579C28.9575 27.7579 35.8229 32.4313 39.004 39.1827H2.99512C6.17621 32.4314 13.0416 27.7579 20.9996 27.7579Z" fill="#397399"/>
<path fill-rule="evenodd" clip-rule="evenodd" d="M7.72363 32.8376C11.0244 29.8768 15.3205 28.0038 20.0487 27.7811C20.0761 27.833 20.1035 27.8848 20.1311 27.9374L20.8102 30.1539C21.0697 30.7999 20.849 31.3643 20.5938 31.7333C20.1331 31.9668 19.6873 31.9165 19.2662 31.3978L18.632 30.7684C18.3452 30.3909 17.9169 30.2963 17.3925 30.3938C16.9512 30.5343 16.7805 30.8302 16.7531 31.2083L16.9488 32.2304C17.061 32.7241 17.4011 33.9793 17.1965 34.1957C17.0042 34.861 16.3597 34.9053 15.7715 35.0954C14.8307 35.3 14.1692 35.2065 13.601 35.0282L11.5896 34.4085L7.72363 32.8376ZM28.1462 29.0802C27.3571 29.3503 26.7894 29.7755 26.3962 30.3227C26.1718 30.6225 25.9977 30.967 25.936 31.4361C25.8662 31.9334 25.971 32.4481 26.0993 32.9652C26.2703 33.2752 26.4989 33.5313 26.7822 33.7372L27.9698 34.3608C28.2128 34.6078 28.1821 34.8758 27.9105 35.1624L26.9974 35.6968C25.9283 36.6541 25.7717 37.829 25.8914 39.1826H39.0047C36.7848 34.6303 33.3616 31.0966 28.1462 29.0802Z" fill="#00BFA9"/>
<path fill-rule="evenodd" clip-rule="evenodd" d="M19.04 22.2317H22.9593V24.7258H19.04V22.2317Z" fill="#F0F0F0"/>
<path fill-rule="evenodd" clip-rule="evenodd" d="M40.2701 16.6981C40.3207 16.6007 40.367 16.5011 40.4088 16.3996L40.4113 16.3941H40.411C40.5943 15.9467 40.6884 15.4678 40.6878 14.9843C40.6878 12.9301 39.0225 11.2649 36.9684 11.2649C34.9143 11.2649 33.249 12.9302 33.249 14.9843C33.249 15.6595 33.429 16.2927 33.7435 16.8386L35.2555 20.0925L36.9741 23.7909L38.6928 20.0925L40.2701 16.6981Z" fill="#019FCE"/>
<path d="M38.5667 15.4066C38.709 14.5231 38.1081 13.6914 37.2246 13.5491C36.341 13.4068 35.5094 14.0077 35.3671 14.8913C35.2247 15.7748 35.8256 16.6065 36.7092 16.7488C37.5928 16.8911 38.4244 16.2902 38.5667 15.4066Z" fill="#F0F0F0"/>
<path fill-rule="evenodd" clip-rule="evenodd" d="M8.33355 16.6981C8.38417 16.6007 8.43045 16.5011 8.47227 16.3996L8.47481 16.3941H8.47448C8.65782 15.9467 8.75184 15.4678 8.75126 14.9843C8.75126 12.9301 7.08602 11.2649 5.03188 11.2649C2.97773 11.2649 1.3125 12.9302 1.3125 14.9843C1.3125 15.6595 1.49248 16.2927 1.80698 16.8386L3.31898 20.0925L5.03762 23.7909L6.75626 20.0925L8.33355 16.6981Z" fill="#C90A4F"/>
<path d="M5.64297 16.6435C6.4717 16.3057 6.86962 15.36 6.53176 14.5313C6.19391 13.7025 5.2482 13.3046 4.41948 13.6425C3.59076 13.9803 3.19283 14.926 3.53069 15.7547C3.86855 16.5835 4.81425 16.9814 5.64297 16.6435Z" fill="#F0F0F0"/>
</svg>
