<svg width="24" height="24" viewBox="0 0 24 24" fill="none" xmlns="http://www.w3.org/2000/svg">
<path d="M18.796 4H5.204C5.01175 3.99984 4.82354 4.05509 4.66189 4.15914C4.50024 4.26319 4.372 4.41164 4.29255 4.58669C4.21309 4.76175 4.18578 4.956 4.21388 5.14618C4.24198 5.33636 4.32431 5.51441 4.451 5.659L9.753 11.717C9.91246 11.8995 10.0002 12.1337 10 12.376V17.25C10 17.3276 10.0181 17.4042 10.0528 17.4736C10.0875 17.543 10.1379 17.6034 10.2 17.65L13.2 19.9C13.2743 19.9557 13.3626 19.9896 13.4551 19.998C13.5476 20.0063 13.6406 19.9887 13.7236 19.9472C13.8067 19.9057 13.8765 19.8419 13.9253 19.7629C13.9741 19.6839 14 19.5929 14 19.5V12.376C13.9998 12.1337 14.0875 11.8995 14.247 11.717L19.549 5.658C20.115 5.012 19.655 4 18.796 4Z" stroke="#374174" stroke-width="2" stroke-linecap="round"/>
</svg>
