<svg width="22" height="22" viewBox="0 0 22 22" fill="none" xmlns="http://www.w3.org/2000/svg">
<path fill-rule="evenodd" clip-rule="evenodd" d="M14.6673 8.24992C14.6673 9.22238 14.281 10.155 13.5934 10.8426C12.9057 11.5303 11.9731 11.9166 11.0007 11.9166C10.0282 11.9166 9.09556 11.5303 8.40793 10.8426C7.72029 10.155 7.33398 9.22238 7.33398 8.24992C7.33398 7.27746 7.72029 6.34483 8.40793 5.65719C9.09556 4.96956 10.0282 4.58325 11.0007 4.58325C11.9731 4.58325 12.9057 4.96956 13.5934 5.65719C14.281 6.34483 14.6673 7.27746 14.6673 8.24992ZM12.834 8.24992C12.834 8.73615 12.6408 9.20246 12.297 9.54628C11.9532 9.8901 11.4869 10.0833 11.0007 10.0833C10.5144 10.0833 10.0481 9.8901 9.70429 9.54628C9.36047 9.20246 9.16732 8.73615 9.16732 8.24992C9.16732 7.76369 9.36047 7.29737 9.70429 6.95356C10.0481 6.60974 10.5144 6.41659 11.0007 6.41659C11.4869 6.41659 11.9532 6.60974 12.297 6.95356C12.6408 7.29737 12.834 7.76369 12.834 8.24992Z" fill="#374174"/>
<path fill-rule="evenodd" clip-rule="evenodd" d="M11.0003 0.916626C5.43158 0.916626 0.916992 5.43121 0.916992 11C0.916992 16.5687 5.43158 21.0833 11.0003 21.0833C16.5691 21.0833 21.0837 16.5687 21.0837 11C21.0837 5.43121 16.5691 0.916626 11.0003 0.916626ZM2.75033 11C2.75033 12.9158 3.40391 14.6795 4.49933 16.0801C5.26881 15.0701 6.2613 14.2515 7.39933 13.6883C8.53736 13.1251 9.79014 12.8325 11.0599 12.8333C12.3133 12.8318 13.5506 13.1166 14.6772 13.666C15.8038 14.2153 16.7901 15.0147 17.5609 16.0031C18.3552 14.9614 18.8899 13.7456 19.121 12.4562C19.352 11.1668 19.2727 9.84087 18.8896 8.5882C18.5065 7.33552 17.8306 6.19209 16.9179 5.25249C16.0051 4.3129 14.8817 3.60416 13.6407 3.18493C12.3996 2.76569 11.0766 2.648 9.78103 2.8416C8.48547 3.0352 7.25463 3.53453 6.19036 4.29826C5.12609 5.06199 4.25899 6.06817 3.66079 7.23356C3.06259 8.39894 2.75049 9.69001 2.75033 11ZM11.0003 19.25C9.10641 19.253 7.26962 18.6015 5.80099 17.4056C6.39207 16.5592 7.17892 15.8681 8.09456 15.3912C9.0102 14.9143 10.0275 14.6657 11.0599 14.6666C12.0794 14.6657 13.0844 14.9081 13.9914 15.3737C14.8984 15.8392 15.6812 16.5144 16.2748 17.3433C14.7948 18.578 12.9277 19.253 11.0003 19.25Z" fill="#374174"/>
</svg>
