<svg width="66" height="72" viewBox="0 0 66 72" fill="none" xmlns="http://www.w3.org/2000/svg">
<path fill-rule="evenodd" clip-rule="evenodd" d="M22.0786 63.5037C22.0163 63.3828 21.9737 63.2744 21.9435 63.1784C9.156 58.6972 0 46.667 0 32.5251C0 14.5614 14.7747 0 32.9996 0C51.2263 0 66.0011 14.5632 66.0011 32.5251C66.0011 46.8945 56.5464 59.0865 43.4337 63.3899C43.8816 63.7685 44.0683 64.0831 43.9083 65.2652C43.8407 65.7664 44.0842 65.7878 44.6673 66.2108C45.1508 66.5628 45.9631 66.4206 46.9638 66.7139C48.2632 67.096 49.1537 66.3779 50.4033 66.9503C50.9526 67.2009 52.4884 67.096 52.8865 67.3147C52.9399 67.9012 52.3639 67.304 52.1737 68.6602C52.0386 69.629 51.4876 71.0652 50.494 71.3958C49.3724 71.7673 49.2586 72.1904 48.6045 71.9078C48.0215 71.6554 45.341 71.4527 44.8184 71.0865C43.7643 70.3489 42.2481 70.4075 41.1229 69.501C37.5039 66.5841 38.7712 68.9518 35.6624 69.3428C34.6243 69.4743 33.8049 69.3321 32.0682 69.2664C30.9893 69.2255 29.3859 69.0442 28.4048 68.6194C27.9035 68.4025 27.0823 68.3527 26.5952 68.534C24.7626 69.213 24.0978 70.0983 23.1095 69.9454C22.0679 69.7836 20.4735 70.7559 19.9367 70.5017C19.295 70.196 17.2953 72.7787 18.2018 70.3791C18.8062 68.7776 17.6188 69.1811 19.1012 66.769C19.974 65.3469 20.6441 66.0882 22.0963 65.3505C23.1077 64.8368 22.0483 63.9605 22.075 63.5072L22.0786 63.5037Z" fill="#FEFEFE"/>
<path d="M60.3361 3.69925V0.551263H59.1611V0.133545H61.9856V0.551263H60.8107V3.69925H60.3378H60.3361ZM62.462 3.69925V0.133545H63.1694L64.012 2.65762C64.0902 2.89226 64.1471 3.06823 64.1826 3.18554C64.2235 3.05579 64.2875 2.86559 64.3728 2.61319L65.2314 0.133545H65.8642V3.69925H65.4109V0.714794L64.3693 3.69925H63.9444L62.9153 0.661468V3.69925H62.462Z" fill="black"/>
<path d="M20.0389 66.051C20.1367 65.9604 20.2469 65.8875 20.3518 65.8306C20.4051 65.7773 20.4549 65.74 20.4975 65.7062C20.5864 65.6404 20.6628 65.6138 20.7073 65.6013C20.7073 65.6013 20.6646 65.5853 20.5882 65.5587C20.5509 65.548 20.5029 65.5355 20.4531 65.5249L20.3713 65.5089C20.3553 65.5071 20.3465 65.5035 20.3216 65.5035L20.2202 65.5018C19.6514 65.4982 18.9813 65.6511 18.4587 66.0386L18.4463 66.0528C18.2596 66.1914 18.0055 66.531 17.8633 66.9878C17.7175 67.4446 17.682 68.0116 17.8544 68.6089C18.1157 69.5474 18.073 70.2406 17.9859 70.7064C17.8935 71.1756 17.7371 71.4209 17.7246 71.4369C17.7246 71.4369 17.9788 71.4476 18.2845 71.3498C18.5956 71.2503 18.9511 71.0458 19.2266 70.5766C19.2924 70.4788 19.4115 70.2406 19.4861 69.8247C19.559 69.4088 19.6052 68.8133 19.511 67.9743C19.4577 67.4997 19.4844 67.1086 19.5786 66.7869C19.6728 66.4705 19.8381 66.227 20.0372 66.0528L20.0389 66.051Z" fill="#EBA135"/>
<path d="M22.6818 65.7861C22.4845 65.6084 22.3334 65.3702 22.1823 65.1409C22.0472 65.2102 21.9104 65.3026 21.7788 65.4271L21.7664 65.4342V65.4359C21.658 65.5408 21.498 65.8163 21.3433 66.2163C21.1958 66.6144 21.0376 67.1424 20.995 67.7574C20.9683 68.2426 20.8528 68.6426 20.6892 68.9732C20.6679 69.0123 20.6466 69.0514 20.627 69.0905L20.595 69.1456L20.5755 69.1741L20.5683 69.2007L20.499 69.4051C20.451 69.5331 20.4102 69.6415 20.3675 69.7411C20.2839 69.9348 20.2057 70.0735 20.14 70.1695C20.0795 70.2619 20.0315 70.3063 20.0244 70.3152C20.0226 70.3152 20.2359 70.4077 20.4404 70.4414C20.4919 70.4485 20.5435 70.4539 20.5879 70.4539C20.611 70.4539 20.6323 70.4485 20.6483 70.445C20.6554 70.445 20.6554 70.445 20.6661 70.4414L20.7248 70.4361C20.7639 70.4272 20.803 70.4237 20.8439 70.413C21.1567 70.3561 21.4927 70.2352 21.8108 70.0219C21.9495 69.9331 22.2428 69.7055 22.4596 69.2878C22.6818 68.8594 22.8151 68.2444 22.6889 67.4108C22.5805 66.6766 22.6072 66.1558 22.6854 65.7879L22.6818 65.7861Z" fill="#EBA135"/>
<path d="M23.8027 69.0585C23.5219 69.5313 23.1682 69.75 23.1504 69.7624C23.1504 69.7624 23.4721 69.8353 23.9289 69.7606C24.3875 69.6842 24.9866 69.4496 25.4469 68.8914C25.5323 68.7919 25.6869 68.5786 25.7918 68.2426C25.1572 67.9387 24.6471 67.4694 24.0871 67.0535C24.2596 67.9369 24.0747 68.6106 23.8027 69.0567V69.0585Z" fill="#EBA135"/>
<path d="M27.7272 62.6024V62.5758C27.7521 62.1687 27.9156 61.943 27.9991 61.8647C27.9991 61.8647 27.7752 61.9198 27.505 62.0745C27.3201 62.1829 27.1139 62.334 26.9326 62.5526C27.1957 62.5135 27.457 62.542 27.7272 62.6024Z" fill="#EBA135"/>
<path d="M26.7879 68.1235C26.6937 68.2675 26.6173 68.3475 26.6084 68.3528C26.6084 68.3528 26.923 68.36 27.3319 68.2053C27.6767 68.072 28.0891 67.8249 28.4108 67.3823C27.9291 67.7503 27.3478 68.0116 26.7879 68.1235Z" fill="#EBA135"/>
<path d="M30.7474 62.3787C29.656 60.7985 30.1021 60.0217 30.2568 59.8457C30.2568 59.8457 30.0381 59.9221 29.7733 60.1052C29.5067 60.2901 29.1974 60.5834 29.0072 61.0313L29.0036 61.042L29.0018 61.0455C28.9361 61.2073 28.8952 61.5521 28.945 61.9947C28.9894 62.4018 29.112 62.8888 29.3733 63.3865C30.1128 63.239 30.8433 63.5749 31.4406 64.0549C31.3908 63.6105 31.2095 63.0417 30.7509 62.3787H30.7474Z" fill="#EBA135"/>
<path d="M32.8701 63.998C33.2149 63.7776 33.6113 63.3919 33.8069 62.7555C33.8495 62.624 33.9384 62.2934 33.8335 61.8863C33.7447 61.4615 33.5473 60.8927 33.087 60.1799C32.559 59.3747 32.4666 58.7419 32.5626 58.2904C32.655 57.8353 32.9217 57.5723 33.0461 57.4834C33.0461 57.4852 32.7581 57.5474 32.392 57.7571C32.024 57.9669 31.5832 58.3242 31.3183 58.8521L31.3112 58.8645L31.3094 58.8681C31.2632 58.9605 31.2188 59.1063 31.1992 59.2876C31.1868 59.3765 31.1797 59.4778 31.1797 59.5826C31.185 59.6822 31.1992 59.7853 31.2152 59.8937C31.2935 60.3328 31.4694 60.8607 31.8178 61.3779C32.3653 62.1849 32.4844 62.9013 32.4524 63.415C32.4204 63.9358 32.2444 64.2504 32.2355 64.27C32.2355 64.27 32.527 64.2113 32.8683 63.9945L32.8701 63.998Z" fill="#EBA135"/>
<path d="M36.1527 56.527C36.4602 56.136 36.8762 56.0062 37.0486 55.9778C37.0504 55.9813 36.7197 55.9102 36.238 55.9653C35.7581 56.0187 35.1271 56.216 34.6383 56.655L34.6258 56.6639L34.6223 56.6692H34.624C34.4499 56.8221 34.2206 57.1901 34.1192 57.6647C34.0144 58.1375 34.0428 58.7116 34.2845 59.2822C34.4712 59.7319 34.5725 60.1301 34.6329 60.4731C34.6916 60.8126 34.7058 61.1024 34.7005 61.3335C34.6845 61.8027 34.5725 62.064 34.5636 62.0782C34.5636 62.0782 34.8142 62.0587 35.088 61.9307C35.2284 61.8667 35.3706 61.7743 35.5057 61.6392C35.6408 61.5059 35.7599 61.3299 35.8612 61.0882H35.8594C35.9074 60.9868 35.991 60.7451 36.0212 60.3274C36.0478 59.9097 36.0443 59.3106 35.8683 58.4876C35.7688 58.0166 35.7581 57.6256 35.8168 57.3003C35.8754 56.9785 36.0016 56.7226 36.1545 56.527H36.1527Z" fill="#EBA135"/>
<path d="M37.431 60.7735C37.5625 60.7166 37.6976 60.6171 37.8522 60.4553C37.9216 60.3878 38.0655 60.2136 38.2753 59.8705C38.3819 59.6999 38.5117 59.4848 38.6574 59.2182C38.8014 58.9498 38.9667 58.6316 39.1338 58.2423C39.3205 57.7997 39.548 57.4744 39.8004 57.2505C40.0546 57.0247 40.3265 56.9021 40.5878 56.8505C40.8491 56.7954 41.0944 56.8167 41.2917 56.863C41.489 56.9038 41.6383 56.9767 41.7201 57.0247C41.7201 57.0283 41.4926 56.7439 41.0287 56.4666C40.7958 56.3297 40.5043 56.1999 40.1737 56.1164C39.8466 56.0311 39.4787 55.9955 39.1089 56.04L39.0894 56.0453H39.0858C38.8245 56.0755 38.3784 56.2639 38.0158 56.6248C37.6478 56.9874 37.383 57.5135 37.3385 58.1321C37.2994 58.6192 37.2212 59.0191 37.1448 59.3515C37.0666 59.6839 36.983 59.9487 36.9048 60.1514C36.7537 60.5655 36.608 60.7593 36.5938 60.7699C36.5938 60.7717 36.8053 60.8446 37.0488 60.8464C37.1714 60.8464 37.2994 60.8304 37.431 60.7735Z" fill="#EBA135"/>
<path d="M44.3955 60.2775C44.3333 60.002 44.2213 59.6874 44.0435 59.3799C43.8658 59.0742 43.6187 58.772 43.3094 58.5374L43.2934 58.5249L43.2899 58.5214C43.073 58.3561 42.5984 58.1659 42.0651 58.1819C41.8003 58.189 41.5248 58.2441 41.2635 58.3525C40.9986 58.4645 40.7498 58.6316 40.5276 58.852C40.1774 59.1968 39.8592 59.4546 39.5979 59.6732C39.3313 59.8847 39.1216 60.0554 38.9563 60.1816C38.7892 60.3095 38.6665 60.3984 38.5812 60.4535C38.5012 60.5086 38.4514 60.5335 38.4443 60.5353C38.4443 60.5353 38.535 60.7006 38.6612 60.8215C38.7252 60.8837 38.8016 60.9335 38.9047 60.9495C39.0131 60.9708 39.1447 60.9601 39.3455 60.9175C39.4344 60.905 39.6317 60.8517 40.0174 60.729L40.7356 60.5033C41.0271 60.4109 41.3719 60.2953 41.7701 60.1371C42.2198 59.954 42.6162 59.8829 42.9592 59.9132C43.3023 59.938 43.5867 60.0554 43.8089 60.2136C44.0329 60.3735 44.1893 60.5726 44.2924 60.7557C44.3955 60.937 44.4452 61.1041 44.4612 61.2036C44.4595 61.2054 44.5199 60.8286 44.3955 60.2793V60.2775Z" fill="#EBA135"/>
<path d="M43.0331 64.0903C43.2304 64.3658 43.3228 64.6574 43.3442 64.9204C43.3477 64.9613 43.3495 65.0004 43.3513 65.0378C43.4721 65.0449 43.593 65.0609 43.7157 65.0857C43.7672 65.0982 43.8152 65.1142 43.8614 65.1337C43.9645 64.9738 44.0623 64.7871 44.1405 64.5774C44.2649 64.2503 44.3449 63.8699 44.336 63.4718V63.4522V63.4487C44.3271 63.1714 44.1778 62.6701 43.817 62.2702C43.6392 62.0693 43.4135 61.8915 43.154 61.7707C42.8945 61.6445 42.6012 61.5751 42.2865 61.5574C41.7942 61.5325 41.3836 61.4774 41.0458 61.4436C40.7081 61.4063 40.4433 61.3796 40.2371 61.3618C40.0327 61.3441 39.8904 61.3334 39.7945 61.3227C39.6985 61.3103 39.6523 61.2996 39.6505 61.2979C39.6487 61.3014 39.5829 61.4632 39.5705 61.6071C39.5634 61.68 39.5723 61.7493 39.6238 61.8151C39.6771 61.8827 39.7714 61.9484 39.9349 62.0462C40.0007 62.096 40.1749 62.1866 40.5144 62.3892C40.6886 62.4888 40.8983 62.6168 41.156 62.7803C41.4156 62.9403 41.7248 63.1287 42.1017 63.326C42.5301 63.5535 42.834 63.813 43.0331 64.0868V64.0903Z" fill="#EBA135"/>
<path d="M36.8823 66.833C36.8912 67.7911 36.6281 68.3705 36.326 68.7065C36.0238 69.0442 35.6878 69.1313 35.5527 69.1491C35.5527 69.1491 35.8069 69.2344 36.1997 69.2451C36.5944 69.2593 37.1365 69.1918 37.6573 68.886L37.6715 68.8754C37.8546 68.7669 38.1461 68.4701 38.3594 68.0399C38.3861 67.9866 38.4057 67.9386 38.4288 67.8871C37.9079 67.5369 37.4245 67.1209 36.8823 66.8081V66.8365V66.833Z" fill="#EBA135"/>
<path d="M34.9351 64.6165C34.9209 64.6253 34.9049 64.636 34.8889 64.6431C34.7805 64.716 34.5494 64.8902 34.3023 65.2546C34.0552 65.6172 33.7886 66.1647 33.6304 66.9966C33.4598 67.9386 33.1078 68.4612 32.7612 68.7403C32.4164 69.0211 32.0822 69.0602 31.9453 69.0549C31.9453 69.0549 32.1782 69.1793 32.5532 69.2558C32.9247 69.3322 33.4438 69.3571 33.9752 69.1562L33.9895 69.1527V69.1491C34.1779 69.078 34.4943 68.8487 34.7805 68.4754C35.0666 68.1057 35.3155 67.5938 35.3955 66.9823C35.4666 66.4793 35.5892 66.074 35.7314 65.7416C35.3599 65.4537 35.136 65.0431 34.9351 64.6165Z" fill="#EBA135"/>
<path d="M33.2242 65.068C33.5815 64.732 33.873 64.62 33.889 64.6147C33.889 64.6129 33.6775 64.4618 33.3451 64.3747C33.0109 64.2805 32.5577 64.2521 32.0155 64.5063C31.8964 64.556 31.6369 64.6947 31.3347 65.0182C31.0326 65.3364 30.6824 65.8394 30.3998 66.6339C30.0798 67.5369 29.6461 68.0009 29.255 68.223C28.8604 68.4417 28.512 68.4257 28.377 68.3937C28.377 68.3937 28.5938 68.5608 28.9618 68.6941C29.3279 68.831 29.8416 68.9376 30.3962 68.8203H30.4122H30.414C30.6113 68.7741 30.9579 68.5963 31.2992 68.2746C31.6369 67.9529 31.9622 67.4854 32.1417 66.8935C32.4297 65.962 32.8634 65.4092 33.2225 65.0697L33.2242 65.068Z" fill="#EBA135"/>
<path d="M25.3275 67.3539C25.6919 67.6045 26.2251 67.8498 26.8295 67.8587H26.8455H26.8491C27.0606 67.8587 27.4587 67.7574 27.8605 67.505C28.2622 67.2508 28.6675 66.8491 28.9465 66.2927C29.3909 65.4253 29.9082 64.9471 30.3063 64.6663C30.708 64.3926 31.0102 64.3232 31.0298 64.3179C31.0298 64.3179 30.8467 64.1366 30.5356 63.9979C30.2246 63.8557 29.8033 63.7633 29.2451 63.9233C29.1261 63.9553 28.8576 64.0477 28.5093 64.309C28.1662 64.5739 27.7289 65.0005 27.2757 65.715C26.7655 66.5291 26.2198 66.8775 25.7523 66.9788C25.2848 67.0819 24.908 66.9362 24.7676 66.8526C24.7676 66.8509 24.9613 67.0997 25.3257 67.3521L25.3275 67.3539Z" fill="#EBA135"/>
<path d="M22.3488 64.572C22.5568 64.915 22.8519 65.2492 23.2145 65.5069L23.234 65.5194L23.2376 65.5229C23.3034 65.5691 23.3762 65.6011 23.4616 65.6402C23.5487 65.6758 23.6446 65.7042 23.7495 65.7309C23.9646 65.7753 24.2117 65.7949 24.4659 65.7647C24.9778 65.7113 25.5128 65.4643 25.9483 65.0199C26.2949 64.6679 26.6184 64.4138 26.9046 64.2129C27.1926 64.0191 27.4468 63.884 27.6601 63.7898C28.0831 63.5996 28.3657 63.5819 28.3835 63.5819C28.3835 63.5819 28.2609 63.3739 28.0369 63.1873C27.9249 63.0948 27.7898 63.0095 27.6298 62.9526C27.4645 62.8975 27.2797 62.8762 27.0468 62.8975C26.9437 62.9046 26.7215 62.9473 26.3447 63.0895C26.2523 63.1233 26.1456 63.1642 26.0265 63.2139L25.6497 63.3775C25.3706 63.4966 25.0311 63.6316 24.6365 63.8023C24.1921 63.9996 23.7886 64.0654 23.4349 64.0334C23.0812 63.9978 22.7808 63.8592 22.555 63.6707C22.3257 63.4859 22.1711 63.2495 22.0769 63.038C21.9844 62.8264 21.9507 62.6433 21.9418 62.5349C21.9418 62.5349 21.9187 62.6345 21.908 62.8122C21.8973 62.9917 21.9009 63.2513 21.9613 63.5588C22.02 63.8698 22.1426 64.2218 22.3524 64.5702L22.3488 64.572Z" fill="#EBA135"/>
<path d="M22.4603 60.7147C22.4994 60.9511 22.5829 61.2124 22.7269 61.4471C22.8673 61.687 23.0628 61.9003 23.3046 62.055C23.5428 62.2185 23.8272 62.3234 24.1365 62.3678C24.6271 62.4371 25.0359 62.5154 25.3754 62.5545C25.7113 62.5989 25.9744 62.6113 26.1699 62.6025C26.3672 62.5953 26.4988 62.574 26.5788 62.5598C26.6623 62.542 26.6943 62.5367 26.7014 62.5367C26.7014 62.5367 26.7938 62.4087 26.8454 62.3465C26.8667 62.3109 26.8792 62.2896 26.8347 62.2701C26.7974 62.2487 26.7121 62.231 26.5574 62.1599C26.4952 62.1225 26.3264 62.055 26.0135 61.8292C25.9371 61.7759 25.8518 61.7101 25.7558 61.6319C25.6633 61.5502 25.5638 61.4542 25.4483 61.3529C25.2279 61.1467 24.9559 60.9031 24.6182 60.6454C24.236 60.3503 23.9765 60.0499 23.813 59.7566C23.6512 59.4687 23.5908 59.1878 23.5836 58.9443C23.5677 58.4537 23.7721 58.1213 23.8698 58.0076C23.8698 58.0076 23.605 58.1373 23.2832 58.4626C23.1233 58.6279 22.9473 58.843 22.7927 59.1167C22.6416 59.3869 22.51 59.7211 22.4514 60.1015L22.4496 60.121L22.4478 60.1264H22.4496C22.4407 60.1886 22.4336 60.281 22.4336 60.3823C22.4336 60.4837 22.4407 60.5974 22.4603 60.7183V60.7147Z" fill="#EBA135"/>
<path d="M27.3138 61.417C27.3955 61.2695 27.4595 61.0811 27.52 60.7984C27.5484 60.6793 27.5768 60.4074 27.4969 59.9914C27.4151 59.5737 27.2338 59.0014 26.8267 58.2584C26.5921 57.8371 26.4677 57.4709 26.4286 57.1421C26.393 56.8132 26.441 56.5306 26.5459 56.2978C26.7485 55.8232 27.1662 55.5725 27.3529 55.4961C27.3547 55.4979 26.9636 55.5228 26.4783 55.7236C25.9948 55.9245 25.4474 56.3031 25.1203 56.8488L25.1132 56.8612L25.1114 56.8648C24.9977 57.0585 24.891 57.4585 24.9301 57.9313C24.9674 58.4041 25.1434 58.9463 25.5203 59.444C25.8153 59.835 26.0144 60.1959 26.1655 60.5034C26.3166 60.8162 26.4143 61.0793 26.489 61.2873C26.6365 61.7032 26.6845 61.8827 26.6845 61.8916C26.6863 61.8916 26.8658 61.8649 27.0454 61.7299C27.136 61.6623 27.2284 61.5628 27.312 61.4135L27.3138 61.417Z" fill="#EBA135"/>
<path d="M28.64 60.1888C28.752 60.1622 28.8586 60.1195 28.9351 60.0466C29.0133 59.9702 29.0595 59.8689 29.1004 59.7C29.1253 59.6307 29.1501 59.444 29.2657 59.0796C29.3243 58.9001 29.4132 58.6726 29.5305 58.4006C29.6514 58.1216 29.806 57.7963 29.9625 57.4034C30.1367 56.9591 30.3677 56.6284 30.6273 56.4063C30.8832 56.1805 31.1641 56.0614 31.4218 56.0081C31.6796 55.9548 31.9124 55.9654 32.0955 55.9956C32.2768 56.0312 32.4083 56.0881 32.483 56.1254C32.4794 56.129 32.2892 55.8854 31.8538 55.6241C31.6333 55.4908 31.3472 55.3575 30.9934 55.2669C30.6415 55.1798 30.2238 55.1389 29.7918 55.2011L29.7687 55.2047L29.7634 55.2064C29.6141 55.2278 29.4061 55.2953 29.1946 55.4073C28.9795 55.5228 28.7591 55.6917 28.5796 55.905C28.4018 56.113 28.2649 56.3654 28.1921 56.6427C28.1192 56.9182 28.1032 57.215 28.1565 57.5243C28.2276 58.0042 28.2578 58.4113 28.2827 58.7455C28.3058 59.0814 28.3112 59.3516 28.3058 59.5702C28.2898 59.9986 28.1992 60.2279 28.1885 60.2457C28.1885 60.2457 28.4214 60.2492 28.6418 60.1906L28.64 60.1888Z" fill="#EBA135"/>
<path d="M29.4936 59.9807C29.5309 59.9345 29.5771 59.8918 29.6429 59.8616C30.2099 59.5541 30.6774 59.2537 31.0578 58.7276C31.3564 58.3187 31.6764 57.9028 32.1367 57.6628C32.7162 57.366 33.3472 57.2451 33.9871 57.1936C33.9516 57.1793 33.916 57.1669 33.8805 57.1527L33.8645 57.1473H33.8609C33.6636 57.0851 33.2548 57.0602 32.782 57.1705C32.3074 57.2824 31.7812 57.5402 31.3617 57.9988C31.0258 58.3596 30.7094 58.6209 30.4392 58.836C30.1708 59.0493 29.9486 59.211 29.7869 59.3444C29.4634 59.6039 29.378 59.723 29.3691 59.723C29.3691 59.723 29.3798 59.7639 29.4011 59.8136C29.4171 59.8634 29.4456 59.9256 29.4936 59.9807Z" fill="#EBA135"/>
<path d="M37.4525 63.4488C38.958 62.2436 39.781 62.6151 39.973 62.752C39.973 62.752 39.877 62.5387 39.669 62.2969C39.4611 62.0534 39.1358 61.7708 38.6594 61.6215L38.6487 61.6144H38.6469C38.4799 61.5646 38.1172 61.5522 37.6729 61.6375C37.2285 61.7228 36.6935 61.9112 36.1815 62.2667C35.3763 62.832 34.66 62.9724 34.1392 62.9706C34.1196 62.9706 34.1001 62.9706 34.0805 62.9671C34.0041 63.2106 33.9187 63.4381 33.7783 63.6532C34.0147 63.8985 34.356 64.1367 34.8395 64.2647C35.1132 64.3464 36.1264 64.5206 37.4542 63.4488H37.4525Z" fill="#EBA135"/>
<path d="M37.338 66.4899C37.6207 66.5592 38.6587 66.6766 39.9012 65.5087C41.3126 64.1987 42.1498 64.4973 42.3506 64.6129C42.3506 64.6129 42.2404 64.4173 42.0182 64.1916C41.7943 63.9641 41.4565 63.7188 40.9784 63.6032L40.966 63.5997H40.9624C40.7935 63.5623 40.438 63.5766 39.999 63.6921C39.567 63.8094 39.0462 64.0281 38.5574 64.4138C37.7877 65.0217 37.0732 65.1977 36.547 65.2137C36.0209 65.2261 35.6885 65.0857 35.6689 65.0768C35.6689 65.0768 35.7472 65.3541 35.9996 65.674C36.2484 65.9922 36.6732 66.3477 37.338 66.4899Z" fill="#EBA135"/>
<path d="M42.5067 67.3646C42.8285 67.0056 43.1253 66.755 43.3884 66.5772C43.5199 66.4883 43.6479 66.4172 43.7634 66.3639C43.8239 66.3372 43.8683 66.3035 43.9163 66.2821C43.9643 66.2572 44.0087 66.2324 44.0496 66.2146C44.382 66.0564 44.5687 66.0635 44.6415 66.0902C44.6415 66.0866 44.5562 65.9462 44.4033 65.8058C44.3642 65.772 44.3234 65.7382 44.2718 65.7044L44.2309 65.6813L44.1723 65.6422C44.1296 65.6173 44.0852 65.5942 44.0407 65.5747C43.8594 65.484 43.6515 65.4111 43.4097 65.3774L43.3973 65.3756L43.3955 65.3738C43.2213 65.3543 42.8729 65.3969 42.4516 65.5516C42.0268 65.7062 41.5309 65.964 41.0723 66.3923C40.3577 67.0589 39.6574 67.29 39.1294 67.3398C38.6033 67.3895 38.2567 67.2687 38.2354 67.2615C38.2354 67.2615 38.3367 67.5371 38.6157 67.8392C38.8948 68.1361 39.3534 68.4685 40.0324 68.5574C40.1782 68.5805 40.5124 68.6018 40.955 68.4578C41.3922 68.3138 41.9379 68.001 42.505 67.3682L42.5067 67.3646Z" fill="#EBA135"/>
<path d="M46.3179 66.8756C46.6023 66.5983 46.8618 66.5468 46.9738 66.5468C46.9738 66.5468 46.7765 66.4348 46.4992 66.3637C46.3605 66.3282 46.2041 66.3015 46.037 66.2979C45.87 66.2962 45.6975 66.321 45.5109 66.3886L45.4985 66.3904C45.3651 66.4401 45.1252 66.6214 44.8177 66.9023C44.5119 67.1885 44.1244 67.5706 43.7654 68.0772C43.4899 68.479 43.1735 68.7634 42.8517 68.95C42.6882 69.0442 42.5264 69.1118 42.3647 69.1597C42.2083 69.2095 42.0447 69.2308 41.9061 69.2504C41.3835 69.3464 41.0262 69.254 41.0049 69.2468C41.0049 69.2468 41.1329 69.5135 41.4386 69.7872L41.499 69.8423L41.531 69.869L41.5737 69.9027C41.6306 69.9454 41.6946 69.9845 41.7586 70.0272C41.8919 70.1089 42.0376 70.1854 42.2029 70.2511C42.53 70.3809 42.9175 70.4627 43.3317 70.4431C43.5112 70.4396 43.9147 70.3933 44.3271 70.1196C44.7377 69.8494 45.1429 69.3588 45.406 68.5554C45.71 67.6453 46.0335 67.1476 46.3197 66.8721L46.3179 66.8756Z" fill="#EBA135"/>
<path d="M49.5128 67.0837C49.8683 66.8082 50.2131 66.778 50.3518 66.7904C50.3518 66.7922 50.1118 66.6589 49.735 66.5718C49.3581 66.4901 48.848 66.4563 48.345 66.6394L48.3307 66.6465H48.329C48.1512 66.7158 47.8526 66.9327 47.5717 67.281C47.2891 67.6365 47.0154 68.1165 46.8572 68.7173C46.6172 69.6611 46.1426 70.2228 45.6787 70.525C45.2112 70.829 44.7739 70.8663 44.749 70.8681C44.7473 70.8645 45.0228 71.0778 45.4796 71.2111C45.9364 71.3427 46.5514 71.38 47.1593 71.0956C47.2944 71.0369 47.5735 70.8823 47.8561 70.5286C48.1405 70.1784 48.4285 69.638 48.6063 68.8115C48.8071 67.8765 49.1591 67.3557 49.5128 67.0855V67.0837Z" fill="#EBA135"/>
<path d="M53.5919 67.0553C53.5919 67.0553 53.3377 66.9469 52.9555 66.9042C52.5716 66.8616 52.0596 66.8811 51.5779 67.114L51.5673 67.1229H51.5637C51.3949 67.2082 51.1229 67.4553 50.8811 67.8339C50.6358 68.2125 50.4154 68.7209 50.3266 69.3359C50.1879 70.2975 49.7773 70.9054 49.3454 71.2556C48.917 71.6058 48.4868 71.6893 48.4619 71.6911C48.4584 71.6893 48.757 71.876 49.2245 71.9542C49.6884 72.0395 50.307 72.0128 50.8794 71.668C51.0056 71.5951 51.2704 71.4067 51.5122 71.0281C51.7557 70.653 51.9868 70.0842 52.0756 69.2434C52.1698 68.2925 52.4667 67.7414 52.7902 67.4322C53.1119 67.1246 53.4514 67.0571 53.5919 67.0553Z" fill="#EBA135"/>
<path d="M2.66194 37.6693C3.49738 37.7386 4.02175 38.0639 4.35947 38.407C4.69365 38.7465 4.83763 39.1144 4.88207 39.2708C4.88207 39.2708 4.89451 38.9669 4.84296 38.5172C4.78963 38.0692 4.67587 37.4791 4.40924 36.8818L4.40391 36.8658L4.40214 36.8605V36.8623C4.30437 36.6508 4.05729 36.3042 3.70535 35.9735C3.35517 35.6429 2.89835 35.3247 2.3651 35.2003C1.52611 35.0083 0.973301 34.436 0.649792 33.8956C0.322729 33.3588 0.22141 32.8558 0.216077 32.8291C0.219632 32.8291 0.0845389 33.1935 0.0418784 33.7747C-0.00433706 34.3578 0.0454342 35.1665 0.400938 35.9984C0.475594 36.1833 0.664011 36.5743 1.0284 36.9281C1.38746 37.2871 1.92249 37.6089 2.66194 37.6675V37.6693Z" fill="#EBA135"/>
<path d="M0.90008 32.9321C1.23603 33.3125 1.74618 33.6662 2.47852 33.7764C3.3104 33.8973 3.81166 34.2599 4.12272 34.6225C4.43379 34.9851 4.55466 35.3602 4.59021 35.5184C4.59021 35.5184 4.6222 35.2162 4.5991 34.7665C4.57954 34.3132 4.50311 33.7177 4.27737 33.1027L4.27203 33.0885L4.27026 33.0849C4.19027 32.8716 3.96452 32.5072 3.63568 32.1553C3.30506 31.7998 2.87313 31.4567 2.34698 31.2968C1.52221 31.0497 1.01029 30.4436 0.724107 29.8854C0.437927 29.3237 0.368603 28.8225 0.365048 28.7922C0.368603 28.7922 0.210403 29.1442 0.125082 29.7254C0.0433158 30.3067 0.0379854 31.1137 0.338386 31.9687C0.400599 32.1571 0.564131 32.5552 0.901859 32.9339L0.90008 32.9321Z" fill="#EBA135"/>
<path d="M3.91881 42.1522C4.75247 42.0935 5.32305 42.3371 5.70877 42.6268C6.09094 42.9148 6.2918 43.256 6.35934 43.4036C6.35934 43.4036 6.32557 43.0996 6.2047 42.6659C6.08561 42.2286 5.87941 41.6652 5.52569 41.1124L5.5168 41.0928H5.51502C5.38526 40.899 5.09019 40.5951 4.69203 40.3214C4.29386 40.0458 3.7926 39.8005 3.24513 39.7579C2.38659 39.6921 1.75379 39.2086 1.35207 38.7216C0.946797 38.2345 0.770822 37.76 0.760157 37.7297C0.760157 37.7297 0.685502 38.1101 0.72994 38.6914C0.774378 39.2744 0.946797 40.0689 1.42673 40.8386C1.52805 41.0075 1.7769 41.3648 2.18928 41.6669C2.60167 41.9656 3.17936 42.2002 3.91881 42.1522Z" fill="#EBA135"/>
<path d="M5.50647 46.0628C6.32235 45.8815 6.92315 46.0379 7.35153 46.2637C7.77103 46.493 8.02166 46.7969 8.11409 46.9338C8.11409 46.9338 8.0341 46.6405 7.84746 46.2263C7.65904 45.8157 7.37109 45.286 6.93382 44.7954L6.92315 44.7794L6.9196 44.7776C6.76317 44.6034 6.42189 44.3457 5.98818 44.1395C5.54913 43.9262 5.01943 43.7573 4.47195 43.7947C3.61163 43.8604 2.90951 43.4765 2.44025 43.0534C1.96565 42.634 1.71502 42.1878 1.70258 42.1611C1.70258 42.1611 1.68836 42.5469 1.82345 43.1192C1.95676 43.6898 2.24828 44.4435 2.84375 45.1367C2.96995 45.2896 3.27035 45.6042 3.72539 45.837C4.18044 46.0735 4.78479 46.2192 5.50824 46.0592L5.50647 46.0628Z" fill="#EBA135"/>
<path d="M7.89639 49.9929C8.67672 49.6907 9.2953 49.7582 9.74679 49.9182C10.1983 50.08 10.4933 50.3448 10.6036 50.4692C10.6053 50.4692 10.4809 50.1884 10.2338 49.8098C9.98675 49.4294 9.61881 48.9477 9.11221 48.5264L9.09977 48.514C8.91668 48.3664 8.53807 48.162 8.07592 48.0163C7.61376 47.8741 7.05918 47.7852 6.52237 47.9078C5.68338 48.098 4.93326 47.8243 4.40179 47.4777C3.86853 47.1346 3.55569 46.7311 3.53613 46.708C3.53613 46.708 3.58057 47.0902 3.7992 47.6341C4.01962 48.1762 4.42667 48.8819 5.1199 49.4756C5.26744 49.6071 5.61405 49.8773 6.09754 50.0391C6.5828 50.2044 7.20316 50.2595 7.89461 49.9929H7.89639Z" fill="#EBA135"/>
<path d="M10.8591 53.5231C11.5862 53.1125 12.2083 53.0876 12.6829 53.1783C13.1557 53.2743 13.4863 53.4911 13.6143 53.5942C13.6161 53.5942 13.4508 53.3383 13.1468 52.9987C12.8464 52.6575 12.4091 52.238 11.8421 51.8967L11.8314 51.886L11.8261 51.8825C11.6253 51.7634 11.2218 51.6176 10.7418 51.5447C10.2619 51.4719 9.70198 51.4665 9.19183 51.6638C8.38839 51.9767 7.60806 51.8185 7.02681 51.5572C6.44734 51.2941 6.07406 50.9422 6.05273 50.9226C6.05273 50.9226 6.15761 51.2941 6.45623 51.8007C6.75841 52.3002 7.26678 52.9401 8.04178 53.4254C8.20886 53.5284 8.59103 53.7453 9.09585 53.8342C9.60066 53.9266 10.221 53.8875 10.8627 53.5213L10.8591 53.5231Z" fill="#EBA135"/>
<path d="M14.3253 56.5804C14.9794 56.0667 15.5926 55.9476 16.0743 55.9654C16.556 55.9903 16.9151 56.1556 17.0573 56.2427C17.0591 56.2427 16.8547 56.008 16.5045 55.7183C16.1543 55.4286 15.6602 55.0766 15.0487 54.8224L15.0327 54.8153H15.0292C14.8123 54.7247 14.391 54.6429 13.9058 54.6411C13.4187 54.6358 12.8659 54.7158 12.3895 54.986C11.6448 55.4161 10.8484 55.3752 10.2352 55.201C9.62194 55.0268 9.19889 54.7353 9.17578 54.7158C9.17756 54.7158 9.33398 55.0731 9.70904 55.5245C10.0841 55.9796 10.6831 56.5324 11.5257 56.9003C11.7052 56.9821 12.1158 57.1385 12.6277 57.1492C13.1397 57.167 13.7493 57.0354 14.327 56.5822L14.3253 56.5804Z" fill="#EBA135"/>
<path d="M13.9655 58.3277C13.331 58.2477 12.8706 58.0202 12.8457 58.006C12.8457 58.006 13.0555 58.333 13.4963 58.7259C13.9353 59.1187 14.6108 59.5808 15.4978 59.8155C15.6897 59.8706 16.1217 59.963 16.63 59.9026C17.1366 59.8421 17.7214 59.6235 18.2209 59.0831C18.7915 58.4823 19.3763 58.2726 19.8562 58.2228C20.3362 58.173 20.7166 58.2868 20.8694 58.349C20.8694 58.349 20.6366 58.1517 20.2437 57.9153C19.8527 57.6824 19.3088 57.4069 18.6671 57.2434L18.6493 57.2363H18.6475C18.4182 57.1847 17.9881 57.1616 17.5081 57.2327C17.0246 57.3021 16.4914 57.462 16.0648 57.8015C15.3911 58.3348 14.5966 58.4112 13.9655 58.3295V58.3277Z" fill="#EBA135"/>
<path d="M17.7281 61.3298C18.2205 61.6569 18.9617 62.0088 19.8753 62.1084C20.0726 62.1351 20.5117 62.1635 21.0041 62.0266C21.1356 61.9911 21.2725 61.9324 21.4058 61.8684C21.4022 61.3974 21.4058 60.9299 21.4609 60.4606C21.5196 59.9825 21.7471 59.5719 21.9497 59.1453C21.7951 59.1719 21.6386 59.2039 21.4662 59.259C21.0023 59.3977 20.4975 59.6359 20.1242 60.034C19.5447 60.6597 18.7679 60.857 18.1316 60.8677C17.4935 60.8819 17.0011 60.7273 16.9727 60.7166C16.9727 60.7166 17.2304 61.0081 17.7263 61.3316L17.7281 61.3298Z" fill="#EBA135"/>
<path d="M46.2107 57.8494C46.2107 57.8494 45.9086 57.9116 45.4802 58.0698C45.1567 58.1906 44.7585 58.3648 44.3604 58.6155C44.9363 59.2376 45.0945 60.2988 45.162 61.0684C45.1656 61.1147 45.1691 61.1662 45.1727 61.2124C45.2171 60.9511 45.2296 60.6685 45.1745 60.3628C45.0394 59.5504 45.2331 58.9674 45.4891 58.5621C45.7433 58.1586 46.0668 57.9294 46.2107 57.8494Z" fill="#EBA135"/>
<path d="M49.9342 55.6011C49.9342 55.6011 49.6445 55.7042 49.2463 55.9246C48.8446 56.1485 48.338 56.4809 47.8812 56.9573L47.8688 56.9698L47.8652 56.9715H47.8688C47.7088 57.1422 47.4795 57.4995 47.3053 57.9456C47.1329 58.3953 47.012 58.9304 47.1027 59.4672C47.2502 60.3026 46.932 61.0243 46.5498 61.5291C46.1695 62.0339 45.7429 62.3201 45.7198 62.3343C45.7162 62.3343 46.109 62.313 46.6743 62.1263C47.236 61.9415 47.9736 61.5824 48.6171 60.9354H48.6153C48.7575 60.7968 49.049 60.4733 49.2428 60.0058C49.4365 59.5383 49.529 58.9304 49.2979 58.2407C49.0384 57.4532 49.1397 56.8507 49.3317 56.4098C49.5201 55.9761 49.8063 55.7024 49.936 55.6011H49.9342Z" fill="#EBA135"/>
<path d="M50.1346 60.1052C50.1346 60.1052 50.5185 60.0252 51.0482 59.7568C51.5762 59.4919 52.2534 59.0298 52.7849 58.2939C52.9057 58.1339 53.1422 57.7731 53.263 57.2825C53.3857 56.7919 53.3803 56.1751 53.0462 55.5245C52.6711 54.7868 52.68 54.1754 52.7991 53.7132C52.9217 53.2564 53.1617 52.9436 53.2737 52.8245C53.2737 52.8245 53.0017 52.9702 52.6444 53.2493C52.2783 53.5266 51.8286 53.9336 51.4482 54.4687L51.4411 54.4847H51.4375C51.306 54.6784 51.1353 55.0677 51.0322 55.5334C50.9291 56.0044 50.8936 56.5519 51.0625 57.0674C51.3362 57.8744 51.13 58.6316 50.8314 59.188C50.5345 59.7426 50.1541 60.0892 50.1328 60.107L50.1346 60.1052Z" fill="#EBA135"/>
<path d="M56.8152 53.9924C56.8615 53.4893 56.7655 52.8796 56.3371 52.2877C55.8536 51.6123 55.7647 51.0079 55.8163 50.5333C55.8678 50.0605 56.0562 49.7174 56.1505 49.5806C56.1505 49.5806 55.9069 49.7672 55.5905 50.0925C55.2741 50.4249 54.8902 50.8888 54.5987 51.4754L54.588 51.4914V51.495C54.4867 51.7065 54.3765 52.1118 54.3463 52.5935C54.316 53.0698 54.3658 53.6173 54.6111 54.1008C55.0057 54.858 54.9169 55.6384 54.7035 56.2338C54.4956 56.8275 54.1738 57.2239 54.1543 57.247C54.1543 57.247 54.5222 57.1119 55.004 56.7689C55.4839 56.424 56.0811 55.8694 56.4953 55.0624V55.0642C56.5913 54.89 56.769 54.4972 56.8117 53.9924H56.8152Z" fill="#EBA135"/>
<path d="M59.1001 48.6011C58.5153 48.0074 58.3393 47.4209 58.318 46.9463C58.2949 46.4717 58.4282 46.1019 58.4993 45.9526C58.4993 45.9526 58.286 46.1748 58.0265 46.5428C57.7652 46.9125 57.4541 47.4351 57.2532 48.0572L57.2497 48.0732L57.2479 48.0768C57.1804 48.299 57.1359 48.7149 57.1768 49.1948C57.2195 49.673 57.351 50.2062 57.671 50.6471C58.174 51.3367 58.2078 52.1224 58.0887 52.741C57.9696 53.3578 57.7136 53.8004 57.6994 53.8253C57.6994 53.8253 58.0425 53.6368 58.4655 53.2262C58.8886 52.8174 59.3934 52.1775 59.6831 51.3207H59.6796C59.7471 51.1341 59.868 50.7182 59.8306 50.2116C59.8004 49.7085 59.612 49.122 59.0983 48.5994L59.1001 48.6011Z" fill="#EBA135"/>
<path d="M61.2639 44.5429C60.5973 44.0452 60.3324 43.4888 60.2365 43.0249C60.1405 42.5592 60.2169 42.1752 60.2667 42.0188C60.2667 42.0188 60.0889 42.2659 59.8881 42.6747C59.689 43.0818 59.4632 43.6363 59.3601 44.2851L59.3566 44.2994V44.3029C59.3246 44.5304 59.3441 44.9535 59.4579 45.4227C59.5734 45.8831 59.7868 46.3986 60.1689 46.7861C60.7715 47.394 60.9226 48.1637 60.9013 48.7947C60.8781 49.4204 60.6933 49.895 60.6808 49.9199C60.6773 49.9199 60.9901 49.687 61.3492 49.216C61.7047 48.7503 62.1064 48.041 62.2611 47.1487V47.1505C62.2966 46.9567 62.3517 46.5266 62.2415 46.036C62.1295 45.5418 61.854 44.9908 61.2639 44.5447V44.5429Z" fill="#EBA135"/>
<path d="M62.7817 40.2146C62.0476 39.8217 61.6974 39.3134 61.5303 38.8654C61.365 38.421 61.381 38.0282 61.4041 37.8665C61.4041 37.8665 61.269 38.1402 61.1339 38.5686C60.9953 39.0023 60.8602 39.5835 60.8584 40.2394V40.2554V40.2608C60.862 40.4919 60.9437 40.906 61.1304 41.3468C61.3188 41.7894 61.605 42.2623 62.0422 42.5875C62.7319 43.0977 63.0021 43.8389 63.075 44.4646C63.1532 45.0903 63.0359 45.588 63.0323 45.6147C63.0323 45.6147 63.3043 45.3356 63.5869 44.8148C63.866 44.2993 64.1539 43.5403 64.1699 42.6355C64.1735 42.4365 64.1628 42.0063 63.9779 41.5353C63.7931 41.0642 63.4322 40.5612 62.7835 40.2128L62.7817 40.2146Z" fill="#EBA135"/>
<path d="M65.3546 37.8968C65.3333 37.6995 65.2515 37.2747 64.9956 36.8392C64.7432 36.4002 64.3112 35.954 63.6144 35.7069C62.827 35.4243 62.4039 34.9728 62.1711 34.5569C61.9382 34.1409 61.8956 33.7517 61.8956 33.5881C61.892 33.5881 61.7996 33.8779 61.732 34.3258C61.6645 34.772 61.6165 35.3763 61.716 36.018L61.7196 36.0376V36.0393C61.7569 36.2669 61.9044 36.6668 62.1569 37.0756C62.4075 37.4827 62.7665 37.9075 63.2483 38.167C64.009 38.5687 64.3894 39.2602 64.5583 39.8663C64.7289 40.4742 64.6969 40.9808 64.6916 41.0093C64.6916 41.0093 64.9173 40.6929 65.1129 40.1365C65.3137 39.5855 65.479 38.7892 65.3528 37.8968H65.3546Z" fill="#EBA135"/>
<path d="M65.8026 33.0371C65.7492 32.8469 65.6053 32.4363 65.2853 32.0417C64.9671 31.6471 64.4748 31.2703 63.7477 31.1298C62.9265 30.9681 62.4413 30.5824 62.148 30.2055C61.8565 29.8269 61.7569 29.4483 61.7285 29.2883C61.7285 29.2883 61.6787 29.5887 61.6787 30.0402C61.6787 30.4917 61.7232 31.0907 61.9187 31.7164L61.9222 31.7324L61.924 31.736C61.9951 31.9564 62.2013 32.3261 62.5141 32.6976C62.8252 33.0638 63.2412 33.4299 63.7602 33.6148C64.5743 33.8974 65.056 34.5267 65.3137 35.0955C65.5768 35.6696 65.6195 36.178 65.623 36.2047C65.623 36.2064 65.7954 35.8598 65.9039 35.2821C66.0159 34.7098 66.0585 33.901 65.8008 33.0371H65.8026Z" fill="#EBA135"/>
<path d="M63.1888 26.5811C62.3516 26.5402 61.8112 26.2344 61.4646 25.9056C61.1215 25.5768 60.9598 25.2141 60.9082 25.0613C60.9082 25.0613 60.9047 25.367 60.9775 25.8096C61.0433 26.2576 61.182 26.8406 61.4699 27.4307L61.4788 27.4432L61.4806 27.4467C61.5855 27.6547 61.845 27.9942 62.2094 28.3088C62.5702 28.6234 63.0377 28.9274 63.5816 29.0323C64.4277 29.1922 64.9983 29.7433 65.3396 30.273C65.6862 30.7973 65.8071 31.2933 65.8142 31.3217C65.8124 31.3217 65.9315 30.9573 65.9528 30.3672C65.9759 29.7841 65.8995 28.9789 65.5102 28.1577C65.4302 27.9782 65.224 27.596 64.849 27.253C64.4739 26.9046 63.93 26.6077 63.1888 26.5757V26.5811Z" fill="#EBA135"/>
<path d="M61.9356 22.1676C61.1002 22.2547 60.5225 22.0308 60.1279 21.7588C59.7333 21.4851 59.5182 21.1509 59.4453 21.0051C59.4453 21.0051 59.4915 21.3073 59.6302 21.7392C59.7671 22.1694 59.9928 22.7258 60.3678 23.2626L60.3785 23.2821C60.5136 23.4705 60.8247 23.7656 61.2317 24.0269C61.6406 24.2847 62.1507 24.5104 62.6999 24.5353C63.5603 24.5708 64.2108 25.0294 64.6286 25.5005C65.0516 25.9715 65.2471 26.4443 65.2596 26.4728C65.2596 26.4728 65.3182 26.0906 65.2507 25.5058C65.1814 24.9246 64.9841 24.1371 64.4721 23.387C64.3655 23.2199 64.1042 22.8733 63.6794 22.5889C63.2563 22.3027 62.6715 22.0912 61.9356 22.1676Z" fill="#EBA135"/>
<path d="M60.014 17.9957C59.207 18.2072 58.5973 18.0703 58.1671 17.857C57.7334 17.6437 57.4739 17.354 57.3779 17.2153C57.3779 17.2153 57.4704 17.5086 57.6712 17.9157C57.8721 18.3174 58.1814 18.8382 58.6382 19.3164L58.6489 19.327L58.6506 19.3306C58.8124 19.4959 59.1626 19.7394 59.6087 19.9385C60.0513 20.1305 60.5899 20.278 61.1374 20.2211C61.9941 20.1269 62.7069 20.4806 63.194 20.8859C63.6846 21.2876 63.9494 21.7267 63.9654 21.7516C63.9619 21.7516 63.9654 21.3658 63.8072 20.7988C63.6526 20.2318 63.3291 19.4888 62.7123 18.8204V18.8222C62.5807 18.6747 62.2679 18.3654 61.804 18.1485C61.3436 17.9317 60.7303 17.8072 60.014 17.9974V17.9957Z" fill="#EBA135"/>
<path d="M57.4787 14.1545C56.7108 14.4816 56.0904 14.4407 55.6283 14.2967C55.1697 14.1492 54.8693 13.895 54.752 13.7759C54.752 13.7759 54.8835 14.0532 55.1466 14.4211C55.4096 14.7891 55.7918 15.2601 56.318 15.6636L56.3304 15.6743L56.3322 15.6796C56.517 15.8182 56.9028 16.0067 57.3702 16.1346C57.8377 16.2626 58.3941 16.3266 58.9273 16.1915C59.7575 15.9658 60.5182 16.2111 61.0639 16.5399C61.6096 16.8617 61.9385 17.2545 61.958 17.2776C61.9545 17.2811 61.9011 16.8972 61.6576 16.3622C61.4159 15.8254 60.9857 15.1375 60.2712 14.5687C60.1183 14.4407 59.7628 14.1865 59.2704 14.0425C58.7834 13.895 58.1577 13.8612 57.4787 14.1545Z" fill="#EBA135"/>
<path d="M54.3842 10.7362C53.675 11.1717 53.0547 11.2233 52.5765 11.1468C52.1019 11.0722 51.7642 10.8624 51.6309 10.7682C51.6309 10.7682 51.8051 11.0206 52.1197 11.3441C52.4379 11.673 52.8876 12.0747 53.4653 12.3982L53.4777 12.4071H53.483C53.691 12.5226 54.0981 12.6524 54.5815 12.7093C55.0633 12.7644 55.6214 12.7484 56.1262 12.5315C56.9136 12.1885 57.7029 12.32 58.293 12.5582C58.8796 12.7999 59.2653 13.1412 59.2866 13.159C59.2866 13.159 59.1711 12.7875 58.8494 12.2951C58.5312 11.8045 57.9997 11.1824 57.2069 10.7309C57.0345 10.626 56.6452 10.4252 56.1387 10.3558C55.6338 10.2865 55.0082 10.3434 54.3842 10.7345V10.7362Z" fill="#EBA135"/>
<path d="M49.0796 8.48074C48.5961 8.47718 48.2299 8.32431 48.0859 8.24433C48.0859 8.24433 48.2975 8.46474 48.6583 8.74203C49.0209 9.0211 49.5257 9.35705 50.1496 9.58813L50.1674 9.59346H50.1692C50.3896 9.67345 50.8144 9.74455 51.2997 9.73033C51.7885 9.71433 52.336 9.61657 52.7999 9.33039C53.5287 8.87357 54.3304 8.88246 54.9489 9.0371C55.5675 9.18819 56.003 9.46371 56.0261 9.48148C56.0261 9.48148 55.8519 9.13308 55.4609 8.69048C55.0698 8.25144 54.4512 7.71996 53.598 7.38756C53.4132 7.31113 52.9954 7.16893 52.4835 7.17604C51.9698 7.17959 51.3672 7.3289 50.8073 7.80706C50.171 8.34742 49.5666 8.48785 49.0831 8.48074H49.0796Z" fill="#EBA135"/>
<path d="M45.2177 6.37062C44.7396 6.43817 44.3556 6.33863 44.1992 6.28175C44.1992 6.28175 44.4427 6.47194 44.8409 6.69057C45.2408 6.91099 45.7954 7.16517 46.4424 7.30204L46.4602 7.30737H46.4638C46.6931 7.35181 47.1232 7.35892 47.6014 7.27182C48.0795 7.18472 48.6075 7.00342 49.0252 6.65147C49.674 6.09155 50.4668 5.98846 51.1013 6.04534C51.7341 6.10222 52.2069 6.31196 52.2336 6.3244C52.2336 6.32796 52.0096 6.00623 51.5546 5.63117C51.1031 5.25256 50.4081 4.81885 49.514 4.61443C49.3203 4.56644 48.8883 4.49001 48.3835 4.57533C47.8769 4.65176 47.301 4.89173 46.8193 5.44453C46.2736 6.072 45.6977 6.3013 45.2195 6.37062H45.2177Z" fill="#EBA135"/>
<path d="M42.5156 3.70628C42.0712 4.4084 41.5362 4.71947 41.074 4.85811C40.6136 4.99498 40.219 4.95766 40.0537 4.92566C40.0537 4.92566 40.3239 5.0732 40.7505 5.2314C41.1807 5.38959 41.7672 5.56023 42.4285 5.59934H42.4462H42.448C42.6827 5.60823 43.111 5.55135 43.5696 5.39493C44.0265 5.23673 44.5206 4.98076 44.8779 4.5666C45.4343 3.92136 46.2021 3.69917 46.8385 3.66185C47.4766 3.62096 47.9708 3.76139 48.001 3.77027C48.001 3.77027 47.7344 3.4912 47.226 3.18369C46.7194 2.87796 45.9657 2.55445 45.0503 2.48335C44.853 2.4638 44.414 2.44958 43.9251 2.60778C43.4363 2.76242 42.9031 3.08415 42.5156 3.70451V3.70628Z" fill="#EBA135"/>
<path d="M37.9932 2.62919C37.6626 3.38996 37.1845 3.77746 36.749 3.98543C36.3153 4.18985 35.9171 4.2094 35.75 4.20584C35.75 4.20584 36.038 4.31072 36.4877 4.40848C36.9356 4.49558 37.5417 4.57912 38.2012 4.51691H38.219H38.2225C38.4554 4.49025 38.8678 4.36938 39.2979 4.14541C39.7263 3.92144 40.1742 3.59438 40.4658 3.13222C40.9155 2.407 41.6389 2.0746 42.2628 1.94306C42.8885 1.80797 43.4004 1.87374 43.4289 1.87729C43.4289 1.87729 43.1196 1.64089 42.5703 1.41336C42.0229 1.1894 41.2301 0.976093 40.3129 1.04897C40.112 1.06141 39.6783 1.11296 39.2179 1.34048C38.7611 1.56623 38.2847 1.96617 37.9932 2.63274V2.62919Z" fill="#EBA135"/>
<path d="M32.335 3.75954C31.9351 4.02617 31.544 4.10616 31.377 4.12216C31.377 4.12216 31.6827 4.18792 32.1413 4.21459C32.5963 4.24125 33.2114 4.22703 33.8548 4.07061L33.8726 4.06528H33.8761C34.1037 4.00662 34.4912 3.82531 34.884 3.54091C35.2733 3.25473 35.6697 2.86545 35.8847 2.36419C36.2171 1.58208 36.8819 1.14481 37.4774 0.922621C38.0729 0.698654 38.5901 0.682658 38.6186 0.682658C38.6186 0.682658 38.2773 0.494239 37.6978 0.35026C37.1219 0.206281 36.306 0.120962 35.4119 0.327154C35.2182 0.368037 34.7933 0.485353 34.3774 0.776866C33.9579 1.06838 33.5491 1.53231 33.3642 2.23799C33.1545 3.03787 32.7385 3.49469 32.3386 3.75954H32.335Z" fill="#EBA135"/>
<path d="M28.7168 2.53127C28.6279 3.35426 28.2866 3.86441 27.9329 4.18614C27.5809 4.5132 27.2059 4.64474 27.0459 4.68562C27.0459 4.6874 27.3534 4.70518 27.812 4.66252C28.2671 4.61986 28.8679 4.52209 29.4829 4.26968L29.4989 4.26435L29.5007 4.26258C29.7157 4.17014 30.073 3.93373 30.4161 3.59601C30.7574 3.2565 31.0898 2.81212 31.2284 2.28597C31.4399 1.46298 32.0301 0.93328 32.5864 0.622214C33.1392 0.312926 33.6476 0.22405 33.6778 0.21694C33.6778 0.21694 33.3117 0.0854052 32.7197 0.0267471C32.1261 -0.0265785 31.3084 0.00363836 30.4552 0.339589H30.457C30.2668 0.41069 29.8686 0.588441 29.4989 0.938613C29.1274 1.28878 28.795 1.80427 28.7185 2.53127H28.7168Z" fill="#EBA135"/>
<path d="M22.8525 5.889C22.8543 5.89078 23.16 5.86412 23.6062 5.75391C24.0506 5.64371 24.6283 5.45173 25.1971 5.11578L25.2131 5.10512V5.10334C25.4139 4.97891 25.7286 4.69451 26.0165 4.30701C26.3027 3.92129 26.5622 3.43247 26.6173 2.89566C26.6991 2.04601 27.2021 1.43632 27.7069 1.05237C28.21 0.661318 28.6952 0.497787 28.7272 0.487122C28.7272 0.487122 28.3397 0.41069 27.7478 0.440907C27.1577 0.471125 26.3454 0.625768 25.5561 1.08615C25.3819 1.18213 25.0122 1.42032 24.7012 1.81671C24.3883 2.21665 24.1359 2.78368 24.175 3.5089C24.2141 4.33367 23.9564 4.89004 23.6542 5.26332C23.3538 5.63126 23.009 5.82323 22.8543 5.88545L22.8525 5.889Z" fill="#EBA135"/>
<path d="M18.8961 7.70752C18.8961 7.70752 19.1965 7.6382 19.616 7.46222C20.0391 7.28802 20.5812 7.01429 21.0914 6.59124L21.1038 6.58235L21.1074 6.57879C21.2833 6.42771 21.5517 6.09886 21.7757 5.67226C21.9997 5.24743 22.1792 4.72662 22.1508 4.18448C22.1046 3.33482 22.5063 2.65403 22.9418 2.19899C23.379 1.74039 23.8359 1.50753 23.8625 1.49153C23.8661 1.49153 23.4732 1.46665 22.8884 1.59108C22.3072 1.71017 21.5322 1.98213 20.8194 2.55627C20.6612 2.67714 20.3341 2.9651 20.0906 3.40948C19.84 3.85208 19.68 4.44577 19.8276 5.16033C19.9946 5.97088 19.824 6.56102 19.5876 6.97162C19.3476 7.38579 19.0348 7.62398 18.8926 7.7093L18.8961 7.70752Z" fill="#EBA135"/>
<path d="M15.2578 10.0946C15.2578 10.0946 15.544 9.97907 15.935 9.74088C16.3279 9.50625 16.8203 9.1543 17.2611 8.66193L17.2717 8.65126L17.2735 8.64771C17.4282 8.47351 17.6415 8.10556 17.7997 7.65052C17.9525 7.19547 18.0538 6.65688 17.9436 6.12541C17.7659 5.29708 18.0574 4.56297 18.42 4.04393C18.7791 3.52667 19.195 3.22627 19.2199 3.2085C19.2199 3.2085 18.8288 3.24583 18.2725 3.44846C17.7197 3.65643 16.9927 4.04215 16.3741 4.71228C16.239 4.85448 15.9599 5.19221 15.7857 5.66681C15.6098 6.13785 15.5422 6.74932 15.7982 7.43366C16.0879 8.20866 16.0097 8.81479 15.8373 9.25917C15.6613 9.70355 15.3876 9.9844 15.2596 10.0928L15.2578 10.0946Z" fill="#EBA135"/>
<path d="M12.4677 12.0838C12.3646 12.5477 12.1336 12.8676 12.0251 12.9921C12.0251 12.9921 12.2918 12.8356 12.6419 12.5441C12.9903 12.2544 13.4294 11.8331 13.7849 11.2839L13.7991 11.2661C13.9235 11.0706 14.0782 10.6724 14.1653 10.2031C14.2506 9.7321 14.2648 9.18107 14.0728 8.6727C13.7689 7.87815 13.9484 7.11026 14.2239 6.54323C14.5012 5.97798 14.8656 5.61892 14.8869 5.59937C14.8869 5.60114 14.5065 5.6918 13.9875 5.97975C13.4703 6.26593 12.8144 6.75298 12.3078 7.50487C12.194 7.6684 11.97 8.04168 11.8669 8.5376C11.7674 9.03175 11.7923 9.645 12.1496 10.2849C12.5548 11.0084 12.5708 11.6216 12.466 12.0855L12.4677 12.0838Z" fill="#EBA135"/>
<path d="M9.56968 15.3703C9.53591 15.8467 9.35993 16.1968 9.27283 16.3355C9.27283 16.3355 9.51102 16.1417 9.8132 15.8022C10.1136 15.4627 10.4815 14.981 10.7517 14.3838L10.7606 14.3713L10.7624 14.366C10.8548 14.1545 10.9508 13.7403 10.9615 13.2621C10.9739 12.784 10.9064 12.2383 10.638 11.7637C10.2185 11.0207 10.2789 10.2368 10.4655 9.63423C10.654 9.03521 10.9597 8.62638 10.9793 8.60327C10.9793 8.60327 10.6149 8.75258 10.1456 9.11164C9.67811 9.47248 9.10575 10.0502 8.72003 10.8714C8.63293 11.0491 8.46406 11.4491 8.44095 11.9539C8.41429 12.4587 8.53694 13.0613 8.98665 13.639C9.4968 14.2949 9.60523 14.8975 9.57146 15.3703H9.56968Z" fill="#EBA135"/>
<path d="M7.20708 19.048C7.24796 19.5208 7.12886 19.8941 7.06132 20.0452C7.06132 20.0452 7.26573 19.8159 7.51281 19.4355C7.75811 19.0569 8.04784 18.5254 8.22559 17.8944L8.23093 17.8784V17.8766C8.28958 17.6526 8.3198 17.2313 8.25937 16.7567C8.19715 16.2821 8.04606 15.7524 7.71189 15.3241C7.18219 14.6522 7.12353 13.8629 7.21596 13.2426C7.31195 12.6222 7.55191 12.1725 7.56613 12.1494C7.56791 12.1494 7.23018 12.3467 6.81958 12.7733C6.41075 13.1999 5.93082 13.8541 5.67663 14.725C5.61797 14.9117 5.5131 15.3347 5.56642 15.836C5.6162 16.339 5.82772 16.9185 6.36276 17.4215C6.96533 17.9975 7.16441 18.5734 7.2053 19.048H7.20708Z" fill="#EBA135"/>
<path d="M4.35405 21.5544C5.03662 22.0308 5.32458 22.573 5.44012 23.0333C5.55032 23.4973 5.48989 23.883 5.44723 24.0412C5.44723 24.043 5.61431 23.7852 5.80273 23.3746C5.98759 22.9605 6.19201 22.3934 6.26666 21.7446L6.27022 21.7251V21.7233C6.29688 21.494 6.25956 21.0692 6.12624 20.6088C5.9947 20.1502 5.76363 19.6507 5.36546 19.2757C4.74333 18.6909 4.56025 17.9247 4.56025 17.2955C4.55491 16.6663 4.72555 16.1881 4.73622 16.1597C4.73622 16.1597 4.43404 16.4067 4.09631 16.8885C3.75681 17.3684 3.38353 18.0901 3.26266 18.9895C3.23244 19.1815 3.19511 19.6116 3.32487 20.0987C3.45285 20.591 3.7497 21.1314 4.35583 21.5509L4.35405 21.5544Z" fill="#EBA135"/>
<path d="M3.00196 25.936C3.75207 26.3057 4.11824 26.8016 4.3031 27.2389C4.48618 27.6815 4.48263 28.0725 4.46485 28.2361C4.46485 28.2361 4.59284 27.9588 4.71193 27.5251C4.8328 27.086 4.94656 26.4959 4.92345 25.8453V25.8293L4.92168 25.8275C4.91101 25.5947 4.81147 25.1823 4.60705 24.7468C4.4062 24.3113 4.10046 23.8527 3.64897 23.5399C2.94152 23.0564 2.64467 22.3276 2.54691 21.7073C2.44559 21.0851 2.5398 20.5856 2.54691 20.5554C2.54691 20.5554 2.29095 20.8452 2.0261 21.3749C1.76658 21.8992 1.50528 22.6707 1.52661 23.5754C1.52661 23.7727 1.55683 24.2047 1.75947 24.6686C1.96211 25.1325 2.33894 25.6231 3.00373 25.9431L3.00196 25.936Z" fill="#EBA135"/>
<path d="M0.99347 28.9009C1.26365 29.331 1.71159 29.7594 2.41904 29.9798C3.21537 30.234 3.65264 30.6677 3.89971 31.0748C4.15034 31.4836 4.20545 31.8729 4.21433 32.0364C4.21611 32.0329 4.2961 31.7396 4.34943 31.2934C4.3992 30.8419 4.42231 30.2411 4.29966 29.5941L4.2961 29.5799V29.5781C4.24989 29.3524 4.08813 28.956 3.81972 28.5578C3.54954 28.1596 3.17804 27.749 2.68567 27.5091C1.91067 27.134 1.50539 26.4586 1.3152 25.8595C1.11967 25.2605 1.13389 24.7486 1.13567 24.7219C1.13567 24.7219 0.925924 25.0454 0.746395 25.6036C0.57042 26.1635 0.435329 26.9634 0.593528 27.8557C0.623746 28.0477 0.717954 28.4743 0.99347 28.8973V28.9009Z" fill="#EBA135"/>
<path d="M8.98613 30.8063L9.02524 30.3975L9.55494 30.4473L9.41274 31.9457L8.88304 31.8959L8.92214 31.4871L6.17232 31.2276L6.13322 31.6346L5.60352 31.5849L5.74572 30.0864L6.27542 30.138L6.23631 30.545L8.98613 30.8063Z" fill="#374174"/>
<path d="M9.26399 28.8974L9.35109 28.5046L9.87013 28.6201L9.55195 30.051L9.03292 29.9355L9.12179 29.5355L6.4253 28.9347L6.33642 29.3347L5.81738 29.2191L6.07157 28.078L8.80539 27.2888L6.88745 26.8621L6.79857 27.2621L6.27954 27.1465L6.59771 25.7139L7.11675 25.8294L7.02788 26.2293L10.3163 26.9617L10.1919 27.5252L7.03143 28.3997L9.26399 28.8974Z" fill="#374174"/>
<path d="M7.79148 23.97L10.3475 25.0169L10.5217 24.5886C10.6977 24.1584 10.7226 23.7869 10.5964 23.4758C10.472 23.1648 10.1982 22.923 9.78052 22.7524C9.36103 22.5817 8.99841 22.5622 8.6909 22.6955C8.38339 22.8288 8.14165 23.1114 7.96567 23.5416L7.79148 23.97ZM7.46619 23.3603C7.73104 22.7115 8.08477 22.2813 8.52559 22.068C8.96642 21.8547 9.47479 21.8636 10.0507 22.1C10.6248 22.3347 10.9946 22.6831 11.1599 23.1452C11.3234 23.6056 11.2736 24.162 11.0088 24.809L10.4275 26.231L9.93517 26.0301L10.0898 25.6515L7.53374 24.6046L7.37909 24.9832L6.88672 24.7823L7.46797 23.3603H7.46619Z" fill="#374174"/>
<path d="M12.1393 21.2612L12.3419 20.9039L12.8041 21.167L12.0629 22.4752L11.6007 22.2139L11.8033 21.8566L9.40014 20.4951L9.1975 20.8523L8.73535 20.5893L9.47658 19.281L9.93873 19.5423L9.73609 19.8996L12.1393 21.2612Z" fill="#374174"/>
<path d="M12.2788 18.7848L12.7925 18.0863L11.4931 17.6632L12.2788 18.7831V18.7848ZM13.0307 19.8318L13.2724 19.5047L13.7008 19.8211L12.8885 20.9232L12.4601 20.6068L12.6396 20.3633L10.9883 17.9476L10.7448 18.28L10.3164 17.9636L11.4789 16.387L11.9073 16.7034L11.646 17.0589L14.4314 17.937L14.6393 17.6543L15.0677 17.9707L14.2074 19.1386L13.779 18.8222L14.0225 18.4915L13.324 18.2676L12.6112 19.2345L13.0325 19.8336L13.0307 19.8318Z" fill="#374174"/>
<path d="M15.582 16.7017L15.8682 16.4208L16.2415 16.7994L15.1945 17.825L14.8212 17.4447L15.1145 17.1585L13.1824 15.1854L12.8891 15.4716L12.5176 15.0912L13.353 14.2736L16.0744 15.1037L14.7004 13.6994L14.4071 13.9856L14.0356 13.607L15.0843 12.5796L15.4558 12.9582L15.1625 13.2462L17.5195 15.6529L17.1071 16.0582L13.9805 15.0681L15.582 16.7017Z" fill="#374174"/>
<path d="M18.5495 10.7328L19.0757 11.5931L19.5023 11.3318C19.7067 11.2074 19.8329 11.0812 19.8827 10.9586C19.9324 10.8341 19.9111 10.6973 19.8205 10.548C19.728 10.3969 19.616 10.3169 19.4827 10.3044C19.3494 10.292 19.1806 10.3471 18.9779 10.4715L18.5513 10.7328H18.5495ZM19.9911 13.0898L20.3857 12.8481L20.663 13.3013L19.3352 14.1137L19.0579 13.6604L19.4081 13.4471L17.9665 11.0919L17.6181 11.3052L17.3408 10.8519L18.6864 10.0289C19.097 9.77828 19.4365 9.66275 19.7067 9.6823C19.9769 9.70185 20.2008 9.8565 20.3786 10.1462C20.4888 10.3258 20.5332 10.5035 20.5137 10.6795C20.4941 10.8537 20.4106 11.0314 20.2631 11.2092C20.4408 11.131 20.5919 11.115 20.7181 11.1594C20.8461 11.2056 20.9634 11.3158 21.0701 11.4918L21.4878 12.1762L21.8006 11.986L22.0779 12.4392L21.1767 12.9903L20.6737 12.1708C20.5012 11.8882 20.3466 11.7336 20.208 11.7016C20.0711 11.6696 19.8862 11.7247 19.6569 11.8669L19.3548 12.0517L19.9929 13.0934L19.9911 13.0898Z" fill="#374174"/>
<path d="M22.3627 12.2952L22.1547 11.8064L22.5316 11.6464L21.4508 9.10453L21.074 9.26451L20.8643 8.77569L23.5465 7.63452L23.9536 8.59438L23.4043 8.82901L23.207 8.3633L22.0819 8.84146L22.4569 9.72133L23.399 9.32139L23.6247 9.84753L22.6809 10.2493L23.1608 11.378L24.2664 10.9087L24.0318 10.3577L24.6006 10.1159L25.0432 11.1558L22.3627 12.2952Z" fill="#374174"/>
<path d="M26.1938 10.4696L26.2755 10.7824L25.7405 10.9229L25.4117 9.66794L25.9449 9.52752C26.0853 9.77459 26.2471 9.94879 26.432 10.0466C26.6168 10.1461 26.8195 10.1674 27.0399 10.1088C27.2087 10.0643 27.3367 9.97368 27.4238 9.83681C27.5109 9.69816 27.534 9.5524 27.4931 9.39776C27.4576 9.25733 27.3758 9.15601 27.2532 9.0938C27.1305 9.03159 26.9421 8.99782 26.6897 8.99248L26.2364 8.98537C25.8738 8.98004 25.5948 8.91605 25.3992 8.7934C25.2037 8.67075 25.0704 8.47878 25.0028 8.21749C24.9246 7.91709 24.9637 7.63624 25.1237 7.3785C25.2837 7.12076 25.5219 6.95011 25.8401 6.86657C26.0107 6.82213 26.176 6.80791 26.3342 6.82213C26.4942 6.83813 26.6382 6.88257 26.7697 6.95722L26.7057 6.7137L27.2194 6.57861L27.5091 7.6789L26.9954 7.81399C26.8799 7.60957 26.7448 7.47093 26.5937 7.39627C26.4426 7.31984 26.2702 7.3074 26.08 7.35894C25.9183 7.4016 25.7992 7.47981 25.721 7.59358C25.6428 7.70734 25.6214 7.83354 25.657 7.96863C25.6872 8.08417 25.7423 8.16771 25.8258 8.21926C25.9076 8.27081 26.0356 8.29747 26.2116 8.30103L26.6933 8.31169C27.1376 8.32414 27.4665 8.39346 27.6816 8.52322C27.8949 8.65298 28.0406 8.86272 28.1153 9.15424C28.2059 9.49908 28.1739 9.80659 28.0193 10.0697C27.8646 10.3327 27.6122 10.5105 27.2656 10.6029C27.0683 10.6545 26.8799 10.6687 26.6986 10.6474C26.5173 10.6242 26.3502 10.5674 26.1938 10.4714V10.4696Z" fill="#374174"/>
<path d="M31.5517 7.28959C31.4539 7.06917 31.3153 6.90742 31.1339 6.80077C30.9526 6.69589 30.7447 6.65323 30.5065 6.67812C30.1243 6.71545 29.8292 6.86831 29.6177 7.13672C29.408 7.4069 29.3227 7.74285 29.3618 8.14457C29.4009 8.54629 29.5502 8.85736 29.8079 9.07955C30.0657 9.30174 30.3856 9.39417 30.7678 9.35684C31.006 9.33373 31.1997 9.26085 31.3526 9.13821C31.5055 9.01556 31.6281 8.83069 31.7223 8.5854L32.3835 8.51963C32.3196 8.93024 32.1489 9.26974 31.8681 9.53637C31.589 9.803 31.2424 9.95586 30.8318 9.99675C30.2594 10.0519 29.767 9.91143 29.3564 9.5737C28.9458 9.23419 28.7112 8.7827 28.6561 8.2139C28.5992 7.63442 28.7361 7.14205 29.0649 6.73678C29.3938 6.3315 29.8399 6.1022 30.4016 6.0471C30.6274 6.02577 30.8318 6.03999 31.0149 6.08976C31.1979 6.13953 31.3508 6.2213 31.4717 6.33684L31.4272 6.02044L31.9943 5.96533L32.1187 7.23626L31.5499 7.29136L31.5517 7.28959Z" fill="#374174"/>
<path d="M34.1397 8.44513C34.1184 8.74731 34.1557 8.96239 34.2517 9.09037C34.3477 9.22013 34.5166 9.29301 34.7601 9.31078C35.0018 9.32856 35.1778 9.27879 35.2898 9.16325C35.4018 9.04771 35.4693 8.83974 35.4906 8.54112L35.6257 6.6445L35.2222 6.61606L35.2596 6.08636L36.7544 6.19301L36.7171 6.72271L36.3136 6.69427L36.1839 8.51267C36.1643 8.78819 36.1341 8.99616 36.0914 9.13659C36.0506 9.27701 35.9901 9.39966 35.9084 9.50986C35.7857 9.67695 35.624 9.7996 35.4249 9.87425C35.2258 9.94891 34.9876 9.97735 34.7121 9.9578C34.4597 9.94002 34.2446 9.8867 34.0633 9.7996C33.8838 9.7125 33.7398 9.58985 33.6314 9.43343C33.5478 9.31256 33.4927 9.17036 33.4643 9.00682C33.4358 8.84152 33.4323 8.61222 33.4536 8.31893L33.5834 6.50052L33.1816 6.47208L33.219 5.94238L34.7121 6.04903L34.6748 6.57874L34.273 6.55029L34.1379 8.44691L34.1397 8.44513Z" fill="#374174"/>
<path d="M36.8848 10.0875L37.0056 9.57024L37.4038 9.66267L38.0295 6.97328L37.6295 6.87908L37.7504 6.36182L40.5873 7.0195L40.3509 8.03624L39.7697 7.90115L39.8834 7.40878L38.6943 7.13148L38.4774 8.06468L39.4764 8.29576L39.3466 8.8539L38.3494 8.62282L38.0721 9.81731L39.24 10.0893L39.3768 9.50625L39.9776 9.64489L39.7217 10.747L36.8848 10.0875Z" fill="#374174"/>
<path d="M43.8817 10.4982L44.6567 10.8839L44.8487 9.53122L43.8817 10.4982ZM42.9805 11.4207L43.3449 11.602L43.1085 12.0784L41.8838 11.4687L42.1202 10.9923L42.3922 11.1274L44.4861 9.08507L44.1164 8.9002L44.3528 8.42383L46.1054 9.29659L45.869 9.77297L45.4744 9.57566L45.0904 12.4695L45.4033 12.6259L45.1669 13.1023L43.8693 12.457L44.1057 11.9806L44.4736 12.162L44.5732 11.4349L43.4978 10.8999L42.9787 11.4189L42.9805 11.4207Z" fill="#374174"/>
<path d="M49.1829 12.8339C49.254 12.6046 49.2576 12.3896 49.19 12.1922C49.1243 11.9949 48.9945 11.8243 48.8008 11.6857C48.4897 11.4617 48.1662 11.3817 47.8302 11.4457C47.4943 11.5097 47.2099 11.7052 46.9735 12.034C46.7388 12.3611 46.6446 12.6935 46.6926 13.0312C46.7388 13.369 46.9201 13.6498 47.2312 13.8738C47.425 14.0124 47.6187 14.0871 47.8142 14.0942C48.0098 14.1031 48.2231 14.0444 48.4559 13.9236L48.9945 14.3111C48.6746 14.5777 48.3226 14.7181 47.9369 14.7341C47.5512 14.7501 47.1903 14.6363 46.8544 14.3946C46.3869 14.0586 46.1096 13.6285 46.0243 13.1023C45.9389 12.5762 46.0616 12.082 46.3958 11.6181C46.7353 11.1453 47.1619 10.8644 47.6756 10.7773C48.1893 10.6902 48.6763 10.8111 49.1349 11.1417C49.3198 11.2733 49.4638 11.419 49.5686 11.579C49.6735 11.7372 49.734 11.899 49.75 12.066L49.9259 11.7994L50.3899 12.1318L49.6451 13.1681L49.1811 12.8357L49.1829 12.8339Z" fill="#374174"/>
<path d="M50.5861 15.125L51.1994 15.7365L51.8091 14.5135L50.5844 15.125H50.5861ZM49.4396 15.7134L49.7294 15.9995L49.3543 16.3764L48.3838 15.4094L48.7588 15.0326L48.9739 15.2459L51.6064 13.9678L51.3131 13.6781L51.6882 13.3013L53.0764 14.6824L52.7014 15.0592L52.3885 14.7482L51.1105 17.3736L51.3576 17.6206L50.9825 17.9975L49.9551 16.9736L50.3302 16.5968L50.6199 16.8865L50.9452 16.2288L50.0938 15.381L49.4379 15.7098L49.4396 15.7134Z" fill="#374174"/>
<path d="M54.4178 17.1033L52.1763 18.7191L52.4465 19.0941C52.7185 19.471 53.0189 19.6896 53.3513 19.7465C53.6819 19.8052 54.0303 19.7021 54.3965 19.4372C54.7644 19.1724 54.9724 18.8737 55.0221 18.5413C55.0719 18.2089 54.9599 17.8552 54.688 17.4784L54.4178 17.1033ZM55.1057 17.1495C55.5163 17.7183 55.694 18.2463 55.6425 18.7333C55.591 19.2203 55.3137 19.6452 54.8088 20.0096C54.3058 20.3722 53.8134 20.5019 53.3353 20.3971C52.8571 20.2922 52.4127 19.9562 52.0039 19.3874L51.1045 18.1432L51.5364 17.8321L51.7764 18.1645L54.0161 16.5487L53.7761 16.2163L54.208 15.9053L55.1057 17.1495Z" fill="#374174"/>
<path d="M53.4326 21.46L53.909 21.2201L54.0939 21.5862L56.5593 20.342L56.3744 19.9758L56.849 19.7358L58.1608 22.3364L57.2312 22.8056L56.961 22.2741L57.4125 22.0448L56.8632 20.9552L56.0082 21.3854L56.4704 22.3008L55.9585 22.5585L55.4963 21.6449L54.4014 22.1977L54.9417 23.2695L55.4768 22.9994L55.7558 23.5504L54.7462 24.0588L53.4326 21.46Z" fill="#374174"/>
<path d="M55.8072 25.3423L55.9405 25.7795L55.4304 25.9342L54.9824 24.4588L55.4926 24.3042L55.6117 24.697L58.2548 23.8954L58.1357 23.5025L58.6441 23.3479L59.076 24.7717L57.1954 26.1297L59.5151 26.2204L59.9328 27.5926L59.4227 27.7473L59.3053 27.3562L56.6622 28.1596L56.7795 28.5489L56.2711 28.7036L55.8232 27.2282L56.3333 27.0754L56.4649 27.5109L58.9392 26.7607L56.1716 26.615L56.0649 26.2648L58.2815 24.5904L55.8072 25.3423Z" fill="#374174"/>
<path d="M57.0396 30.8809L57.0947 31.3448L56.5668 31.407L56.373 29.7913L56.9027 29.729L56.9579 30.193L58.1808 30.0472L59.5815 28.8687L59.5459 28.5701L60.0738 28.5061L60.2392 29.8926L59.7112 29.9548L59.6757 29.6562L58.7994 30.3494L59.8125 30.8062L59.7717 30.4632L60.2996 30.3992L60.4649 31.7803L59.9352 31.8425L59.8996 31.5386L58.2626 30.7333L57.0396 30.8809Z" fill="#374174"/>
<path d="M8.2027 35.2573L7.23218 35.3267L9.1199 36.4003L8.20093 35.2573H8.2027ZM8.9617 33.9455L7.58768 34.5143L7.23218 35.3267L8.9617 33.9455ZM7.22329 35.3284L6.76291 37.5734L7.62679 36.2012L7.22329 35.3284ZM6.48384 33.2452L6.59049 34.7472L7.21974 35.3302L6.48384 33.247V33.2452ZM7.22329 35.3284L4.98362 35.4884L6.50162 35.8368L7.22329 35.3302V35.3284ZM6.27943 32.7244L7.5859 34.2779L9.47185 33.5136L8.39645 35.2378L9.70649 36.7949L7.73166 36.3061L6.65982 38.0285L6.51584 36.0039L4.54102 35.5151L6.42696 34.7543L6.28298 32.7261L6.27943 32.7244Z" fill="#ED3237"/>
<path d="M59.2476 37.4099L59.3507 35.9079L58.8086 35.2431L59.2476 37.4099ZM58.8068 35.2431L61.0465 35.3977L59.5907 34.8413L58.805 35.2431H58.8068ZM58.8068 35.2431L59.5747 33.0834L58.5277 34.3205L58.8068 35.2413V35.2431ZM57.8256 35.1755L58.7961 35.2431L57.0755 33.917L57.8256 35.1755ZM56.8906 36.3682L58.3304 35.9967L58.7943 35.2413L56.8888 36.3665L56.8906 36.3682ZM59.3774 37.9538L58.3002 36.2314L56.3271 36.7255L57.6319 35.1684L56.5529 33.4442L58.4406 34.205L59.7418 32.6497L59.6031 34.6743L61.4891 35.4333L59.516 35.9239L59.3774 37.952V37.9538Z" fill="#ED3237"/>
<path d="M33.0094 10.9905C20.7783 10.9905 10.8633 20.9073 10.8633 33.1384C10.8633 41.9993 16.0714 49.6444 23.5903 53.1835C24.2924 52.6946 25.3998 51.9285 25.5491 51.8681C26.9569 51.2815 27.9524 50.814 29.4899 50.8069C30.2116 50.8034 30.9013 50.9171 31.5589 51.214C31.742 51.2957 33.2814 52.3818 33.2742 52.3853C33.2742 52.3853 37.9705 50.087 42.5511 53.1301C50.0078 49.5662 55.1591 41.9549 55.1591 33.1401C55.1591 20.909 45.2441 10.9923 33.0112 10.9923L33.0094 10.9905Z" fill="#374174"/>
<path d="M32.5311 47.5845C32.476 47.5542 32.3853 47.5045 32.3853 47.5045C28.9903 45.6487 26.2262 43.1158 24.1696 39.9802C22.529 37.4775 21.3345 34.5908 20.6217 31.3984C20.012 28.6734 19.8574 26.2116 19.8574 24.4163C19.8574 22.6423 20.0085 21.5171 20.0227 21.4247C20.0227 21.4247 20.0565 21.1812 20.0778 21.0337C20.2182 20.9839 20.4493 20.9021 20.4493 20.9021C27.243 18.5114 32.3302 15.1963 32.38 15.1625L32.3782 15.1643C32.3782 15.1643 32.6057 15.0185 32.739 14.9332H32.7408V14.4195L32.7373 14.4177L32.1418 14.7999C32.092 14.8337 27.051 18.1185 20.3071 20.4933L19.6849 20.7119L19.5943 21.366C19.5676 21.5527 18.9722 26 20.2004 31.4943C20.9257 34.7365 22.1397 37.673 23.8106 40.2202C25.908 43.4162 28.7236 45.9936 32.1809 47.8866L32.4244 48.0199H32.7426V47.5862H32.5346L32.5311 47.5845ZM20.6644 21.5154C20.6644 21.5154 18.2292 39.0204 32.6982 46.9339H32.739V15.7064H32.7337C32.7337 15.7064 27.6038 19.0713 20.6626 21.5154H20.6644ZM45.3577 21.5154C45.3577 21.5154 47.7929 39.0204 33.3239 46.9339H33.283V15.7064H33.2883C33.2883 15.7064 38.4182 19.0713 45.3594 21.5154H45.3577ZM33.4892 47.5845C33.5443 47.5542 33.6349 47.5045 33.6349 47.5045C37.03 45.6487 39.794 43.1158 41.8506 39.9802C43.493 37.4775 44.6858 34.5908 45.4003 31.3984C46.01 28.6734 46.1647 26.2116 46.1647 24.4163C46.1647 22.6423 46.0136 21.5171 45.9993 21.4247C45.9993 21.4247 45.9656 21.1812 45.9442 21.0337C45.8038 20.9839 45.571 20.9021 45.571 20.9021C38.7773 18.5114 33.6918 15.1963 33.6403 15.1625L33.642 15.1643C33.642 15.1643 33.4145 15.0185 33.2812 14.9332C33.2812 14.9332 33.2794 14.9332 33.2776 14.9332V14.4195L33.2812 14.4177L33.8767 14.7999C33.9264 14.8337 38.9693 18.1185 45.7132 20.4933L46.3353 20.7119L46.4259 21.366C46.4526 21.5527 47.0481 26 45.8198 31.4943C45.0946 34.7365 43.8805 37.673 42.2097 40.2202C40.1122 43.4162 37.2966 45.9936 33.8393 47.8866L33.5958 48.0199H33.2776V47.5862H33.4856L33.4892 47.5845Z" fill="#FEFEFE"/>
<path d="M41.7919 28.4778L42.4247 28.6431C42.4247 28.6431 41.4506 29.6261 40.9245 29.7789C40.4001 29.9318 40.1584 30.0171 40.0357 29.9318C39.9717 29.8856 39.6696 24.7272 39.6696 24.4891H41.2853L41.5306 24.2455H41.7279V23.9327H39.6607V23.1808C39.6607 23.1808 39.6482 22.9177 39.3549 22.9177C39.0616 22.9177 39.0492 23.1808 39.0492 23.1808V23.9327H36.9819V24.2455H37.1793L37.4245 24.4891H39.0403C39.0403 24.7326 38.7399 29.8838 38.6742 29.9318C38.5515 30.0171 38.3098 29.9318 37.7854 29.7789C37.2592 29.6279 36.2852 28.6431 36.2852 28.6431L36.9197 28.4778L35.6328 27.7259L35.6986 29.2759L35.9688 28.8422C35.9688 28.8422 36.4682 30.1202 37.7374 30.6642C39.0065 31.2081 39.3532 32.0488 39.3532 32.0488C39.3532 32.0488 39.7016 31.2081 40.9707 30.6642C42.2399 30.1202 42.7393 28.8422 42.7393 28.8422L43.0077 29.2759L43.0735 27.7259L41.7866 28.4778H41.7919Z" fill="#ED3237"/>
<path d="M38.988 23.6358V23.211C38.7801 23.0848 38.6396 22.8573 38.6396 22.596C38.6396 22.2013 38.9614 21.8796 39.356 21.8796C39.7506 21.8796 40.0741 22.2013 40.0741 22.596C40.0741 22.8573 39.9337 23.0848 39.7257 23.211V23.6358C40.1541 23.4847 40.4598 23.0759 40.4598 22.596C40.4598 21.988 39.9657 21.4939 39.356 21.4939C38.7463 21.4939 38.2539 21.988 38.2539 22.596C38.2539 23.0759 38.5596 23.4847 38.988 23.6358Z" fill="#ED3237"/>
<path d="M26.2647 22.9852C26.1367 22.9817 25.998 22.9692 25.9625 22.9301C25.8878 22.8555 25.8327 22.699 25.8203 22.5035C25.8061 22.308 25.7989 21.6183 25.1768 21.5597C24.5547 21.501 24.1956 21.8885 23.6464 22.196C23.0989 22.5017 21.9488 23.1168 21.2432 23.2821C20.6797 23.4136 21.5862 23.4314 22.0644 23.4012C22.363 23.2483 24.1636 22.3258 24.5031 22.1765C24.5031 22.1765 22.9087 23.0652 22.0839 23.5291C21.9755 23.6127 21.8777 23.7069 21.9186 23.746C21.9773 23.8082 22.4785 23.8473 22.882 23.794C23.138 23.6731 24.0836 23.2234 24.576 22.9212C24.576 22.9212 23.5877 23.5629 23.01 23.8331C22.8518 23.9326 22.6847 24.0606 22.7452 24.1424C22.8305 24.2526 23.3762 24.2046 23.7033 24.0926C23.929 23.9415 24.4925 23.5611 24.6507 23.4278C24.6631 23.4154 24.672 23.4101 24.672 23.4101C24.6649 23.4154 24.6578 23.4225 24.6507 23.4278C24.5547 23.5114 24.1352 23.8758 23.7797 24.1335C23.6926 24.2455 23.609 24.3912 23.6926 24.4623C23.8223 24.5743 24.2525 24.3948 24.528 24.233C24.6596 24.1122 24.8818 23.9006 24.9671 23.7727C24.9671 23.7727 24.8053 24.0286 24.5653 24.2704C24.4836 24.4037 24.368 24.6205 24.4498 24.7005C24.5511 24.8018 24.8746 24.681 25.0684 24.5352C25.1413 24.441 25.2586 24.2793 25.3172 24.1531C25.3172 24.1531 25.2497 24.3895 25.1182 24.5761C25.0968 24.6614 25.0951 24.7663 25.1875 24.8125C25.335 24.8854 25.4986 24.7841 25.6461 24.6223C25.6923 24.5477 25.7563 24.4428 25.8007 24.3486C25.8007 24.3486 25.7367 24.5334 25.6727 24.6756C25.6639 24.7396 25.6692 24.809 25.7296 24.8374C25.8114 24.8765 26.1029 24.7681 26.2824 24.4143L26.2629 22.9817L26.2647 22.9852Z" fill="#ED3237"/>
<path d="M26.2956 23.1095C26.2956 23.1095 26.2476 23.1095 26.2423 23.1095C26.1783 23.1078 26.1143 23.1042 26.0486 23.0953C26.029 23.0918 26.0095 23.0882 25.9899 23.0847C25.9241 23.0687 25.9046 23.0438 25.8868 23.0207C25.8139 22.93 25.7659 22.7754 25.7535 22.5887C25.7517 22.5781 25.7499 22.5656 25.7499 22.5532C25.7375 22.3292 25.7019 21.7391 25.1474 21.6858C25.1065 21.6822 25.0656 21.6804 25.0247 21.6804C24.9803 21.6804 24.9358 21.6822 24.8914 21.6875C24.5821 21.7249 24.3297 21.9044 24.0577 22.0555C24.0417 22.0661 24.0257 22.0733 24.0097 22.0821C23.9671 22.107 23.9226 22.1301 23.88 22.155C23.8124 22.1923 23.7449 22.2297 23.6773 22.2652C23.5618 22.3221 23.4658 22.3701 23.4658 22.3701C23.4658 22.3719 23.56 22.3274 23.6756 22.2741C23.7431 22.2421 23.8071 22.2066 23.8729 22.1728C24.0204 22.0964 24.1644 22.011 24.3119 21.9293C24.4488 21.8564 24.5892 21.7924 24.7385 21.7569C24.831 21.7355 24.9287 21.7249 25.0247 21.7249C25.0638 21.7249 25.1029 21.7266 25.1438 21.7302C25.6646 21.78 25.6966 22.3239 25.7108 22.555C25.7108 22.5692 25.7126 22.5816 25.7126 22.5905C25.7233 22.7292 25.7499 22.8945 25.8228 23.01C25.8992 23.1291 25.9703 23.1273 26.0948 23.1451C26.1143 23.1486 26.2992 23.1575 26.2992 23.1558C26.2992 23.1398 26.2974 23.1255 26.2974 23.1095H26.2956Z" fill="#ED3237"/>
<path d="M31.7649 23.2856C31.061 23.1203 29.9109 22.507 29.3634 22.1995C28.8142 21.892 28.4551 21.5027 27.833 21.5631C27.2109 21.6218 27.2038 22.3115 27.1895 22.507C27.1771 22.7008 27.122 22.859 27.0473 22.9336C27.0082 22.9727 26.8643 22.9852 26.7345 22.9869L26.7061 24.3858C26.8856 24.768 27.1913 24.8836 27.2766 24.8427C27.3353 24.8125 27.3424 24.7431 27.3335 24.6809C27.2678 24.5405 27.2038 24.3539 27.2038 24.3539C27.2482 24.4481 27.3122 24.5547 27.3584 24.6276C27.5059 24.7893 27.6695 24.8889 27.817 24.8178C27.9094 24.7716 27.9077 24.6685 27.8863 24.5814C27.7548 24.3947 27.6872 24.1583 27.6872 24.1583C27.7441 24.2828 27.8632 24.4445 27.9343 24.5405C28.1298 24.6862 28.4516 24.8053 28.5529 24.7058C28.6347 24.624 28.5209 24.409 28.4374 24.2756C28.1974 24.0339 28.0339 23.7779 28.0339 23.7779C28.1192 23.9059 28.3432 24.1174 28.4747 24.2383C28.7502 24.4001 29.1821 24.5778 29.3101 24.4658C29.3954 24.393 29.3119 24.249 29.223 24.137C28.8675 23.8793 28.4498 23.5166 28.352 23.4313C28.3449 23.4242 28.336 23.4189 28.3307 23.4135C28.3307 23.4135 28.3396 23.4207 28.352 23.4313C28.5102 23.5646 29.0737 23.945 29.2995 24.0961C29.6283 24.2081 30.174 24.2543 30.2575 24.1441C30.318 24.0641 30.1509 23.9326 29.9927 23.8348C29.415 23.5646 28.4267 22.9229 28.4267 22.9229C28.9191 23.2251 29.8647 23.6748 30.1207 23.7957C30.5242 23.849 31.0236 23.8082 31.0841 23.7477C31.125 23.7068 31.0272 23.6126 30.9188 23.5291C30.094 23.0652 28.5013 22.1764 28.5013 22.1764C28.8409 22.3257 30.6415 23.25 30.9401 23.4029C31.4183 23.4331 32.3248 23.4153 31.7595 23.2838L31.7649 23.2856Z" fill="#ED3237"/>
<path d="M26.7155 23.115C26.7155 23.115 26.7652 23.1132 26.7688 23.1132C26.8328 23.1114 26.8986 23.1079 26.9625 23.099C26.9821 23.0954 27.0016 23.0919 27.0212 23.0865C27.087 23.0705 27.1047 23.0457 27.1225 23.0226C27.1954 22.9337 27.2434 22.7773 27.2576 22.5906C27.2594 22.58 27.2594 22.5675 27.2594 22.5551C27.2718 22.3329 27.3074 21.741 27.8637 21.6894C27.9064 21.6859 27.9473 21.6841 27.9864 21.6841C28.0308 21.6841 28.0753 21.6859 28.1197 21.6912C28.4308 21.7267 28.6832 21.908 28.9534 22.0591C28.9694 22.0698 28.9854 22.0769 29.0014 22.0858C29.044 22.1089 29.0867 22.1338 29.1311 22.1569C29.1987 22.1942 29.2662 22.2316 29.3338 22.2671C29.4493 22.3258 29.5453 22.372 29.5453 22.3738C29.5453 22.3755 29.4493 22.3311 29.3355 22.2778C29.268 22.2476 29.204 22.212 29.1382 22.1765C28.9907 22.0982 28.8467 22.0147 28.6992 21.9329C28.5641 21.8601 28.4219 21.7961 28.2726 21.7623C28.1801 21.741 28.0824 21.7285 27.9864 21.7285C27.9473 21.7285 27.9082 21.7303 27.8673 21.7339C27.3465 21.7854 27.3145 22.3275 27.3003 22.5604C27.2985 22.5746 27.2985 22.5853 27.2985 22.5959C27.2878 22.7346 27.2629 22.8999 27.1901 23.0154C27.1136 23.1345 27.0425 23.1328 26.9163 23.1505C26.8968 23.1541 26.7119 23.163 26.7119 23.1612C26.7137 23.1452 26.7137 23.131 26.7137 23.115H26.7155Z" fill="#ED3237"/>
<path d="M26.2171 22.3684C26.2011 22.3809 26.1904 22.4057 26.1904 22.436C26.1904 22.4786 26.2135 22.5142 26.2438 22.5142H26.4535C26.3575 22.5017 26.274 22.4448 26.2171 22.3684Z" fill="#ED3237"/>
<path d="M26.789 22.3684C26.7303 22.4466 26.6468 22.5017 26.5508 22.5142H26.7623C26.7925 22.5142 26.8156 22.4786 26.8156 22.436C26.8156 22.4057 26.805 22.3809 26.789 22.3684Z" fill="#ED3237"/>
<path d="M26.8264 22.1142C26.8264 22.3115 26.6806 22.4732 26.5011 22.4732C26.3215 22.4732 26.1758 22.3133 26.1758 22.1142C26.1758 21.9151 26.3215 21.7551 26.5011 21.7551C26.6806 21.7551 26.8264 21.9169 26.8264 22.1142Z" fill="#ED3237"/>
<path d="M26.3756 27.8165C26.4342 27.7703 26.4946 27.7241 26.5533 27.6779C26.5675 27.6654 26.5835 27.6548 26.5977 27.6423L26.6137 26.8584C26.5444 26.8247 26.4573 26.7891 26.3613 26.75L26.3756 27.8147V27.8165Z" fill="#ED3237"/>
<path d="M26.5509 29.9016C26.5064 29.8518 26.4549 29.7967 26.4033 29.7434L26.4193 30.9112C26.4549 30.8544 26.494 30.7993 26.5313 30.7441L26.5491 29.8998L26.5509 29.9016Z" fill="#ED3237"/>
<path d="M26.5615 29.4198L26.5882 28.1685C26.51 28.2253 26.4442 28.2769 26.3838 28.3249L26.3962 29.2385C26.4496 29.2972 26.5047 29.3594 26.5615 29.4198Z" fill="#ED3237"/>
<path d="M26.4855 26.2861C26.5317 26.3092 26.5779 26.3323 26.6241 26.3572L26.7041 22.4502C26.6454 22.4929 26.5761 22.5177 26.5015 22.5177C26.4268 22.5177 26.3575 22.4929 26.2988 22.4502L26.3522 26.2168C26.3948 26.2399 26.441 26.2612 26.4855 26.2861Z" fill="#ED3237"/>
<path d="M26.5166 31.1653C26.4811 31.2186 26.4508 31.2701 26.4277 31.3235L26.4402 32.1607L26.4722 32.2762L26.5059 32.1607L26.5255 31.1528C26.5219 31.1564 26.5184 31.1599 26.5166 31.1653Z" fill="#ED3237"/>
<path d="M26.4223 30.9129C26.433 30.8969 26.4419 30.8827 26.4525 30.8667C26.4223 30.8241 26.3939 30.7814 26.3619 30.7405C26.3281 30.6943 26.2943 30.6481 26.2623 30.5983C26.0881 30.337 26.1628 30.2286 26.2001 30.1077C26.2179 30.0491 26.3263 29.9193 26.4472 29.7878C26.3974 29.7344 26.3441 29.6829 26.2926 29.6313C26.2446 29.6847 26.1966 29.7398 26.1539 29.7913C25.8606 30.1468 25.9406 30.3228 26.001 30.4952C26.0473 30.6285 26.2286 30.8027 26.3814 30.9823C26.3939 30.9592 26.4081 30.9378 26.4223 30.9147V30.9129Z" fill="#ED3237"/>
<path d="M26.1933 27.9621C26.2661 27.9035 26.3515 27.8359 26.4368 27.7666C26.2715 27.6386 26.1026 27.5071 25.9693 27.3969C25.7364 27.2031 26.0386 26.9703 26.2057 26.869C26.2519 26.8405 26.3212 26.8068 26.4066 26.7712C26.3497 26.7463 26.2875 26.7214 26.2235 26.6965C26.1541 26.6681 26.0795 26.6379 26.0048 26.6077C25.9657 26.6308 25.9266 26.6539 25.8893 26.677C25.6724 26.8156 25.4289 27.0467 25.5391 27.3542C25.6244 27.5924 25.8484 27.7257 26.0351 27.8537C26.0866 27.8893 26.1382 27.9248 26.1915 27.9621H26.1933Z" fill="#ED3237"/>
<path d="M26.6039 31.1262C26.5968 31.1102 26.5897 31.0942 26.5808 31.0818C26.5594 31.1084 26.5381 31.1351 26.5186 31.1636C26.5665 31.2364 26.6092 31.3182 26.6252 31.4071C26.6448 31.5155 26.6092 31.631 26.5754 31.7306C26.5825 31.727 26.595 31.7146 26.5985 31.7075C26.6074 31.6968 26.6145 31.6861 26.6199 31.6737C26.6803 31.551 26.6981 31.432 26.6661 31.2986C26.6519 31.2382 26.6288 31.1795 26.6039 31.1244V31.1262Z" fill="#ED3237"/>
<path d="M27.0787 25.1166C27.0449 25.1166 27.0165 25.1006 27.0165 25.0792C27.0165 25.0579 27.0449 25.0401 27.0787 25.0401C27.1143 25.0401 27.1427 25.0561 27.1427 25.0792C27.1427 25.0988 27.1143 25.1166 27.0787 25.1166ZM27.8306 25.6943C27.8075 25.4507 27.6511 25.2783 27.6084 25.2481C27.5657 25.2179 27.5942 25.177 27.5266 25.0952C27.4609 25.0135 27.2867 24.9228 27.0698 24.9264C26.8494 24.9299 26.7872 25.1468 26.8085 25.1574C26.8299 25.1699 26.8334 25.1912 26.8334 25.1912C26.7801 25.1823 26.7961 25.2552 26.9045 25.3459C27.0129 25.4347 27.2067 25.5396 27.2636 25.5218C27.3045 25.5076 27.3471 25.5325 27.3738 25.5698C27.3862 25.5876 27.3933 25.6072 27.3987 25.6267C27.4022 25.6445 27.4022 25.6623 27.4004 25.6818C27.388 25.7671 27.3116 25.8276 27.2582 25.872C27.1782 25.936 27.0929 25.9893 27.0129 26.0533C26.917 26.128 26.7463 26.2186 26.5508 26.3164C26.6859 26.3875 26.8316 26.4639 26.9685 26.5439C27.0609 26.5048 27.1534 26.4675 27.2387 26.4266C27.6191 26.2542 27.8573 25.936 27.8324 25.6925L27.8306 25.6943Z" fill="#ED3237"/>
<path d="M26.7804 28.0405C26.7768 28.0387 26.775 28.0369 26.7733 28.0352C26.7466 28.0529 26.7199 28.0725 26.6933 28.0903C26.6364 28.1329 26.5831 28.172 26.5333 28.2076C26.7857 28.4031 26.9244 28.5524 26.9315 28.7479C26.9386 28.9044 26.743 29.1372 26.5244 29.3772C26.544 29.3985 26.5635 29.4198 26.5848 29.443C26.6168 29.4767 26.6488 29.5123 26.6808 29.5478C26.7164 29.5141 26.7484 29.4821 26.7733 29.4607C26.9226 29.3221 27.1892 29.0039 27.2105 28.7533C27.2301 28.5026 27.0061 28.2289 26.7822 28.0405H26.7804Z" fill="#ED3237"/>
<path d="M25.8929 25.0401C25.9285 25.0401 25.9551 25.0561 25.9551 25.0792C25.9551 25.0988 25.9267 25.1166 25.8929 25.1166C25.8574 25.1166 25.8307 25.1006 25.8307 25.0792C25.8307 25.0579 25.8574 25.0401 25.8929 25.0401ZM27.0785 26.6772C26.6839 26.4266 26.1595 26.2097 25.9587 26.0533C25.8787 25.9893 25.7934 25.936 25.7134 25.872C25.6601 25.8276 25.5854 25.7671 25.5712 25.6818C25.5676 25.664 25.5676 25.6445 25.573 25.6267C25.5765 25.6072 25.5854 25.5876 25.5961 25.5698C25.6227 25.5325 25.6654 25.5076 25.7063 25.5218C25.7632 25.5396 25.9587 25.4347 26.0671 25.3459C26.1755 25.257 26.1915 25.1823 26.1364 25.1912C26.1364 25.1912 26.14 25.1699 26.1613 25.1574C26.1827 25.145 26.1204 24.9299 25.9018 24.9264C25.6832 24.9228 25.509 25.0117 25.4432 25.0952C25.3774 25.177 25.4041 25.2179 25.3632 25.2481C25.3206 25.2783 25.1641 25.449 25.1392 25.6943C25.1161 25.9378 25.3526 26.256 25.7329 26.4284C26.1133 26.6008 26.595 26.7714 26.7621 26.871C26.9292 26.9723 27.2332 27.2034 26.9985 27.3989C26.7657 27.5927 26.4155 27.8557 26.188 28.0424C25.964 28.2308 25.7383 28.5027 25.7596 28.7552C25.7792 29.0058 26.0476 29.324 26.1969 29.4626C26.3462 29.6012 26.7337 29.9905 26.7692 30.1096C26.8048 30.2305 26.8794 30.3389 26.707 30.6002C26.6946 30.618 26.6821 30.6358 26.6697 30.6535C26.6004 30.7513 26.5275 30.8473 26.4653 30.9486C26.3924 31.0641 26.3302 31.1886 26.2929 31.3237C26.2733 31.3948 26.2591 31.4694 26.2555 31.5441C26.2538 31.5832 26.2538 31.6223 26.2555 31.6632C26.2609 31.7378 26.2786 31.8178 26.3106 31.8836C26.3302 31.9245 26.3515 31.9653 26.3533 31.9618C26.3586 31.9547 26.3071 31.7894 26.2982 31.7165C26.284 31.5938 26.3142 31.361 26.4706 31.1317C26.627 30.9024 26.9061 30.6678 26.9683 30.4953C27.027 30.3229 27.1087 30.1469 26.8137 29.7914C26.5204 29.4359 26.028 28.9987 26.0369 28.7498C26.0476 28.5027 26.2644 28.3268 26.6608 28.0424C26.8226 27.9268 26.9896 27.822 27.1478 27.6993C27.3132 27.5713 27.4642 27.406 27.4536 27.166C27.4447 26.935 27.2367 26.7821 27.075 26.679L27.0785 26.6772Z" fill="#ED3237"/>
<path d="M29.8922 34.9621L29.8566 34.9195L29.8246 34.8804C29.8033 34.8964 29.782 34.9159 29.7589 34.9355C29.7571 34.9746 29.782 35.0101 29.8193 35.0243C29.8442 35.0012 29.8691 34.9817 29.894 34.9604L29.8922 34.9621Z" fill="#373435"/>
<path d="M29.7968 41.9763C29.7666 41.9941 29.7488 42.0279 29.7524 42.0634C29.7542 42.0723 29.7577 42.0794 29.7595 42.0865C29.7862 42.1114 29.8004 42.1239 29.804 42.1274L29.8431 42.083L29.8733 42.0456C29.8715 42.0439 29.8431 42.019 29.7968 41.9763Z" fill="#373435"/>
<path d="M28.2715 38.3538C28.3284 36.7007 29.1265 35.6662 29.7077 35.1258C29.6989 35.0831 29.6917 35.0369 29.69 34.9978C29.1656 35.4724 28.2271 36.5673 28.1649 38.3502C28.0973 40.3001 29.2936 41.6351 29.6846 42.0154C29.6846 41.9763 29.6917 41.9266 29.6989 41.8804C29.2723 41.4449 28.2093 40.1757 28.2715 38.352V38.3538Z" fill="#374174"/>
<path d="M36.0681 34.9071C36.0983 34.8911 36.1178 34.8574 36.1161 34.82C36.1161 34.8129 36.1125 34.8076 36.1107 34.8005C36.0983 34.7898 36.0841 34.7792 36.0734 34.7703L36.0361 34.8165L36.0059 34.8538C36.0236 34.8698 36.045 34.8876 36.0681 34.9071Z" fill="#373435"/>
<path d="M36.1914 41.9868L36.2252 42.0313L36.2572 42.0704C36.2572 42.0704 36.2625 42.065 36.2678 42.0615C36.2714 42.0544 36.2732 42.0455 36.2749 42.0384C36.2749 42.0028 36.2572 41.9708 36.2287 41.9548C36.2056 41.9744 36.1932 41.9851 36.1914 41.9868Z" fill="#373435"/>
<path d="M37.8555 38.3503C37.7933 36.5034 36.6788 35.3089 36.1882 34.8699C36.1882 34.9108 36.1811 34.9587 36.1758 35.0032C36.6806 35.4707 37.6902 36.6172 37.7489 38.3538C37.8129 40.2202 36.7233 41.4698 36.3304 41.8609C36.3375 41.9053 36.3446 41.9515 36.3464 41.9942C36.6895 41.6707 37.9266 40.3606 37.8573 38.3503H37.8555Z" fill="#374174"/>
<path d="M31.0919 41.1444L30.3151 42.2375C30.3151 42.2375 30.2636 42.2073 30.1676 42.1327C30.1676 42.1327 30.1641 42.1327 30.1641 42.1344C30.9479 42.7459 31.9327 43.1121 33.0045 43.1121C34.087 43.1121 35.0825 42.737 35.8681 42.1131C35.8646 42.1113 35.861 42.1113 35.861 42.1113C35.8308 42.1344 35.7775 42.1824 35.733 42.2073L34.9171 41.1426C34.3786 41.5319 33.7191 41.7629 33.0045 41.7629C32.29 41.7629 31.6305 41.5336 31.0937 41.1444H31.0919Z" fill="#ED3237"/>
<path d="M36.2623 35.2376C36.273 35.2483 36.2801 35.2572 36.2801 35.2572L35.3291 36.2117C35.3007 36.1797 35.2616 36.1441 35.2207 36.105C35.8642 36.7023 36.2677 37.5537 36.2677 38.4994C36.2677 39.397 35.905 40.2076 35.3202 40.7977C35.37 40.7515 35.4162 40.707 35.4464 40.6697L36.4241 41.594C37.1635 40.7746 37.615 39.6903 37.615 38.4994C37.615 37.2249 37.0978 36.0713 36.2623 35.2358V35.2376Z" fill="#ED3237"/>
<path d="M34.7924 35.7711C34.7853 35.7675 34.7799 35.764 34.7799 35.764L35.5692 34.6672C34.835 34.1749 33.9534 33.8887 33.0042 33.8887C32.0017 33.8887 31.0756 34.2086 30.3184 34.7508L31.1111 35.8404C31.0685 35.8688 31.0151 35.9097 30.96 35.9559C31.52 35.5062 32.2292 35.236 33.0024 35.236C33.6637 35.236 34.2769 35.4333 34.7906 35.7693L34.7924 35.7711Z" fill="#ED3237"/>
<path d="M30.6019 36.2899C30.5894 36.3024 30.5805 36.3113 30.5805 36.3113L29.6242 35.3621C28.8599 36.1851 28.3906 37.2871 28.3906 38.4994C28.3906 39.7099 28.8563 40.8084 29.6171 41.6314L30.5592 40.6733C30.5592 40.6733 30.6001 40.7124 30.6605 40.771C30.0917 40.1827 29.738 39.3828 29.738 38.4994C29.738 37.6462 30.065 36.8694 30.6001 36.2899H30.6019Z" fill="#ED3237"/>
<path d="M36.1118 34.8022C36.1136 34.8075 36.1171 34.8128 36.1171 34.8199C36.1189 34.8555 36.0994 34.8893 36.0691 34.907C36.0585 34.9141 36.0443 34.9195 36.03 34.9195C35.9785 34.923 35.9323 34.8839 35.9287 34.8342C35.9287 34.8199 35.9305 34.8075 35.9341 34.795C35.9056 34.7737 35.8665 34.7453 35.8203 34.7133C35.7563 34.7364 35.703 34.7595 35.703 34.7595C35.6728 34.7364 35.6177 34.6902 35.5714 34.6671L34.7822 35.7638C34.7822 35.7638 34.7876 35.7673 34.7947 35.7709C34.8444 35.8065 35.0666 35.9682 35.223 36.1069C35.2657 36.1442 35.3048 36.1815 35.3333 36.2117L36.2842 35.2572C36.2842 35.2572 36.2771 35.2483 36.2665 35.2376C36.2469 35.2181 36.2114 35.1825 36.1545 35.1292C36.1598 35.1168 36.1705 35.0635 36.1794 35.003C36.1865 34.9586 36.1918 34.9106 36.1918 34.8697C36.1918 34.8359 36.19 34.8093 36.1829 34.7915C36.1616 34.7382 36.0887 34.6848 36.0176 34.6688C36.0016 34.6653 35.9785 34.6671 35.9518 34.6724C35.9856 34.6973 36.0123 34.7186 36.0318 34.7328C36.0709 34.7364 36.1047 34.763 36.1136 34.8004L36.1118 34.8022Z" fill="#FEFEFE"/>
<path d="M29.735 35.2466C29.7084 35.2733 29.6533 35.3195 29.623 35.3621V35.3639L30.5794 36.3131C30.5794 36.3131 30.5882 36.3042 30.6007 36.2918C30.6558 36.2367 30.8158 36.0802 30.9597 35.9576C31.0148 35.9114 31.0664 35.8705 31.1108 35.8421L30.3181 34.7524C30.3181 34.7524 30.2683 34.7844 30.1705 34.8609C30.1616 34.8538 30.1208 34.8395 30.071 34.8235C30.0283 34.8573 29.9839 34.8911 29.9412 34.9249C29.943 34.9337 29.9448 34.9409 29.9448 34.9497C29.9412 35.0013 29.895 35.0386 29.8435 35.0351C29.8346 35.0333 29.8275 35.0297 29.8186 35.028C29.7812 35.0137 29.7564 34.9782 29.7581 34.9391C29.7581 34.9373 29.7581 34.9355 29.7581 34.9337C29.7617 34.8822 29.8079 34.8431 29.8595 34.8484C29.8612 34.8484 29.8648 34.8502 29.8666 34.8502C29.8915 34.8307 29.9181 34.8093 29.943 34.7898C29.9021 34.7809 29.8648 34.7773 29.8417 34.7827C29.7866 34.7951 29.7208 34.8573 29.6959 34.9266C29.6888 34.9426 29.6888 34.9693 29.6924 35.0013C29.6942 35.0404 29.7013 35.0866 29.7101 35.1293C29.7226 35.195 29.7368 35.2501 29.7368 35.2501L29.735 35.2466Z" fill="#FEFEFE"/>
<path d="M29.7624 42.0883C29.7589 42.0812 29.7553 42.0741 29.7553 42.0652C29.7518 42.0296 29.7713 41.9959 29.7997 41.9781C29.8122 41.971 29.8246 41.9656 29.8406 41.9656C29.8922 41.9603 29.9384 41.9976 29.9419 42.0492C29.9437 42.0652 29.9384 42.0812 29.9331 42.0954C29.9597 42.1185 29.9988 42.1469 30.045 42.1807C30.1019 42.1629 30.1499 42.1434 30.1641 42.1381C30.1641 42.1363 30.1677 42.1363 30.1677 42.1363C30.2637 42.2109 30.3152 42.2429 30.3152 42.2429L31.092 41.1498L31.0956 41.1444C30.9711 41.0662 30.7792 40.8885 30.6601 40.7765C30.5996 40.7178 30.5587 40.6787 30.5587 40.6787L29.6167 41.6368L29.6113 41.6403C29.6433 41.683 29.6984 41.7292 29.7251 41.7541C29.7251 41.7541 29.7109 41.8145 29.6984 41.8839C29.6895 41.9301 29.6842 41.9799 29.6824 42.019C29.6824 42.0456 29.6842 42.0652 29.6895 42.0776C29.7162 42.1469 29.7837 42.2092 29.8371 42.2198C29.8548 42.2234 29.8815 42.2216 29.9117 42.2163C29.8726 42.186 29.8442 42.1647 29.8264 42.1505C29.7944 42.1434 29.7713 42.1221 29.7606 42.0918L29.7624 42.0883Z" fill="#FEFEFE"/>
<path d="M36.3294 41.8588C36.317 41.7948 36.3045 41.7397 36.2992 41.7273C36.3881 41.642 36.4254 41.5958 36.4254 41.5958L36.4218 41.594L35.4442 40.6697C35.4122 40.707 35.3678 40.7514 35.318 40.7977C35.1456 40.9559 34.9092 41.1354 34.9092 41.1354L34.9145 41.1425L35.7304 42.2072C35.7766 42.1823 35.8282 42.1344 35.8584 42.1112C35.8584 42.1112 35.8619 42.1112 35.8655 42.113C35.8797 42.1184 35.9206 42.1344 35.9668 42.1503C36.0059 42.1219 36.0486 42.0917 36.0877 42.0615C36.0841 42.0508 36.0806 42.0419 36.0823 42.0295C36.0859 41.9779 36.1286 41.937 36.1819 41.9406C36.1979 41.9406 36.2121 41.9459 36.2263 41.953C36.2548 41.9708 36.2725 42.001 36.2725 42.0384C36.2725 42.0455 36.269 42.0544 36.2654 42.0615C36.253 42.0988 36.2192 42.1255 36.1783 42.1272C36.1517 42.1468 36.125 42.1663 36.0983 42.1877C36.1303 42.193 36.157 42.1966 36.1748 42.1912C36.2459 42.1752 36.317 42.1166 36.3365 42.065C36.3419 42.0473 36.3436 42.0224 36.3436 41.9921C36.3419 41.9495 36.3365 41.9033 36.3276 41.8588H36.3294Z" fill="#FEFEFE"/>
<path d="M36.2565 42.0723L36.2262 42.0332L36.1925 41.9888C36.1587 42.0154 36.1267 42.0385 36.0929 42.0634C36.0538 42.0936 36.0112 42.1221 35.9721 42.1523C34.9926 42.8526 34.0008 43.2224 33.0925 43.2224H33.0889C31.6242 43.2206 30.4671 42.4865 30.0476 42.1807C29.9996 42.147 29.9623 42.1185 29.9356 42.0954C29.9 42.067 29.8805 42.051 29.8769 42.0492L29.8467 42.0865L29.8076 42.131C29.8076 42.131 29.8165 42.1381 29.8307 42.1505C29.8485 42.1647 29.8769 42.1861 29.916 42.2163C30.2751 42.4918 31.5069 43.3272 33.0889 43.329H33.0925C34.047 43.329 35.0851 42.9344 36.1036 42.1896C36.1303 42.1701 36.1569 42.1505 36.1836 42.131C36.2085 42.1114 36.2334 42.0954 36.2582 42.0741L36.2565 42.0723Z" fill="#374174"/>
<path d="M29.8242 34.8804L29.858 34.9213L29.8935 34.964C29.9095 34.9498 29.9273 34.9373 29.9433 34.9249C29.9878 34.8911 30.0304 34.8555 30.0731 34.8235C31.6533 33.6308 33.1482 33.6788 34.14 33.9383C34.9328 34.1445 35.5318 34.5143 35.8198 34.7151C35.866 34.7471 35.9051 34.7756 35.9336 34.7969C35.9798 34.8307 36.0047 34.852 36.0064 34.8538L36.0367 34.8164L36.074 34.7702C36.0722 34.7684 36.0562 34.756 36.0278 34.7347C36.0082 34.7187 35.9815 34.6991 35.9478 34.6742C35.6883 34.4858 35.043 34.0628 34.1703 33.8352C33.1411 33.5633 31.5822 33.5171 29.9433 34.788C29.9167 34.8075 29.8918 34.8289 29.8669 34.8484C29.8527 34.8591 29.8384 34.8698 29.8242 34.8804Z" fill="#374174"/>
</svg>
