<svg width="24" height="25" viewBox="0 0 24 25" fill="none" xmlns="http://www.w3.org/2000/svg">
<path d="M2.66667 24.5C1.93333 24.5 1.30578 24.2391 0.784 23.7173C0.262222 23.1956 0.000888889 22.5676 0 21.8333V3.16667C0 2.43333 0.261333 1.80578 0.784 1.284C1.30667 0.762222 1.93422 0.500889 2.66667 0.5H10.6667C11.0444 0.5 11.3613 0.628 11.6173 0.884C11.8733 1.14 12.0009 1.45644 12 1.83333C11.9991 2.21022 11.8711 2.52711 11.616 2.784C11.3609 3.04089 11.0444 3.16844 10.6667 3.16667H2.66667V21.8333H10.6667C11.0444 21.8333 11.3613 21.9613 11.6173 22.2173C11.8733 22.4733 12.0009 22.7898 12 23.1667C11.9991 23.5436 11.8711 23.8604 11.616 24.1173C11.3609 24.3742 11.0444 24.5018 10.6667 24.5H2.66667ZM18.9 13.8333H9.33333C8.95556 13.8333 8.63911 13.7053 8.384 13.4493C8.12889 13.1933 8.00089 12.8769 8 12.5C7.99911 12.1231 8.12711 11.8067 8.384 11.5507C8.64089 11.2947 8.95733 11.1667 9.33333 11.1667H18.9L16.4 8.66667C16.1556 8.42222 16.0333 8.12222 16.0333 7.76667C16.0333 7.41111 16.1556 7.1 16.4 6.83333C16.6444 6.56667 16.9556 6.42756 17.3333 6.416C17.7111 6.40444 18.0333 6.53244 18.3 6.8L23.0667 11.5667C23.3333 11.8333 23.4667 12.1444 23.4667 12.5C23.4667 12.8556 23.3333 13.1667 23.0667 13.4333L18.3 18.2C18.0333 18.4667 17.7169 18.5947 17.3507 18.584C16.9844 18.5733 16.6676 18.4342 16.4 18.1667C16.1556 17.9 16.0391 17.5836 16.0507 17.2173C16.0622 16.8511 16.1898 16.5453 16.4333 16.3L18.9 13.8333Z" fill="white"/>
</svg>
