<svg width="32" height="33" viewBox="0 0 32 33" fill="none" xmlns="http://www.w3.org/2000/svg">
<path d="M14.6132 28.5C14.303 28.5 14.0341 28.3982 13.8065 28.1947C13.5781 27.9911 13.4363 27.7373 13.3812 27.4333L13.0305 24.644C12.6048 24.5151 12.1443 24.3133 11.6492 24.0387C11.155 23.7631 10.7341 23.468 10.3865 23.1533L7.8332 24.252C7.55142 24.3765 7.2652 24.3898 6.97453 24.292C6.68387 24.1942 6.45987 24.0098 6.30253 23.7387L4.86387 21.26C4.70653 20.9889 4.66031 20.7053 4.7252 20.4093C4.79009 20.1133 4.94475 19.8707 5.1892 19.6813L7.41853 18.0147C7.37853 17.7729 7.34609 17.5245 7.3212 17.2693C7.29453 17.0133 7.2812 16.7649 7.2812 16.524C7.2812 16.3 7.29453 16.0645 7.3212 15.8173C7.34609 15.5702 7.37853 15.292 7.41853 14.9827L5.1892 13.316C4.94475 13.1267 4.79453 12.88 4.73853 12.576C4.68253 12.272 4.73275 11.984 4.8892 11.712L6.30253 9.31201C6.45987 9.0569 6.68387 8.87645 6.97453 8.77067C7.2652 8.66489 7.55142 8.67423 7.8332 8.79867L10.3612 9.87067C10.7594 9.53912 11.1905 9.24001 11.6545 8.97334C12.1168 8.70667 12.567 8.50045 13.0052 8.35467L13.3825 5.56534C13.4368 5.26134 13.5781 5.00756 13.8065 4.80401C14.035 4.60045 14.3039 4.49912 14.6132 4.50001H17.3865C17.6968 4.50001 17.9656 4.60178 18.1932 4.80534C18.4216 5.00889 18.5634 5.26267 18.6185 5.56667L18.9692 8.38267C19.4803 8.56223 19.9319 8.76801 20.3239 9.00001C20.7159 9.23201 21.1199 9.52267 21.5359 9.87201L24.1919 8.80001C24.4745 8.67556 24.7612 8.66623 25.0519 8.77201C25.3425 8.87778 25.5661 9.05823 25.7225 9.31334L27.1359 11.7387C27.2932 12.0107 27.3394 12.2942 27.2745 12.5893C27.2096 12.8845 27.055 13.1276 26.8105 13.3187L24.4799 15.06C24.5528 15.3356 24.5936 15.5885 24.6025 15.8187C24.6114 16.0489 24.6159 16.2756 24.6159 16.4987C24.6159 16.7058 24.607 16.924 24.5892 17.1533C24.5723 17.3836 24.5332 17.6618 24.4719 17.988L26.7252 19.6813C26.9696 19.8707 27.1288 20.1133 27.2025 20.4093C27.2763 20.7053 27.2345 20.9889 27.0772 21.26L25.6559 23.712C25.4994 23.984 25.2714 24.1685 24.9719 24.2653C24.6723 24.3631 24.3816 24.3498 24.0999 24.2253L21.5359 23.1267C21.1208 23.476 20.703 23.7751 20.2825 24.024C19.8621 24.2729 19.4243 24.4707 18.9692 24.6173L18.6172 27.432C18.563 27.736 18.4216 27.9898 18.1932 28.1933C17.9648 28.3969 17.6959 28.4991 17.3865 28.5H14.6132ZM14.6665 27.1667H17.2745L17.7665 23.556C18.4385 23.3782 19.043 23.1342 19.5799 22.824C20.1185 22.5138 20.6661 22.0889 21.2225 21.5493L24.5492 22.9667L25.8745 20.7L22.9559 18.508C23.067 18.1285 23.1408 17.7791 23.1772 17.46C23.2128 17.1418 23.2305 16.8218 23.2305 16.5C23.2305 16.1622 23.2128 15.8422 23.1772 15.54C23.1416 15.2378 23.0679 14.9058 22.9559 14.544L25.9252 12.3L24.5999 10.0333L21.1972 11.46C20.7936 11.0165 20.2634 10.6009 19.6065 10.2133C18.9488 9.82667 18.3265 9.57023 17.7399 9.44401L17.3332 5.83334H14.6745L14.2585 9.41867C13.5865 9.56178 12.9688 9.79289 12.4052 10.112C11.8425 10.4302 11.2825 10.868 10.7252 11.4253L7.39987 10.0333L6.07453 12.3L8.96653 14.46C8.85542 14.7587 8.77764 15.0831 8.7332 15.4333C8.68875 15.7836 8.66653 16.148 8.66653 16.5267C8.66653 16.8645 8.68875 17.2 8.7332 17.5333C8.77764 17.8667 8.84698 18.1911 8.9412 18.5067L6.07453 20.7L7.39987 22.9667L10.6999 21.5667C11.2234 22.0947 11.7665 22.5182 12.3292 22.8373C12.8928 23.1565 13.5274 23.4049 14.2332 23.5827L14.6665 27.1667ZM15.9639 19.8333C16.8936 19.8333 17.6816 19.5102 18.3279 18.864C18.9741 18.2178 19.2972 17.4298 19.2972 16.5C19.2972 15.5702 18.9741 14.7822 18.3279 14.136C17.6816 13.4898 16.8936 13.1667 15.9639 13.1667C15.0288 13.1667 14.2394 13.4898 13.5959 14.136C12.9523 14.7822 12.6305 15.5702 12.6305 16.5C12.6305 17.4298 12.9523 18.2178 13.5959 18.864C14.2394 19.5102 15.0288 19.8333 15.9639 19.8333Z" fill="white"/>
</svg>
