<svg width="30" height="25" viewBox="0 0 30 25" fill="none" xmlns="http://www.w3.org/2000/svg">
<path d="M18 16H24V17H18V16ZM18 14H22.065V15H18V14ZM18 12H24V13H18V12ZM18 10H22.065V11H18V10ZM18 8H24V9H18V8Z" fill="white" stroke="white"/>
<path d="M29 3H27V1.5C27 1.36739 26.9473 1.24021 26.8536 1.14645C26.7598 1.05268 26.6326 1 26.5 1H20.36C18.4802 1.01816 16.6358 1.51366 15 2.44C13.3632 1.5161 11.5195 1.02077 9.64 1H3.5C3.36739 1 3.24021 1.05268 3.14645 1.14645C3.05268 1.24021 3 1.36739 3 1.5V3H1C0.867392 3 0.740215 3.05268 0.646447 3.14645C0.552678 3.24021 0.5 3.36739 0.5 3.5V23.5C0.5 23.6326 0.552678 23.7598 0.646447 23.8536C0.740215 23.9473 0.867392 24 1 24H29C29.1326 24 29.2598 23.9473 29.3536 23.8536C29.4473 23.7598 29.5 23.6326 29.5 23.5V3.5C29.5 3.36739 29.4473 3.24021 29.3536 3.14645C29.2598 3.05268 29.1326 3 29 3ZM20.36 2H26V19.5H20.36C18.6706 19.5218 17.0084 19.9288 15.5 20.69V3.31C16.9829 2.46877 18.6552 2.018 20.36 2ZM9 2V11.565L8.275 11.065C8.19336 11.0112 8.09775 10.9826 8 10.9826C7.90225 10.9826 7.80664 11.0112 7.725 11.065L7 11.565V2H9ZM4 2H6V12.5C6.00046 12.59 6.02523 12.6783 6.0717 12.7554C6.11816 12.8325 6.18458 12.8957 6.26396 12.9382C6.34334 12.9807 6.43272 13.001 6.52267 12.9969C6.61262 12.9928 6.6998 12.9645 6.775 12.915L8 12.1L9.225 12.915C9.3002 12.9645 9.38738 12.9928 9.47733 12.9969C9.56728 13.001 9.65666 12.9807 9.73604 12.9382C9.81542 12.8957 9.88184 12.8325 9.9283 12.7554C9.97477 12.6783 9.99954 12.59 10 12.5V2C11.5811 2.07509 13.1224 2.52037 14.5 3.3V20.69C12.9978 19.9121 11.3316 19.5041 9.64 19.5H4V2ZM28.5 23H1.5V4H3V20C3 20.1326 3.05268 20.2598 3.14645 20.3536C3.24021 20.4473 3.36739 20.5 3.5 20.5H9.64C11.1151 20.4989 12.5702 20.8412 13.89 21.5C14.69 21.85 14.89 22.115 15.225 21.94L16.11 21.5C17.4298 20.8412 18.8849 20.4989 20.36 20.5H26.5C26.6326 20.5 26.7598 20.4473 26.8536 20.3536C26.9473 20.2598 27 20.1326 27 20V4H28.5V23Z" fill="white" stroke="white"/>
</svg>
