<svg width="32" height="33" viewBox="0 0 32 33" fill="none" xmlns="http://www.w3.org/2000/svg">
<path d="M17.3333 11.1667V5.83333C17.3333 5.45556 17.4613 5.13911 17.7173 4.884C17.9733 4.62889 18.2898 4.50089 18.6667 4.5H26.6667C27.0444 4.5 27.3613 4.628 27.6173 4.884C27.8733 5.14 28.0009 5.45644 28 5.83333V11.1667C28 11.5444 27.872 11.8613 27.616 12.1173C27.36 12.3733 27.0436 12.5009 26.6667 12.5H18.6667C18.2889 12.5 17.9724 12.372 17.7173 12.116C17.4622 11.86 17.3342 11.5436 17.3333 11.1667ZM4 16.5V5.83333C4 5.45556 4.128 5.13911 4.384 4.884C4.64 4.62889 4.95644 4.50089 5.33333 4.5H13.3333C13.7111 4.5 14.028 4.628 14.284 4.884C14.54 5.14 14.6676 5.45644 14.6667 5.83333V16.5C14.6667 16.8778 14.5387 17.1947 14.2827 17.4507C14.0267 17.7067 13.7102 17.8342 13.3333 17.8333H5.33333C4.95556 17.8333 4.63911 17.7053 4.384 17.4493C4.12889 17.1933 4.00089 16.8769 4 16.5ZM17.3333 27.1667V16.5C17.3333 16.1222 17.4613 15.8058 17.7173 15.5507C17.9733 15.2956 18.2898 15.1676 18.6667 15.1667H26.6667C27.0444 15.1667 27.3613 15.2947 27.6173 15.5507C27.8733 15.8067 28.0009 16.1231 28 16.5V27.1667C28 27.5444 27.872 27.8613 27.616 28.1173C27.36 28.3733 27.0436 28.5009 26.6667 28.5H18.6667C18.2889 28.5 17.9724 28.372 17.7173 28.116C17.4622 27.86 17.3342 27.5436 17.3333 27.1667ZM4 27.1667V21.8333C4 21.4556 4.128 21.1391 4.384 20.884C4.64 20.6289 4.95644 20.5009 5.33333 20.5H13.3333C13.7111 20.5 14.028 20.628 14.284 20.884C14.54 21.14 14.6676 21.4564 14.6667 21.8333V27.1667C14.6667 27.5444 14.5387 27.8613 14.2827 28.1173C14.0267 28.3733 13.7102 28.5009 13.3333 28.5H5.33333C4.95556 28.5 4.63911 28.372 4.384 28.116C4.12889 27.86 4.00089 27.5436 4 27.1667ZM6.66667 15.1667H12V7.16667H6.66667V15.1667ZM20 25.8333H25.3333V17.8333H20V25.8333ZM20 9.83333H25.3333V7.16667H20V9.83333ZM6.66667 25.8333H12V23.1667H6.66667V25.8333Z" fill="white"/>
</svg>
