<svg width="32" height="33" viewBox="0 0 32 33" fill="none" xmlns="http://www.w3.org/2000/svg">
<path d="M12.004 8.50003C12.004 7.44022 12.425 6.42382 13.1744 5.67443C13.9238 4.92503 14.9402 4.50403 16 4.50403C17.0598 4.50403 18.0762 4.92503 18.8256 5.67443C19.575 6.42382 19.996 7.44022 19.996 8.50003C19.996 9.55983 19.575 10.5762 18.8256 11.3256C18.0762 12.075 17.0598 12.496 16 12.496C14.9402 12.496 13.9238 12.075 13.1744 11.3256C12.425 10.5762 12.004 9.55983 12.004 8.50003ZM16 6.50403C15.7379 6.50403 15.4783 6.55566 15.2362 6.65596C14.994 6.75627 14.774 6.9033 14.5886 7.08864C14.4033 7.27399 14.2562 7.49403 14.1559 7.73619C14.0556 7.97836 14.004 8.23791 14.004 8.50003C14.004 8.76215 14.0556 9.0217 14.1559 9.26386C14.2562 9.50603 14.4033 9.72607 14.5886 9.91141C14.774 10.0968 14.994 10.2438 15.2362 10.3441C15.4783 10.4444 15.7379 10.496 16 10.496C16.5294 10.496 17.0371 10.2857 17.4114 9.91141C17.7857 9.53709 17.996 9.0294 17.996 8.50003C17.996 7.97066 17.7857 7.46297 17.4114 7.08864C17.0371 6.71432 16.5294 6.50403 16 6.50403ZM22 9.50003C22 9.10606 22.0776 8.71595 22.2284 8.35198C22.3791 7.988 22.6001 7.65728 22.8787 7.37871C23.1573 7.10013 23.488 6.87915 23.8519 6.72839C24.2159 6.57763 24.606 6.50003 25 6.50003C25.394 6.50003 25.7841 6.57763 26.1481 6.72839C26.512 6.87915 26.8427 7.10013 27.1213 7.37871C27.3999 7.65728 27.6209 7.988 27.7716 8.35198C27.9224 8.71595 28 9.10606 28 9.50003C28 10.2957 27.6839 11.0587 27.1213 11.6213C26.5587 12.184 25.7956 12.5 25 12.5C24.2044 12.5 23.4413 12.184 22.8787 11.6213C22.3161 11.0587 22 10.2957 22 9.50003ZM25 8.50003C24.7348 8.50003 24.4804 8.60539 24.2929 8.79292C24.1054 8.98046 24 9.23481 24 9.50003C24 9.76524 24.1054 10.0196 24.2929 10.2071C24.4804 10.3947 24.7348 10.5 25 10.5C25.2652 10.5 25.5196 10.3947 25.7071 10.2071C25.8946 10.0196 26 9.76524 26 9.50003C26 9.23481 25.8946 8.98046 25.7071 8.79292C25.5196 8.60539 25.2652 8.50003 25 8.50003ZM7 6.50003C6.20435 6.50003 5.44129 6.8161 4.87868 7.37871C4.31607 7.94132 4 8.70438 4 9.50003C4 10.2957 4.31607 11.0587 4.87868 11.6213C5.44129 12.184 6.20435 12.5 7 12.5C7.79565 12.5 8.55871 12.184 9.12132 11.6213C9.68393 11.0587 10 10.2957 10 9.50003C10 8.70438 9.68393 7.94132 9.12132 7.37871C8.55871 6.8161 7.79565 6.50003 7 6.50003ZM6 9.50003C6 9.23481 6.10536 8.98046 6.29289 8.79292C6.48043 8.60539 6.73478 8.50003 7 8.50003C7.26522 8.50003 7.51957 8.60539 7.70711 8.79292C7.89464 8.98046 8 9.23481 8 9.50003C8 9.76524 7.89464 10.0196 7.70711 10.2071C7.51957 10.3947 7.26522 10.5 7 10.5C6.73478 10.5 6.48043 10.3947 6.29289 10.2071C6.10536 10.0196 6 9.76524 6 9.50003ZM8.536 14.5C8.18489 15.1081 8.00003 15.7979 8 16.5H4V21.5C3.99984 21.9975 4.12339 22.4872 4.35953 22.9251C4.59568 23.3629 4.937 23.7352 5.35278 24.0083C5.76855 24.2815 6.24573 24.4469 6.74135 24.4898C7.23697 24.5327 7.73548 24.4517 8.192 24.254C8.34 24.916 8.572 25.548 8.872 26.138C8.11293 26.4445 7.29022 26.5599 6.47611 26.4742C5.66201 26.3884 4.88142 26.1041 4.20288 25.6461C3.52435 25.1882 2.96864 24.5706 2.58455 23.8477C2.20045 23.1248 1.99973 22.3186 2 21.5V16.5C2 15.9696 2.21071 15.4609 2.58579 15.0858C2.96086 14.7107 3.46957 14.5 4 14.5H8.536ZM23.128 26.138C23.8871 26.4445 24.7098 26.5599 25.5239 26.4742C26.338 26.3884 27.1186 26.1041 27.7971 25.6461C28.4756 25.1882 29.0314 24.5706 29.4155 23.8477C29.7995 23.1248 30.0003 22.3186 30 21.5V16.5C30 15.9696 29.7893 15.4609 29.4142 15.0858C29.0391 14.7107 28.5304 14.5 28 14.5H23.464C23.804 15.088 24 15.77 24 16.5H28V21.5C28.0002 21.9975 27.8766 22.4872 27.6405 22.9251C27.4043 23.3629 27.063 23.7352 26.6472 24.0083C26.2314 24.2815 25.7543 24.4469 25.2586 24.4898C24.763 24.5327 24.2645 24.4517 23.808 24.254C23.656 24.918 23.4293 25.546 23.128 26.138ZM12 14.498C11.4696 14.498 10.9609 14.7087 10.5858 15.0838C10.2107 15.4589 10 15.9676 10 16.498V22.5C10 24.0913 10.6321 25.6175 11.7574 26.7427C12.8826 27.8679 14.4087 28.5 16 28.5C17.5913 28.5 19.1174 27.8679 20.2426 26.7427C21.3679 25.6175 22 24.0913 22 22.5V16.5C22 15.9696 21.7893 15.4609 21.4142 15.0858C21.0391 14.7107 20.5304 14.5 20 14.5L12 14.498ZM12 16.498H20V22.5C20 23.5609 19.5786 24.5783 18.8284 25.3285C18.0783 26.0786 17.0609 26.5 16 26.5C14.9391 26.5 13.9217 26.0786 13.1716 25.3285C12.4214 24.5783 12 23.5609 12 22.5V16.498Z" fill="white"/>
</svg>
