<svg width="32" height="33" viewBox="0 0 32 33" fill="none" xmlns="http://www.w3.org/2000/svg">
<path d="M28.3162 7.5512L16.3162 3.5512C16.111 3.48277 15.889 3.48277 15.6838 3.5512L3.68375 7.5512C3.48463 7.61758 3.31145 7.74493 3.18873 7.91521C3.06601 8.08549 2.99998 8.29006 3 8.49995V18.5C3 18.7652 3.10536 19.0195 3.29289 19.2071C3.48043 19.3946 3.73478 19.5 4 19.5C4.26522 19.5 4.51957 19.3946 4.70711 19.2071C4.89464 19.0195 5 18.7652 5 18.5V9.88745L9.19875 11.2862C8.0832 13.0885 7.72846 15.2598 8.21242 17.3233C8.69638 19.3869 9.97949 21.1741 11.78 22.2925C9.53 23.175 7.585 24.7712 6.1625 26.9537C6.08852 27.0637 6.03713 27.1872 6.01133 27.3172C5.98552 27.4472 5.98581 27.581 6.01218 27.7109C6.03854 27.8408 6.09046 27.9641 6.16492 28.0737C6.23937 28.1834 6.33488 28.2771 6.44588 28.3495C6.55688 28.4219 6.68117 28.4715 6.81151 28.4955C6.94185 28.5194 7.07566 28.5172 7.20514 28.489C7.33463 28.4608 7.45722 28.4071 7.56577 28.3311C7.67433 28.2551 7.7667 28.1582 7.8375 28.0462C9.72125 25.1562 12.6962 23.5 16 23.5C19.3038 23.5 22.2788 25.1562 24.1625 28.0462C24.3092 28.2642 24.5357 28.4157 24.7932 28.468C25.0507 28.5203 25.3184 28.4691 25.5385 28.3256C25.7586 28.182 25.9133 27.9576 25.9692 27.7009C26.0252 27.4442 25.9779 27.1758 25.8375 26.9537C24.415 24.7712 22.4625 23.175 20.22 22.2925C22.0188 21.1741 23.3007 19.3881 23.7846 17.3261C24.2684 15.264 23.9148 13.0942 22.8013 11.2925L28.3162 9.45495C28.5154 9.38861 28.6886 9.26128 28.8114 9.091C28.9342 8.92072 29.0002 8.71612 29.0002 8.5062C29.0002 8.29628 28.9342 8.09169 28.8114 7.92141C28.6886 7.75112 28.5154 7.62379 28.3162 7.55745V7.5512ZM22 15.5C22.0003 16.4485 21.7756 17.3836 21.3445 18.2286C20.9134 19.0735 20.2881 19.8042 19.5199 20.3607C18.7517 20.9172 17.8625 21.2836 16.9253 21.4299C15.9881 21.5762 15.0295 21.4982 14.1283 21.2022C13.2271 20.9063 12.4088 20.401 11.7407 19.7276C11.0726 19.0542 10.5737 18.2321 10.2849 17.3285C9.99607 16.425 9.92559 15.4659 10.0792 14.5298C10.2329 13.5938 10.6063 12.7075 11.1687 11.9437L15.6838 13.4437C15.889 13.5121 16.111 13.5121 16.3162 13.4437L20.8312 11.9437C21.5909 12.9737 22.0005 14.2201 22 15.5Z" fill="white"/>
</svg>
