<svg width="32" height="33" viewBox="0 0 32 33" fill="none" xmlns="http://www.w3.org/2000/svg">
<path d="M6.66667 28.5C5.93333 28.5 5.30578 28.2391 4.784 27.7173C4.26222 27.1956 4.00089 26.5676 4 25.8333V7.16667C4 6.43333 4.26133 5.80578 4.784 5.284C5.30667 4.76222 5.93422 4.50089 6.66667 4.5H14.6667C15.0444 4.5 15.3613 4.628 15.6173 4.884C15.8733 5.14 16.0009 5.45644 16 5.83333C15.9991 6.21022 15.8711 6.52711 15.616 6.784C15.3609 7.04089 15.0444 7.16844 14.6667 7.16667H6.66667V25.8333H14.6667C15.0444 25.8333 15.3613 25.9613 15.6173 26.2173C15.8733 26.4733 16.0009 26.7898 16 27.1667C15.9991 27.5436 15.8711 27.8604 15.616 28.1173C15.3609 28.3742 15.0444 28.5018 14.6667 28.5H6.66667ZM22.9 17.8333H13.3333C12.9556 17.8333 12.6391 17.7053 12.384 17.4493C12.1289 17.1933 12.0009 16.8769 12 16.5C11.9991 16.1231 12.1271 15.8067 12.384 15.5507C12.6409 15.2947 12.9573 15.1667 13.3333 15.1667H22.9L20.4 12.6667C20.1556 12.4222 20.0333 12.1222 20.0333 11.7667C20.0333 11.4111 20.1556 11.1 20.4 10.8333C20.6444 10.5667 20.9556 10.4276 21.3333 10.416C21.7111 10.4044 22.0333 10.5324 22.3 10.8L27.0667 15.5667C27.3333 15.8333 27.4667 16.1444 27.4667 16.5C27.4667 16.8556 27.3333 17.1667 27.0667 17.4333L22.3 22.2C22.0333 22.4667 21.7169 22.5947 21.3507 22.584C20.9844 22.5733 20.6676 22.4342 20.4 22.1667C20.1556 21.9 20.0391 21.5836 20.0507 21.2173C20.0622 20.8511 20.1898 20.5453 20.4333 20.3L22.9 17.8333Z" fill="white"/>
</svg>
