<svg width="36" height="36" viewBox="0 0 36 36" fill="none" xmlns="http://www.w3.org/2000/svg">
<path d="M10.4999 30C9.6749 30 8.9689 29.7065 8.3819 29.1195C7.7949 28.5325 7.5009 27.826 7.4999 27V16.275L4.4999 18.5625C4.1499 18.8125 3.7749 18.919 3.3749 18.882C2.9749 18.845 2.6499 18.651 2.3999 18.3C2.1499 17.949 2.0499 17.574 2.0999 17.175C2.1499 16.776 2.3499 16.451 2.6999 16.2L16.1624 5.88748C16.4374 5.68748 16.7314 5.53748 17.0444 5.43748C17.3574 5.33748 17.6759 5.28748 17.9999 5.28748C18.3239 5.28748 18.6429 5.33748 18.9569 5.43748C19.2709 5.53748 19.5644 5.68748 19.8374 5.88748L23.9999 9.07498V8.24998C23.9999 7.62498 24.2189 7.09398 24.6569 6.65698C25.0949 6.21998 25.6259 6.00098 26.2499 5.99998C26.8739 5.99898 27.4054 6.21798 27.8444 6.65698C28.2834 7.09598 28.5019 7.62698 28.4999 8.24998V12.525L33.2999 16.2C33.6249 16.45 33.8189 16.775 33.8819 17.175C33.9449 17.575 33.8509 17.95 33.5999 18.3C33.3489 18.65 33.0239 18.844 32.6249 18.882C32.2259 18.92 31.8509 18.8135 31.4999 18.5625L28.4999 16.275V27C28.4999 27.825 28.2064 28.5315 27.6194 29.1195C27.0324 29.7075 26.3259 30.001 25.4999 30H22.4999C21.6749 30 20.9689 29.7065 20.3819 29.1195C19.7949 28.5325 19.5009 27.826 19.4999 27V21H16.4999V27C16.4999 27.825 16.2064 28.5315 15.6194 29.1195C15.0324 29.7075 14.3259 30.001 13.4999 30H10.4999ZM10.4999 27H13.4999V21C13.4999 20.175 13.7939 19.469 14.3819 18.882C14.9699 18.295 15.6759 18.001 16.4999 18H19.4999C20.3249 18 21.0314 18.294 21.6194 18.882C22.2074 19.47 22.5009 20.176 22.4999 21V27H25.4999V13.9875L17.9999 8.28748L10.4999 13.9875V27ZM14.9999 15.0375H20.9999C20.9999 14.2375 20.6999 13.581 20.0999 13.068C19.4999 12.555 18.7999 12.299 17.9999 12.3C17.1999 12.301 16.4999 12.5575 15.8999 13.0695C15.2999 13.5815 14.9999 14.2375 14.9999 15.0375Z" fill="white"/>
</svg>
