<svg width="32" height="33" viewBox="0 0 32 33" fill="none" xmlns="http://www.w3.org/2000/svg">
<g clip-path="url(#clip0_136_259)">
<path d="M27.5573 20.3575C27.5636 20.7688 27.5304 21.2119 27.4517 21.6894C27.3904 22.0587 27.4029 22.4362 27.4804 22.8025C28.1686 26.0562 27.8761 29.9175 27.4342 31.7906C27.4182 31.8591 27.3794 31.9202 27.3243 31.9639C27.2691 32.0076 27.2008 32.0313 27.1304 32.0312H24.0486C23.8979 32.0312 23.7692 31.9244 23.7417 31.7769C23.5648 30.8206 22.9261 27.3713 22.4542 24.87C22.3386 25.0763 22.2086 25.2737 22.0636 25.4587C21.6254 26.0212 21.3729 26.7062 21.3729 27.4194L21.3729 31.6401C21.3729 31.6915 21.3628 31.7424 21.3432 31.7899C21.3236 31.8373 21.2947 31.8805 21.2584 31.9168C21.2221 31.9531 21.179 31.9819 21.1315 32.0016C21.084 32.0212 21.0331 32.0313 20.9818 32.0312H11.0178C10.9664 32.0313 10.9156 32.0212 10.8681 32.0016C10.8206 31.9819 10.7775 31.9531 10.7412 31.9168C10.7048 31.8805 10.676 31.8373 10.6564 31.7899C10.6367 31.7424 10.6267 31.6915 10.6267 31.6401L10.6266 27.4194C10.6266 26.7062 10.3741 26.0212 9.93601 25.4587C9.79101 25.2737 9.66101 25.0763 9.54538 24.87C9.07351 27.3713 8.43476 30.8206 8.25788 31.7769C8.2445 31.8484 8.20648 31.9131 8.15042 31.9595C8.09437 32.006 8.02382 32.0314 7.95101 32.0312H4.8692C4.7242 32.0312 4.59857 31.9319 4.56545 31.7906C4.12357 29.9175 3.83107 26.0562 4.5192 22.8025C4.5967 22.4362 4.6092 22.0587 4.54795 21.6894C3.90045 17.7619 6.32232 16.1556 8.5417 15.7188C8.81857 15.6644 9.08607 15.5694 9.33232 15.4312C10.3279 14.8719 11.5111 14.5063 12.9654 14.3188C13.0941 14.3021 13.2123 14.2392 13.298 14.1418C13.3837 14.0444 13.431 13.9191 13.4311 13.7894V12.6737M18.5686 12.6737V13.7894C18.5686 14.0575 18.7679 14.2844 19.0342 14.3188C20.4886 14.5063 21.6717 14.8719 22.6673 15.4312C22.9136 15.5694 23.1811 15.6644 23.4579 15.7188C24.8561 15.9938 26.3348 16.7331 27.0754 18.225M10.7061 7.855L10.5279 7.5125C10.3016 7.07651 10.1835 6.59248 10.1836 6.10125V3.19688C10.1836 1.96625 11.1811 0.96875 12.4117 0.96875H13.2386M15.3979 0.96875H19.0529C19.6348 0.96875 20.1067 1.44063 20.1067 2.02313V2.48375C20.1067 2.71937 20.2979 2.91062 20.5336 2.91062H20.7854C21.3548 2.91062 21.8161 3.37188 21.8161 3.94125V6.10125C21.8161 6.5925 21.6979 7.07687 21.4717 7.5125L21.2936 7.855" stroke="white" stroke-width="2" stroke-miterlimit="10" stroke-linecap="round" stroke-linejoin="round"/>
<path d="M12.1371 10.6981H11.0459C10.5665 10.6981 10.1777 10.3094 10.1777 9.83V8.65438C10.1777 8.175 10.5665 7.78625 11.0459 7.78625H12.1371M19.8621 7.78625H20.9534C21.4327 7.78625 21.8215 8.175 21.8215 8.65438V9.83C21.8215 10.3094 21.4327 10.6981 20.9534 10.6981H19.8621" stroke="white" stroke-width="2" stroke-miterlimit="10" stroke-linecap="round" stroke-linejoin="round"/>
<path d="M8.95494 22.601C8.95494 23.6778 9.32076 24.669 9.93463 25.4576C10.3741 26.0221 10.6268 26.7093 10.6268 27.4247L10.6268 31.6402C10.6268 31.744 10.668 31.8434 10.7414 31.9168C10.8147 31.9901 10.9142 32.0313 11.0179 32.0314H20.9818C21.0855 32.0313 21.185 31.9901 21.2583 31.9168C21.3317 31.8434 21.3729 31.744 21.3729 31.6402L21.3729 27.4247C21.3729 26.7093 21.6256 26.0221 22.0651 25.4576C22.6789 24.669 23.0448 23.6778 23.0448 22.601M27.8854 26.6046H22.7798M10.9043 14.7589C11.6651 16.5999 13.6594 17.9138 15.9998 17.9138C18.3403 17.9138 20.3346 16.5999 21.0954 14.7589M9.21982 26.6046H4.11426M16.8898 21.5707C18.2379 20.9513 21.4198 19.0713 21.7692 15.0001M10.2304 15.0001C10.5798 19.0763 13.7698 20.9563 15.1148 21.5732M18.2998 4.76843H13.6998C12.8369 4.76843 12.1373 5.468 12.1373 6.331V10.8328C12.1372 11.1793 12.2745 11.5117 12.5189 11.7574L13.5809 12.8246C13.747 12.9915 13.9444 13.1239 14.1618 13.2143C14.3792 13.3046 14.6123 13.3511 14.8477 13.3511H17.1517C17.3871 13.3511 17.6202 13.3046 17.8376 13.2143C18.055 13.1239 18.2524 12.9915 18.4184 12.8246L19.4805 11.7574C19.7249 11.5118 19.8621 11.1793 19.8621 10.8328V6.331C19.8623 5.468 19.1628 4.76843 18.2998 4.76843Z" stroke="white" stroke-width="2" stroke-miterlimit="10" stroke-linecap="round" stroke-linejoin="round"/>
<path d="M17.6436 22.9518C17.6436 22.0286 16.8825 21.2832 15.9536 21.3086C15.0582 21.3332 14.356 22.0903 14.356 22.986V26.6794C14.356 26.7794 14.3957 26.8753 14.4664 26.946C14.5371 27.0167 14.633 27.0564 14.733 27.0564H16.0631C16.1631 27.0564 16.259 27.0167 16.3297 26.946C16.4004 26.8753 16.4401 26.7794 16.4401 26.6794V24.7649C16.4401 24.6332 16.5206 24.5165 16.6418 24.465C17.2305 24.2151 17.6436 23.6318 17.6436 22.9518Z" stroke="white" stroke-width="2" stroke-miterlimit="10" stroke-linecap="round" stroke-linejoin="round"/>
</g>
<defs>
<clipPath id="clip0_136_259">
<rect width="32" height="32" fill="white" transform="translate(0 0.5)"/>
</clipPath>
</defs>
</svg>
