<svg width="32" height="33" viewBox="0 0 32 33" fill="none" xmlns="http://www.w3.org/2000/svg">
<g clip-path="url(#clip0_136_267)">
<path d="M9.53504 12.0732V8.88247H8.97904C8.83276 8.88223 8.68755 8.85764 8.54934 8.80972C7.92434 9.09072 7.44434 9.74054 7.44434 10.4554C7.44434 11.4778 8.39191 12.3165 9.53798 12.1907C9.53685 12.1516 9.53504 12.1125 9.53504 12.0732ZM19.4081 8.70972C19.2656 8.81753 19.0889 8.88247 18.8974 8.88247C18.7848 8.88244 18.6724 8.87062 18.5622 8.84722V12.0732C18.5622 12.1129 18.5602 12.152 18.5592 12.1913C19.7042 12.3131 20.6529 11.4746 20.6529 10.4494C20.6529 9.67229 20.1468 8.94347 19.4081 8.70972Z" stroke="white" stroke-width="2" stroke-miterlimit="10" stroke-linecap="round" stroke-linejoin="round"/>
<path d="M6.33838 31.8619V23.9113M17.2747 7.25991C17.2747 7.17297 17.1582 7.14297 17.1172 7.21966C16.5882 8.20905 15.5458 8.88243 14.3454 8.88243H9.53478V12.0732C9.53478 14.3985 11.3567 16.5224 14.1128 16.5224C16.5661 16.5224 18.562 14.5265 18.562 12.0732V8.84718C17.829 8.69167 17.2747 8.03748 17.2747 7.25991Z" stroke="white" stroke-width="2" stroke-miterlimit="10" stroke-linecap="round" stroke-linejoin="round"/>
<path d="M13.175 21.4762C13.1865 21.3438 13.1486 21.2117 13.0685 21.1056L10.6685 17.9129L11.3591 17.6431C11.462 17.5733 11.5513 17.4638 11.5513 17.278V15.7913C12.2583 16.2485 13.1252 16.5223 14.113 16.5223C15.0089 16.5223 15.8431 16.2553 16.5421 15.7979L16.5433 17.2807C16.5436 17.3715 16.5712 17.4602 16.6227 17.535C16.6741 17.6099 16.7469 17.6675 16.8316 17.7003L17.418 17.9273L15.0288 21.1056C14.9487 21.2117 14.9108 21.3438 14.9224 21.4762M13.175 21.4762H14.9224M13.175 21.4762C13.1679 21.5619 13.1404 21.6445 13.0949 21.7174C13.0494 21.7903 12.9872 21.8512 12.9133 21.8952L12.8912 21.9084V26.0199C12.8912 26.41 13.2075 26.7263 13.5976 26.7263H14.4889C14.879 26.7263 15.1952 26.41 15.1952 26.0199V21.9019L15.184 21.8952C15.1102 21.8512 15.0479 21.7903 15.0024 21.7174C14.9569 21.6445 14.9295 21.5619 14.9224 21.4762" stroke="white" stroke-width="2" stroke-miterlimit="10" stroke-linecap="round" stroke-linejoin="round"/>
<path d="M17.4177 17.9274L15.0285 21.1056C14.8353 21.3626 14.9076 21.7304 15.1836 21.8952L16.3432 22.5873C16.4596 22.6568 16.5977 22.68 16.7304 22.6525C16.863 22.625 16.9805 22.5487 17.0597 22.4387L19.6755 18.8018L17.4177 17.9274ZM13.0683 21.1056L10.6682 17.9129L8.41491 18.7929L11.0371 22.4387C11.1162 22.5486 11.2337 22.6249 11.3663 22.6524C11.499 22.68 11.6372 22.6567 11.7535 22.5873L12.9131 21.8952C13.1892 21.7304 13.2615 21.3626 13.0683 21.1056ZM2.52148 25.7159H6.33839V27.9659H2.52148V25.7159ZM26.8111 16.9146H22.3921C22.3232 16.9146 22.2549 16.9281 22.1911 16.9545C22.1274 16.9809 22.0695 17.0196 22.0207 17.0684C21.9719 17.1172 21.9332 17.1751 21.9069 17.2388C21.8805 17.3026 21.8669 17.3709 21.8669 17.4399V18.3536C21.8669 18.4929 21.9222 18.6265 22.0207 18.725C22.1192 18.8235 22.2528 18.8789 22.3921 18.8789H26.8111C26.9504 18.8789 27.084 18.8235 27.1825 18.725C27.281 18.6265 27.3364 18.4929 27.3364 18.3536V17.4399C27.3364 17.3006 27.281 17.1669 27.1825 17.0684C27.084 16.9699 26.9504 16.9146 26.8111 16.9146Z" stroke="white" stroke-width="2" stroke-miterlimit="10" stroke-linecap="round" stroke-linejoin="round"/>
<path d="M22.586 18.9414V19.674C22.586 20.3064 23.0987 20.819 23.731 20.819H25.4727C26.105 20.819 26.6176 20.3064 26.6176 19.674V18.9414M19.725 31.0945V18.8335C19.725 18.8293 19.7256 18.8253 19.7256 18.8212L19.6757 18.8018L17.0598 22.4387C16.9807 22.5487 16.8632 22.625 16.7306 22.6525C16.5979 22.68 16.4597 22.6567 16.3434 22.5873L15.1838 21.8952C15.11 21.8512 15.0478 21.7903 15.0023 21.7174C14.9567 21.6445 14.9293 21.5619 14.9222 21.4762H13.1748C13.1677 21.5619 13.1402 21.6445 13.0947 21.7174C13.0492 21.7903 12.987 21.8512 12.9132 21.8952L11.7536 22.5873C11.6373 22.6567 11.4991 22.68 11.3664 22.6525C11.2338 22.625 11.1163 22.5487 11.0371 22.4387L8.41497 18.793L4.96144 20.1418C3.91831 20.5711 2.52148 21.9219 2.52148 23.9263V31.2182C2.52148 31.6673 2.88555 32.0313 3.33455 32.0313H20.6616C20.1444 32.0313 19.725 31.6119 19.725 31.0945Z" stroke="white" stroke-width="2" stroke-miterlimit="10" stroke-linecap="round" stroke-linejoin="round"/>
<path d="M25.6954 32.0312H28.5418C29.0591 32.0312 29.4785 31.6119 29.4785 31.0945V18.8334C29.4785 18.3161 29.0591 17.8967 28.5418 17.8967H27.3364V18.3536C27.3364 18.4929 27.2811 18.6265 27.1826 18.725C27.0841 18.8235 26.9505 18.8788 26.8112 18.8788H22.3922C22.2529 18.8788 22.1193 18.8235 22.0208 18.725C21.9223 18.6265 21.8669 18.4929 21.8669 18.3536V17.8967H20.6616C20.1442 17.8967 19.7249 18.3161 19.7249 18.8334V31.0945C19.7249 31.6118 20.1442 32.0312 20.6616 32.0312H23.5079M19.7477 4.92559V4.43328C19.7477 3.58546 19.0081 2.96927 18.2729 3.02577C17.8478 3.05845 17.4578 2.79114 17.3759 2.3727C17.2381 1.66807 16.8892 0.96875 15.5264 0.96875H10.798C9.06259 0.96875 7.65576 2.37557 7.65576 4.1109V7.55943C7.65576 8.29012 8.24808 8.88244 8.97877 8.88244H14.3454C15.5457 8.88244 16.5882 8.20906 17.1172 7.21967C17.1582 7.14299 17.2746 7.17292 17.2746 7.25992C17.2746 8.15237 18.0048 8.8825 18.8972 8.8825C19.365 8.8825 19.7477 8.49975 19.7477 8.03199V7.11317" stroke="white" stroke-width="2" stroke-miterlimit="10" stroke-linecap="round" stroke-linejoin="round"/>
</g>
<defs>
<clipPath id="clip0_136_267">
<rect width="32" height="32" fill="white" transform="translate(0 0.5)"/>
</clipPath>
</defs>
</svg>
