<?xml version="1.0" encoding="UTF-8"?>
<svg version="1.1" xmlns="http://www.w3.org/2000/svg" width="64" height="64">
<path d="M0 0 C3.91849877 0.54858983 5.84927877 2.23268763 9.125 4.4375 C11.71315623 5.32018908 14.30550628 6.0446001 16.953125 6.7265625 C19.125 7.4375 19.125 7.4375 21.125 9.4375 C21.95409704 12.17221799 22.59021725 14.93002113 23.24609375 17.7109375 C24.1483601 20.50996821 25.33278488 22.14581509 27.125 24.4375 C27.94588115 29.83186182 26.06857486 32.06418877 23.125 36.4375 C22.24231092 39.02565623 21.5178999 41.61800628 20.8359375 44.265625 C20.125 46.4375 20.125 46.4375 18.125 48.4375 C15.39028201 49.26659704 12.63247887 49.90271725 9.8515625 50.55859375 C7.05253179 51.4608601 5.41668491 52.64528488 3.125 54.4375 C-2.26936182 55.25838115 -4.50168877 53.38107486 -8.875 50.4375 C-11.46315623 49.55481092 -14.05550628 48.8303999 -16.703125 48.1484375 C-18.875 47.4375 -18.875 47.4375 -20.875 45.4375 C-21.70409704 42.70278201 -22.34021725 39.94497887 -22.99609375 37.1640625 C-23.8983601 34.36503179 -25.08278488 32.72918491 -26.875 30.4375 C-27.69588115 25.04313818 -25.81857486 22.81081123 -22.875 18.4375 C-21.99231092 15.84934377 -21.2678999 13.25699372 -20.5859375 10.609375 C-19.875 8.4375 -19.875 8.4375 -17.875 6.4375 C-15.14028201 5.60840296 -12.38247887 4.97228275 -9.6015625 4.31640625 C-5.91195319 3.12706227 -3.83622913 0.583774 0 0 Z " fill="#EC500A" transform="translate(31.875,4.5625)"/>
<path d="M0 0 C2.88437779 1.29299694 4.87219421 2.65941363 7 5 C9.24071094 3.99554337 10.87754985 3.12245015 12.625 1.375 C13.07875 0.92125 13.5325 0.4675 14 0 C14.66 0 15.32 0 16 0 C14.70700306 2.88437779 13.34058637 4.87219421 11 7 C12.00445663 9.24071094 12.87754985 10.87754985 14.625 12.625 C15.07875 13.07875 15.5325 13.5325 16 14 C16 14.66 16 15.32 16 16 C13.11562221 14.70700306 11.12780579 13.34058637 9 11 C6.75928906 12.00445663 5.12245015 12.87754985 3.375 14.625 C2.92125 15.07875 2.4675 15.5325 2 16 C1.34 16 0.68 16 0 16 C1.29299694 13.11562221 2.65941363 11.12780579 5 9 C3.99554337 6.75928906 3.12245015 5.12245015 1.375 3.375 C0.92125 2.92125 0.4675 2.4675 0 2 C0 1.34 0 0.68 0 0 Z " fill="#FDF0EA" transform="translate(24,24)"/>
</svg>
