<svg width="20" height="21" viewBox="0 0 20 21" fill="none" xmlns="http://www.w3.org/2000/svg">
<path d="M5.673 0.5C5.85865 0.5 6.0367 0.57375 6.16797 0.705025C6.29925 0.836301 6.373 1.01435 6.373 1.2V2.509H13.89V1.209C13.89 1.02335 13.9637 0.845301 14.095 0.714025C14.2263 0.58275 14.4043 0.509 14.59 0.509C14.7757 0.509 14.9537 0.58275 15.085 0.714025C15.2162 0.845301 15.29 1.02335 15.29 1.209V2.509H18C18.5303 2.509 19.0388 2.71958 19.4139 3.09443C19.7889 3.46929 19.9997 3.97774 20 4.508V18.501C19.9997 19.0313 19.7889 19.5397 19.4139 19.9146C19.0388 20.2894 18.5303 20.5 18 20.5H2C1.46974 20.5 0.961184 20.2894 0.58614 19.9146C0.211096 19.5397 0.00026513 19.0313 0 18.501L0 4.508C0.00026513 3.97774 0.211096 3.46929 0.58614 3.09443C0.961184 2.71958 1.46974 2.509 2 2.509H4.973V1.199C4.97327 1.01352 5.04713 0.835731 5.17838 0.704672C5.30963 0.573612 5.48752 0.5 5.673 0.5ZM1.4 8.242V18.501C1.4 18.5798 1.41552 18.6578 1.44567 18.7306C1.47583 18.8034 1.52002 18.8695 1.57574 18.9253C1.63145 18.981 1.69759 19.0252 1.77039 19.0553C1.84319 19.0855 1.92121 19.101 2 19.101H18C18.0788 19.101 18.1568 19.0855 18.2296 19.0553C18.3024 19.0252 18.3685 18.981 18.4243 18.9253C18.48 18.8695 18.5242 18.8034 18.5543 18.7306C18.5845 18.6578 18.6 18.5798 18.6 18.501V8.256L1.4 8.242ZM6.667 15.119V16.785H5V15.119H6.667ZM10.833 15.119V16.785H9.167V15.119H10.833ZM15 15.119V16.785H13.333V15.119H15ZM6.667 11.142V12.808H5V11.142H6.667ZM10.833 11.142V12.808H9.167V11.142H10.833ZM15 11.142V12.808H13.333V11.142H15ZM4.973 3.908H2C1.92121 3.908 1.84319 3.92352 1.77039 3.95367C1.69759 3.98382 1.63145 4.02802 1.57574 4.08374C1.52002 4.13945 1.47583 4.20559 1.44567 4.27839C1.41552 4.35119 1.4 4.42921 1.4 4.508V6.843L18.6 6.857V4.508C18.6 4.42921 18.5845 4.35119 18.5543 4.27839C18.5242 4.20559 18.48 4.13945 18.4243 4.08374C18.3685 4.02802 18.3024 3.98382 18.2296 3.95367C18.1568 3.92352 18.0788 3.908 18 3.908H15.29V4.837C15.29 5.02265 15.2162 5.2007 15.085 5.33197C14.9537 5.46325 14.7757 5.537 14.59 5.537C14.4043 5.537 14.2263 5.46325 14.095 5.33197C13.9637 5.2007 13.89 5.02265 13.89 4.837V3.908H6.373V4.828C6.373 5.01365 6.29925 5.1917 6.16797 5.32297C6.0367 5.45425 5.85865 5.528 5.673 5.528C5.48735 5.528 5.3093 5.45425 5.17803 5.32297C5.04675 5.1917 4.973 5.01365 4.973 4.828V3.908Z" fill="#374174"/>
</svg>
